<svg width="32" height="40" viewBox="0 0 32 40" fill="none" xmlns="http://www.w3.org/2000/svg">
<g clip-path="url(#clip0_249_15717)">
<path opacity="0.5" d="M6.77251 28.0521L3.38407 30.0363L0 28.0521L3.38407 26.0635L6.77251 28.0521Z" fill="#6A32B5"/>
<path opacity="0.5" d="M7.00321 23.946L3.61914 25.9302L7.00321 27.9144L10.3873 25.9302L7.00321 23.946Z" fill="#6A32B5"/>
<path opacity="0.5" d="M10.6248 21.8242L7.23633 23.8084L10.6248 25.7926L14.0088 23.8084L10.6248 21.8242Z" fill="#6A32B5"/>
<path opacity="0.5" d="M14.2395 19.7026L10.8555 21.6868L14.2395 23.671L17.628 21.6868L14.2395 19.7026Z" fill="#6A32B5"/>
<path opacity="0.5" d="M6.97001 28.1675L3.58594 30.1517L6.97001 32.1358L10.3584 30.1517L6.97001 28.1675Z" fill="#6A32B5"/>
<path opacity="0.7" d="M10.5891 26.0457L7.20508 28.0298L10.5891 30.014L13.9732 28.0298L10.5891 26.0457Z" fill="#6A32B5"/>
<path opacity="0.5" d="M14.2088 23.9238L10.8203 25.908L14.2088 27.8966L17.5928 25.908L14.2088 23.9238Z" fill="#6A32B5"/>
<path opacity="0.5" d="M17.8255 21.8022L14.4414 23.7909L17.8255 25.775L21.2139 23.7909L17.8255 21.8022Z" fill="#6A32B5"/>
<path opacity="0.5" d="M10.554 30.2671L7.16992 32.2513L10.554 34.2399L13.9424 32.2513L10.554 30.2671Z" fill="#6A32B5"/>
<path opacity="0.7" d="M14.1751 28.1453L10.791 30.1339L14.1751 32.1181L17.5592 30.1339L14.1751 28.1453Z" fill="#6A32B5"/>
<path opacity="0.5" d="M17.7947 26.0278L14.4062 28.012L17.7947 29.9962L21.1788 28.012L17.7947 26.0278Z" fill="#6A32B5"/>
<path opacity="0.5" d="M21.4095 23.9062L18.0254 25.8904L21.4095 27.8746L24.7979 25.8904L21.4095 23.9062Z" fill="#6A32B5"/>
<path opacity="0.5" d="M14.1399 32.3711L10.7559 34.3553L14.1399 36.3395L17.5284 34.3553L14.1399 32.3711Z" fill="#6A32B5"/>
<path opacity="0.5" d="M17.7591 30.2493L14.375 32.2334L17.7591 34.2176L21.1431 32.2334L17.7591 30.2493Z" fill="#6A32B5"/>
<path opacity="0.5" d="M21.3806 28.1274L17.9922 30.1116L21.3806 32.0958L24.7647 30.1116L21.3806 28.1274Z" fill="#6A32B5"/>
<path opacity="0.5" d="M24.9954 26.0059L21.6113 27.99L24.9954 29.9787L28.3838 27.99L24.9954 26.0059Z" fill="#6A32B5"/>
<path opacity="0.5" d="M21.1436 36.4727L17.7595 38.4613L14.3711 36.4727L17.7595 34.4885L21.1436 36.4727Z" fill="#6A32B5"/>
<path opacity="0.5" d="M21.3763 32.3667L17.9922 34.3553L21.3763 36.3395L24.7647 34.3553L21.3763 32.3667Z" fill="#6A32B5"/>
<path opacity="0.5" d="M24.9959 30.2493L21.6074 32.2334L24.9959 34.2176L28.3799 32.2334L24.9959 30.2493Z" fill="#6A32B5"/>
<path opacity="0.5" d="M28.6106 28.1274L25.2266 30.1116L28.6106 32.0958L31.9991 30.1116L28.6106 28.1274Z" fill="#6A32B5"/>
<path style="mix-blend-mode:screen" d="M23.3076 31.6374C24.1239 26.5315 20.7087 21.7205 15.6796 20.8917C10.6504 20.0629 5.91167 23.5302 5.09532 28.6361C4.27897 33.742 7.69414 38.553 12.7233 39.3818C17.7525 40.2106 22.4912 36.7433 23.3076 31.6374Z" fill="url(#paint0_radial_249_15717)"/>
<path style="mix-blend-mode:screen" d="M19.4638 29.3835C20.2801 24.2776 16.865 19.4666 11.8358 18.6378C6.80665 17.809 2.06792 21.2763 1.25157 26.3822C0.435219 31.4881 3.85038 36.2991 8.87955 37.1279C13.9087 37.9567 18.6475 34.4894 19.4638 29.3835Z" fill="url(#paint1_radial_249_15717)"/>
<path d="M10.8375 28.3983C10.9293 28.5803 10.9949 28.7401 11.0605 28.891C11.2354 29.3083 11.4977 29.6767 11.8125 29.9963C12.4377 30.6311 13.2509 30.6266 13.7712 30.4224C14.1385 30.2759 14.3309 29.6101 14.1691 29.2461C13.8762 28.5936 13.1985 28.4338 12.8443 27.586C12.2978 26.2721 11.1042 26.0235 10.5927 26.4674C10.4265 26.6139 10.3653 26.5207 10.3566 26.6982C10.3566 26.7648 10.3522 27.4173 10.3609 27.4883C10.4265 27.8612 10.6932 28.1009 10.8419 28.3983H10.8375Z" fill="#EBF2EB"/>
<path d="M10.8393 28.0298C10.9311 28.2118 10.9967 28.3716 11.0623 28.5226C11.2372 28.9398 11.4995 29.3082 11.8143 29.6278C12.4395 30.2626 13.2527 30.2582 13.773 30.054C14.1403 29.9075 14.3064 29.4636 14.1447 29.0996C13.8517 28.4471 13.2003 28.0698 12.8461 27.222C12.2996 25.9081 11.106 25.6595 10.5945 26.1034C10.4283 26.2499 10.3584 26.4141 10.3496 26.5872C10.3496 26.6538 10.3496 27.0533 10.3627 27.1199C10.4283 27.4927 10.695 27.7324 10.8437 28.0298H10.8393Z" fill="#6A32B5"/>
<path d="M6.47091 16.9238C6.47091 17.3988 6.3004 17.8649 6.30477 18.3398C6.30477 18.7837 6.46654 19.2276 6.7551 19.6005C6.86878 19.747 7.02181 19.8934 7.23167 19.9112C7.35409 19.9201 7.76508 19.8846 7.87001 19.8313C8.31597 19.596 8.08425 19.0856 8.11923 18.6461C8.17606 17.9004 8.27662 17.1591 8.42965 16.4267C8.53458 15.9162 8.69635 15.1128 8.02304 15.0151C7.91373 15.0018 7.5421 15.0373 7.40219 15.0595C6.31351 15.2415 6.47529 16.2358 6.47529 16.9194L6.47091 16.9238Z" fill="#EBF2EB"/>
<path d="M6.85958 16.8793C6.85958 17.3543 6.68907 17.8204 6.69344 18.2953C6.69344 18.7392 6.85521 19.1831 7.14378 19.556C7.25745 19.7025 7.41048 19.8489 7.62034 19.8667C7.74277 19.8756 7.86519 19.8401 7.96575 19.7868C8.41171 19.5515 8.47292 19.0411 8.50353 18.6016C8.56036 17.8559 8.66092 17.1146 8.81395 16.3822C8.932 15.7918 8.79646 14.8508 7.78649 15.0194C6.69781 15.2014 6.85958 16.1957 6.85958 16.8793Z" fill="#6A32B5"/>
<path d="M10.3401 13.1773C10.3139 16.2934 10.5893 19.1787 10.3139 21.4114C10.0297 23.6841 10.4888 24.1946 10.6156 26.6005C10.7336 27.2441 12.3469 27.2086 12.3076 26.5383C12.3469 23.4577 12.5874 21.4602 12.911 19.7824C13.3394 17.554 14.2488 14.3358 14.7648 12.0587C14.9003 11.455 14.7342 11.0156 14.3931 10.7625C13.851 10.363 13.2782 9.97243 12.6224 9.83038C12.0628 9.71053 11.42 9.37762 11.0746 9.9236C10.6943 10.5273 10.3445 12.4937 10.3401 13.1773Z" fill="#F3EC97"/>
<path d="M16.6883 11.5394C16.6883 11.5394 16.3035 14.6199 15.6958 17.0924C15.6346 17.3365 15.4291 17.5096 15.1842 17.5363C14.2093 17.6428 13.0375 17.4075 11.9401 17.2877C10.3311 17.1146 8.88393 16.9415 8.45546 16.8882C8.33741 16.8749 8.23685 16.8216 8.16252 16.7284C8.06196 16.6086 7.95703 16.3955 7.95703 16.0537C7.95703 15.8184 8.00075 15.2236 8.32429 15.1792L13.0943 14.9351L13.9557 11.4373L16.6883 11.5438V11.5394Z" fill="#F3EC97"/>
<path d="M12.6736 16.436C12.7491 17.2716 16.1287 17.3064 16.2061 16.473C16.3459 14.9523 16.7224 11.5393 16.7224 11.5393L13.4483 12.6958C13.4483 12.6958 12.6813 15.8945 12.6735 16.4404L12.6736 16.436Z" fill="#5628B7"/>
<path d="M13.4877 18.0234C13.9966 16.064 14.3785 13.8054 14.7923 12.08C14.9364 11.4783 14.7765 11.0365 14.4391 10.7787C13.9027 10.3715 13.3356 9.97273 12.6819 9.82136C12.124 9.69355 11.4764 9.41797 11.0196 9.86871C10.3721 10.5076 10.1717 12.2938 10.2058 12.9735C10.3063 15.128 9.94668 16.1218 9.84795 17.5276C10.0387 18.2584 12.9791 18.7309 13.4877 18.019L13.4877 18.0234Z" fill="#4C22A3"/>
<path d="M12.9717 7.61538C12.2677 8.01931 11.0173 9.2622 10.7987 10.1322C10.6282 10.8114 14.3183 14.1405 16.5306 12.2052C16.8673 11.9122 16.7667 11.5527 17.0728 11.2109C17.7198 10.4962 18.8347 10.0745 19.648 9.57292C20.8022 8.85826 21.528 7.62425 22.35 6.59C23.2288 5.48915 22.6429 4.81888 21.3181 4.31729C16.8673 2.62608 16.2814 2.26209 15.5031 2.65715C13.9204 3.46058 15.1621 6.35473 12.9717 7.61982V7.61538Z" fill="#341495"/>
<path d="M11.9275 2.68392C11.6433 2.70168 11.3066 2.99908 11.1842 3.26098C10.6814 4.31743 9.98625 6.63453 9.8682 7.02515C9.81136 7.21158 9.64522 7.39801 9.57089 7.57557C9.4747 7.80639 9.34791 8.02834 9.40475 8.29023C9.51405 8.80514 10.1568 9.39995 10.5721 9.09367C10.6027 9.07147 10.7033 8.9605 10.7339 8.93831C11.0837 8.68529 11.0312 8.45003 10.9875 8.18814C10.9569 7.98839 10.9656 7.89517 10.8213 7.59776C10.8213 7.59776 12.2467 4.5083 12.3472 4.5083C12.3472 4.5083 14.1529 4.74356 15.0711 4.85898C15.3509 4.89449 15.4865 4.67254 15.7619 4.61928C16.0373 4.56601 16.3128 4.41953 16.4396 4.16651C16.6363 3.78477 16.4614 3.30093 16.2428 2.96801C15.9893 2.58183 15.8493 2.59071 15.4515 2.59959C14.6426 2.60846 12.9069 2.61734 11.9231 2.68392H11.9275Z" fill="#F3EC97"/>
<path d="M22.4597 5.53809L21.2705 7.50451L21.5853 10.1501C21.6028 10.2966 21.5853 10.443 21.5372 10.5807L20.8945 12.3562C20.7939 12.6403 20.5316 12.8312 20.2343 12.8312C20.0987 12.8312 19.9588 12.8312 19.8233 12.8312C19.6572 12.8312 19.5304 12.951 19.4385 13.0886C19.3948 13.1552 19.3511 13.2173 19.3074 13.2839C19.1587 13.4748 19.1106 13.6701 19.0669 13.9098C19.0276 14.1229 19.0844 14.3448 19.2199 14.5091C19.4517 14.7887 19.8539 14.8509 20.1556 14.6467L20.5666 14.3715C20.6103 14.3404 20.654 14.3049 20.6934 14.2649L21.3798 13.5325C21.4104 13.5014 21.4323 13.4704 21.4585 13.4349L23.015 11.0601C23.1505 10.8514 23.2249 10.6073 23.2292 10.3543C23.238 9.29782 23.1943 6.38591 22.4554 5.53809H22.4597Z" fill="#F3EC97"/>
<path d="M15.6513 5.07646C15.6513 5.07646 13.592 4.87227 13.1898 4.87227C12.5252 4.87227 12.3241 2.51522 13.0674 2.45752C13.369 2.45752 14.9868 2.47084 16.0055 2.47971C16.5607 2.48415 17.0504 2.87477 17.1641 3.4252C17.3346 4.22419 17.2428 5.22294 15.6513 5.07202V5.07646Z" fill="#341495"/>
<path d="M21.0436 8.27698C21.0436 8.27698 21.0829 9.12924 21.1441 9.45328C21.2841 10.1635 23.5707 10.0747 23.492 9.17807C23.492 9.17807 23.6319 6.12856 22.4208 4.90343C21.2666 4.52168 21.0523 6.83878 21.013 7.70436C21.0042 7.89523 21.013 8.08611 21.0436 8.27698Z" fill="#341495"/>
<path d="M18.5474 3.91789C18.4687 4.01555 18.3637 4.09545 18.3025 4.21086C18.2238 4.34846 18.2194 4.5127 18.2238 4.66806C18.2238 4.84562 18.2326 5.02317 18.2413 5.20073C18.2588 5.46706 18.2894 5.73339 18.3812 5.98197C18.4774 6.23055 18.6392 6.46137 18.8709 6.58566C19.1026 6.70995 19.4087 6.70995 19.6142 6.55015C19.7016 6.47913 19.7716 6.38591 19.8459 6.30157C20.0776 6.02636 20.3924 5.80885 20.528 5.4715C20.6635 5.14302 20.6023 4.75684 20.4405 4.43724C20.2787 4.11764 20.0295 3.86019 19.7759 3.61161C19.6229 3.46069 19.4611 3.30976 19.2644 3.22543C19.1157 3.15884 18.7791 3.08782 18.7135 3.28313C18.6829 3.36747 18.7222 3.50064 18.7004 3.59829C18.6741 3.7137 18.6217 3.82468 18.5474 3.91789Z" fill="#EFE889"/>
<path d="M18.9922 0.970479C18.2927 1.60968 18.1003 2.6395 18.367 3.55835C18.4413 3.80692 18.5506 4.04218 18.7124 4.25969C19.3945 5.1741 20.8548 6.89638 21.5762 6.01749C21.6767 5.8932 22.7217 2.91027 21.5368 1.38773C20.7236 0.402303 19.6437 0.375669 18.9922 0.970479Z" fill="#F3EC97"/>
<path d="M18.9446 4.54377C18.9665 4.17091 18.6517 3.88238 18.8265 3.58942C19.0452 3.22099 19.4168 3.50508 19.4474 3.85131C19.4561 3.9534 19.4474 4.0555 19.4736 4.15315C19.5305 4.35734 19.7403 4.41505 19.8496 4.23305C19.8846 4.17535 19.9021 4.10433 19.9108 4.0333C19.9633 3.69595 19.9152 3.57166 19.9939 3.27869C20.1032 2.87032 21.1394 2.08464 21.9264 2.12902C21.8783 0.850627 20.6366 0.224744 19.4693 0.602049C18.503 0.912771 17.751 2.058 18.3063 3.54947C18.5161 4.11764 18.9446 4.5349 18.9446 4.5349V4.54377Z" fill="#726D2F"/>
<path d="M22.7298 2.73725C22.7341 2.5952 22.6423 2.5375 22.5199 2.60852L20.8191 3.58951C20.6967 3.66053 20.5961 3.82921 20.5918 3.97126L20.5568 4.73474C20.5524 4.87679 20.6442 4.93449 20.7623 4.86347L22.4631 3.88248C22.5855 3.81146 22.686 3.64278 22.6904 3.50073L22.7254 2.73725H22.7298Z" fill="#3A3639"/>
<path d="M22.0788 2.23115C22.0788 2.23115 22.0657 2.21784 22.057 2.20896C22.0308 2.18233 21.9958 2.16901 21.9564 2.17345C21.9171 2.18233 21.8821 2.20452 21.8559 2.23115C21.4667 2.65729 20.9377 2.93694 20.26 3.15888C20.1769 3.18551 20.107 3.23434 20.0545 3.30536C19.9977 3.38082 19.9583 3.47848 19.9583 3.56282L19.9277 4.22865C19.9277 4.29967 19.9452 4.3485 19.9846 4.37069C19.9977 4.37957 20.0108 4.38401 20.0239 4.39289C20.2819 4.52162 20.2644 4.51274 20.5836 4.84122C20.5661 4.81458 20.5573 4.77907 20.5617 4.73024L20.5967 3.96676C20.601 3.82471 20.706 3.65603 20.824 3.58501L22.5248 2.60402C22.5729 2.57739 22.6123 2.56851 22.6472 2.57739C22.3237 2.43978 22.28 2.4309 22.0832 2.22672L22.0788 2.23115Z" fill="#EBF2EB"/>
<path d="M20.7678 4.86347L22.4686 3.88248C22.591 3.81146 22.6916 3.64278 22.6959 3.50074L22.7309 2.78164C22.7309 2.71506 22.6566 2.60852 22.5342 2.68842L20.8771 3.64722C20.7547 3.71824 20.6541 3.88692 20.6497 4.02896L20.6191 4.73031C20.6191 4.82796 20.6585 4.88123 20.7197 4.89011C20.7372 4.88567 20.7503 4.87679 20.7678 4.86791V4.86347Z" fill="#3D3A3C"/>
<path d="M18.0918 2.47978C18.0699 2.6307 18.0743 2.80382 18.1049 2.98137C18.2929 3.60726 19.9718 4.07778 20.0505 4.10885V3.6694C19.4821 3.45633 18.2273 2.96362 18.0918 2.47534V2.47978Z" fill="#3A3639"/>
<path d="M19.7352 0.539795C19.416 0.539795 18.9832 0.801689 18.9395 0.881589C19.8314 0.8372 21.1343 1.5563 21.0337 2.95455C21.0862 3.01225 21.589 2.71041 21.589 2.63495C21.6327 1.67615 20.8938 0.7573 19.7396 0.539795H19.7352Z" fill="#3A3639"/>
<path d="M22.1308 3.18996L21.2695 3.69599V3.57171L22.1308 3.06567V3.18996Z" fill="#C9AEFF"/>
<g opacity="0.9">
<path d="M23.032 28.4961C22.8396 29.9121 21.5542 30.9064 20.1551 30.7111C18.7603 30.5157 17.781 29.2107 17.9733 27.7903C18.1657 26.3743 19.4511 25.38 20.8502 25.5753C22.245 25.7706 23.2243 27.0756 23.032 28.4961Z" fill="#FFAD01"/>
<g style="mix-blend-mode:multiply" opacity="0.2">
<path d="M22.183 29.7254L22.7557 28.74L23.0093 28.6424C23.0093 28.6424 23.0093 28.6246 23.0137 28.6157L22.7514 28.7134L22.4103 28.0742L22.5284 27.1731L22.8213 27.0444C22.8213 27.0444 22.8169 27.031 22.8126 27.0222L22.5196 27.1509L21.772 26.5561L21.2386 25.8325L21.4878 25.7438C21.4878 25.7438 21.4659 25.7349 21.4528 25.7304L21.2167 25.8148L20.3773 25.6994L20.2242 25.5618C20.2242 25.5618 20.2024 25.5618 20.1936 25.5618L20.351 25.7038L19.5859 26.2454L18.6459 26.6182L18.5016 26.5206C18.5016 26.5206 18.4929 26.5339 18.4885 26.5383L18.6328 26.636L18.4929 27.5193L18.1168 28.3183L17.9551 28.2917C17.9551 28.2917 17.9551 28.3094 17.9551 28.3139L18.1168 28.3361L18.4623 29.2327L18.3442 29.5124C18.3442 29.5124 18.3529 29.5301 18.3617 29.5346L18.4797 29.2505L19.2274 29.5745L20.0843 30.4579L20.0712 30.5644L19.5728 30.5378C19.5946 30.5466 19.6209 30.5555 19.6427 30.5644L20.0756 30.5866L20.6177 30.7109C20.644 30.7109 20.6746 30.7109 20.7008 30.7064L20.0887 30.5688L20.1018 30.4623L21.1555 29.8453L22.1524 29.7166L22.2442 30.014C22.2442 30.014 22.2573 30.0006 22.2617 29.9962L22.1742 29.7077L22.183 29.7254ZM22.5021 27.1731L22.3885 28.0653L21.396 28.1541L21.0331 27.253L21.7589 26.5827L22.5021 27.1686V27.1731ZM21.3741 28.1674L20.7883 28.9309L19.8439 28.7977L19.4853 27.9011L20.0712 27.1376L21.0156 27.2707L21.3741 28.1674ZM20.3729 25.726L21.208 25.8414L21.7414 26.565L20.9981 27.2263L20.0712 27.1154L19.6078 26.272L20.3729 25.726ZM18.6546 26.6493L19.5859 26.2809L20.0494 27.1243L19.4679 27.8833L18.5147 27.5238L18.6546 26.6493ZM19.2318 29.5656L18.4841 29.2416L18.1343 28.3405L18.506 27.5504L19.4591 27.9099L19.8176 28.8021L19.2274 29.5701L19.2318 29.5656ZM20.1018 30.4534L19.2536 29.579L19.8264 28.8243L20.7926 28.9575L21.1468 29.8408L20.1018 30.4534ZM22.1611 29.7077L21.1643 29.8364L20.8145 28.962L21.3916 28.1807C21.4004 28.1807 22.3885 28.0919 22.3885 28.0919L22.7295 28.7311L22.5546 29.0374L22.1611 29.7166V29.7077Z" fill="#925FDD"/>
</g>
<path d="M19.4679 27.8877L18.5147 27.5282L18.6546 26.6537L19.5859 26.2853L20.0494 27.1287L19.4679 27.8877ZM17.9551 28.3272C17.9857 28.7622 18.1212 29.1706 18.3442 29.5257L18.4623 29.246L18.1168 28.3494L17.9551 28.3272ZM20.3729 25.7038L21.2124 25.8192L21.4485 25.7349C21.2604 25.6594 21.0593 25.6062 20.8495 25.5751C20.6352 25.544 20.4254 25.544 20.2199 25.5662L20.3729 25.7038ZM22.7514 28.74L22.1786 29.7254L22.266 30.014C22.6333 29.6544 22.9 29.1839 23.0049 28.6424L22.7514 28.74ZM22.4978 27.1775L21.7545 26.5916L21.0112 27.253L21.3916 28.163L22.3841 28.0742L22.4978 27.182V27.1775ZM20.6177 30.7331L20.0756 30.6088L19.6427 30.5866C19.8045 30.6443 19.975 30.6887 20.1499 30.7109C20.3073 30.7331 20.4647 30.7375 20.6177 30.7331ZM20.0974 30.4579L21.1424 29.8453L20.7883 28.962L19.822 28.8288L19.2492 29.5834L20.0974 30.4579Z" fill="#FF9401"/>
</g>
<path style="mix-blend-mode:screen" d="M20 31.5C22.2091 31.5 24 29.7091 24 27.5C24 25.2909 22.2091 23.5 20 23.5C17.7909 23.5 16 25.2909 16 27.5C16 29.7091 17.7909 31.5 20 31.5Z" fill="url(#paint2_radial_249_15717)"/>
</g>
<defs>
<radialGradient id="paint0_radial_249_15717" cx="0" cy="0" r="1" gradientUnits="userSpaceOnUse" gradientTransform="translate(14.1999 30.138) scale(9.2253 9.36604)">
<stop stop-color="#862BFF"/>
<stop offset="0.01" stop-color="#8129F6"/>
<stop offset="0.09" stop-color="#6621C3"/>
<stop offset="0.17" stop-color="#4E1995"/>
<stop offset="0.26" stop-color="#39126D"/>
<stop offset="0.35" stop-color="#270C4B"/>
<stop offset="0.44" stop-color="#19082F"/>
<stop offset="0.55" stop-color="#0D041A"/>
<stop offset="0.66" stop-color="#06010B"/>
<stop offset="0.8" stop-color="#010002"/>
<stop offset="1"/>
</radialGradient>
<radialGradient id="paint1_radial_249_15717" cx="0" cy="0" r="1" gradientUnits="userSpaceOnUse" gradientTransform="translate(10.3608 27.8815) scale(9.2253 9.36604)">
<stop stop-color="#862BFF"/>
<stop offset="0.01" stop-color="#8129F6"/>
<stop offset="0.09" stop-color="#6621C3"/>
<stop offset="0.17" stop-color="#4E1995"/>
<stop offset="0.26" stop-color="#39126D"/>
<stop offset="0.35" stop-color="#270C4B"/>
<stop offset="0.44" stop-color="#19082F"/>
<stop offset="0.55" stop-color="#0D041A"/>
<stop offset="0.66" stop-color="#06010B"/>
<stop offset="0.8" stop-color="#010002"/>
<stop offset="1"/>
</radialGradient>
<radialGradient id="paint2_radial_249_15717" cx="0" cy="0" r="1" gradientUnits="userSpaceOnUse" gradientTransform="translate(20 27.5) scale(4)">
<stop stop-color="#FFFF12"/>
<stop offset="0.13" stop-color="#FF9412"/>
<stop offset="0.15" stop-color="#F28C11"/>
<stop offset="0.21" stop-color="#C06F0D"/>
<stop offset="0.28" stop-color="#92550A"/>
<stop offset="0.35" stop-color="#6B3E07"/>
<stop offset="0.43" stop-color="#492A05"/>
<stop offset="0.51" stop-color="#2E1B03"/>
<stop offset="0.6" stop-color="#190F01"/>
<stop offset="0.7" stop-color="#0B0600"/>
<stop offset="0.82" stop-color="#020100"/>
<stop offset="1"/>
</radialGradient>
<clipPath id="clip0_249_15717">
<rect width="32" height="39" fill="white" transform="translate(0 0.5)"/>
</clipPath>
</defs>
</svg>
