<svg width="40" height="39" viewBox="0 0 40 39" fill="none" xmlns="http://www.w3.org/2000/svg">
<g clip-path="url(#clip0_249_15580)">
<path d="M28.7002 25.6458L39.4528 19.2157L28.7002 12.7856L17.9316 19.2157L28.7002 25.6458Z" fill="#6A32B5"/>
<path d="M28.6992 25.6461V38.6057L39.4518 32.1756V19.2161L28.6992 25.6461Z" fill="#341495"/>
<path d="M28.7002 25.6459V38.6054L17.9316 32.1754V19.2158L28.7002 25.6459Z" fill="url(#paint0_linear_249_15580)"/>
<g style="mix-blend-mode:overlay">
<path d="M21.0319 30.491C21.0333 30.4948 21.0341 30.4973 21.0341 30.4983C21.0341 30.5144 21.1235 30.6773 21.2374 30.8752C21.3107 31.0059 21.3866 31.135 21.465 31.2624C21.5426 31.3915 21.6131 31.5057 21.6586 31.5739C22.1324 32.2801 22.6211 32.8591 23.1835 33.3745C23.3001 33.482 23.4186 33.5851 23.5387 33.6837L23.5569 33.6987C23.6158 33.7474 23.6777 33.7962 23.7418 33.8445C23.9754 34.0232 24.2153 34.1844 24.4597 34.3255C24.3601 34.2659 24.2614 34.2027 24.1636 34.1365C24.4444 34.3153 24.7333 34.4704 24.9775 34.5697C25.1195 34.6264 25.3253 34.7197 25.438 34.7762C25.5874 34.8512 25.6388 34.8668 25.6388 34.8385C25.6388 34.8159 25.6535 34.8074 25.6707 34.8174C25.6927 34.8301 25.6903 34.8201 25.6658 34.789C25.6388 34.7537 25.6413 34.7466 25.678 34.7537C25.8078 34.7834 25.8789 34.8443 26.0822 35.0973C26.3785 35.4691 26.6406 35.92 26.8292 36.3765L26.8904 36.5249L26.8782 36.3765L26.8635 36.2268L27.0105 36.566C27.0913 36.7511 27.1574 36.8967 27.1574 36.8854C27.1574 36.8741 27.1305 36.7653 27.0962 36.6437C27.0644 36.5236 27.0423 36.4289 27.0472 36.4317C27.0546 36.436 27.1084 36.566 27.1697 36.72C27.2652 36.9674 27.2799 36.9928 27.2799 36.9194C27.2799 36.8713 27.2579 36.7088 27.2309 36.5548C27.1672 36.1901 27.1672 36.1534 27.2309 36.2127C27.2774 36.2566 27.2774 36.2537 27.2407 36.0997C27.1574 35.7436 27.0815 35.3464 27.0325 35.0242C26.9737 34.6144 26.9346 34.4334 26.8659 34.2412C26.7974 34.049 26.7974 33.9868 26.8659 34.0462C26.9125 34.0872 26.9174 34.0844 26.9051 33.9897C26.8561 33.6194 26.4275 32.7869 26.0577 32.3529C25.9303 32.203 25.9082 32.1366 25.8347 31.6646C25.7809 31.3197 25.776 30.9947 25.8226 30.8831C25.8544 30.8139 25.7711 30.7997 25.6364 30.8548L25.5066 30.907L24.5562 30.3357L24.4656 30.1845C24.3872 30.0516 24.2917 29.923 24.2598 29.9046C24.2525 29.9004 24.2574 29.9512 24.2672 30.0134C24.299 30.1957 24.299 30.4614 24.2648 30.9673C24.2305 31.4902 24.2525 31.7969 24.3407 32.0852C24.3701 32.1784 24.4778 32.4837 24.5807 32.7607C24.7375 33.182 24.7987 33.319 24.9579 33.5919C25.0632 33.7742 25.193 33.982 25.2469 34.0527C25.3792 34.2308 25.3988 34.3523 25.3033 34.413C25.2665 34.437 25.1832 34.4596 25.1195 34.4596C25.0142 34.4609 24.9947 34.4525 24.8624 34.345C24.784 34.2828 24.7081 34.2135 24.6909 34.1895C24.6738 34.1627 24.6566 34.1556 24.6468 34.1697C24.6248 34.1994 24.5268 34.1145 24.4411 33.9944C24.4068 33.9463 24.3113 33.8516 24.2305 33.788C24.0443 33.6438 23.8924 33.4939 23.8802 33.4472C23.8753 33.4275 23.8557 33.4021 23.8361 33.3907C23.8165 33.3794 23.7822 33.3172 23.7602 33.2508C23.721 33.1321 23.6671 33.0614 23.5299 32.9483C23.4638 32.8932 23.3609 32.7376 23.3193 32.6289C23.3046 32.5892 23.2605 32.5412 23.2115 32.5073C23.1649 32.4747 23.1233 32.4478 23.116 32.4408C23.0841 32.4167 23.018 32.2146 23.0327 32.1836C23.0425 32.1581 23.0131 32.1157 22.9347 32.0365C22.8172 31.915 22.7388 31.7905 22.7118 31.6733C22.702 31.6224 22.6775 31.5913 22.6285 31.563C22.5698 31.5291 22.4792 31.4032 22.4792 31.358C22.4792 31.3496 22.4424 31.2747 22.4008 31.1969C22.1877 30.8111 22.1362 30.7022 22.1362 30.6485C22.1362 30.6118 22.1019 30.5326 22.0505 30.4577C22.004 30.3884 21.9648 30.3121 21.9648 30.2923C21.9648 30.2726 21.9428 30.2202 21.9158 30.1764C21.8889 30.1326 21.8668 30.0718 21.8668 30.0436C21.8668 30.0125 21.8448 29.9432 21.8178 29.8881C21.7909 29.833 21.7688 29.7637 21.7688 29.7354C21.7688 29.7072 21.7468 29.6577 21.7198 29.6252C21.6905 29.5912 21.6708 29.5375 21.6708 29.4952C21.6708 29.4047 21.5729 29.1559 21.4725 28.9878C21.3647 28.804 21.3084 28.6273 21.279 28.3814C21.2643 28.2599 21.2447 28.1383 21.2324 28.1058C21.2226 28.0747 21.1981 27.973 21.1834 27.8882C21.1663 27.7991 21.1222 27.6663 21.0855 27.5914C21.0463 27.5122 21.0071 27.4048 20.9997 27.3525C20.9826 27.2522 21.0218 27.0657 21.0683 27.0218C21.0855 27.0035 21.0806 26.9809 21.0463 26.9385C20.9507 26.8211 20.8871 26.6798 20.8871 26.5752C20.8871 26.4876 20.9507 26.2926 21.012 26.1867C21.0487 26.1231 21.0365 26.0652 20.9752 26.0015C20.8871 25.9138 20.843 25.7895 20.8552 25.6694C20.865 25.5987 20.8797 25.579 20.9116 25.5973C20.9434 25.6157 20.9532 25.6044 20.9434 25.562C20.9385 25.5309 20.9483 25.4942 20.9704 25.4843C20.9973 25.466 21.0046 25.4108 20.9973 25.2483C20.9924 25.0872 20.9973 25.0279 21.0267 25.0081C21.0463 24.994 21.0561 24.9657 21.0487 24.9473C21.0414 24.9318 21.0585 24.8484 21.0855 24.7679C21.11 24.6831 21.1247 24.6011 21.1173 24.5827C21.1026 24.546 21.154 24.375 21.181 24.368C21.1908 24.3651 21.2177 24.327 21.2374 24.279C21.2594 24.2352 21.2888 24.2041 21.3035 24.2126C21.323 24.2239 21.3255 24.197 21.3157 24.1377C21.3035 24.0599 21.3157 24.0359 21.399 23.9822C21.4553 23.9498 21.4994 23.8961 21.4994 23.8622C21.4994 23.8255 21.5508 23.7788 21.639 23.7365C21.7662 23.679 21.798 23.6385 21.7296 23.6455C22.4741 23.3523 23.4247 23.4582 24.4597 24.0333C21.9983 22.6122 20 23.7644 20 26.6046C20 27.8557 20.3878 29.227 21.0319 30.491ZM24.7962 31.065C24.8697 31.1894 24.8697 31.2318 24.7938 31.2473C24.7301 31.2586 24.6517 31.1992 24.5807 31.0847C24.5366 31.0169 24.5219 30.8755 24.5562 30.8558C24.5881 30.8374 24.7375 30.9661 24.7962 31.065ZM25.5776 31.485C25.6168 31.6461 25.4453 31.6941 25.3253 31.557C25.2347 31.4566 25.242 31.3789 25.3425 31.3578C25.4478 31.3366 25.5556 31.396 25.5776 31.485Z" fill="white"/>
</g>
<path d="M9.10976 8.58821C8.89122 8.44928 8.58293 8.47033 8.24731 8.68083L2.58478 12.2045C1.91745 12.6213 1.37891 13.6317 1.37891 14.4611L1.39061 24.5944C1.39061 25.0069 1.5272 25.2974 1.74574 25.4321L5.82776 27.9918C5.60922 27.8571 5.47653 27.5666 5.47263 27.154L5.46092 17.0207C5.46092 16.1913 5.99947 15.1852 6.6668 14.7684L12.3293 11.2405C12.6649 11.03 12.9693 11.0131 13.1918 11.1478L9.10976 8.58821Z" fill="url(#paint1_linear_249_15580)"/>
<path d="M12.3332 11.2403C13.0006 10.8235 13.5469 11.1561 13.5469 11.9854L13.5586 22.1187C13.5586 22.9481 13.0201 23.9585 12.3528 24.3752L6.69023 27.9032C6.0229 28.3199 5.47655 27.9831 5.47655 27.158L5.46484 17.0247C5.46484 16.1953 6.00339 15.1892 6.67072 14.7724L12.3332 11.2445V11.2403Z" fill="#2E2233"/>
<path d="M13.3637 20.9105L13.352 11.9855C13.352 11.535 13.1725 11.2698 12.8759 11.2698C12.7432 11.2698 12.5871 11.3203 12.4271 11.4213L6.76456 14.9493C6.15967 15.3239 5.65234 16.2754 5.65234 17.0205L5.66015 25.7056L13.3598 20.9105H13.3637Z" fill="#101014"/>
<g style="mix-blend-mode:screen">
<path d="M10.9293 15.3954C10.9293 16.1321 10.3751 17.0709 9.69217 17.4961C9.00923 17.9213 8.45508 17.6687 8.45508 16.932C8.45508 16.1952 9.00923 15.2564 9.69217 14.8312C10.3751 14.406 10.9293 14.6586 10.9293 15.3954Z" fill="black"/>
<path d="M10.9137 15.4037C10.9137 16.1321 10.3673 17.0582 9.6961 17.4792C9.02096 17.9002 8.47852 17.6476 8.47852 16.9235C8.47852 16.1994 9.02487 15.269 9.6961 14.848C10.3712 14.427 10.9137 14.6796 10.9137 15.4037Z" fill="#040004"/>
<path d="M10.9 15.4165C10.9 16.1322 10.3615 17.05 9.69806 17.4626C9.03464 17.8751 8.49609 17.631 8.49609 16.9153C8.49609 16.1996 9.03464 15.2818 9.69806 14.8692C10.3615 14.4567 10.9 14.7008 10.9 15.4165Z" fill="#070008"/>
<path d="M10.8766 15.4249C10.8766 16.1322 10.3459 17.0331 9.69027 17.4415C9.03465 17.8498 8.50391 17.6057 8.50391 16.9026C8.50391 16.1953 9.03465 15.2944 9.69027 14.886C10.3459 14.4777 10.8766 14.7219 10.8766 15.4249Z" fill="#0B000B"/>
<path d="M10.8649 15.4371C10.8649 16.1318 10.342 17.0243 9.6981 17.4242C9.05419 17.8242 8.53125 17.5884 8.53125 16.8896C8.53125 16.1907 9.05419 15.3024 9.6981 14.9025C10.342 14.5025 10.8649 14.7383 10.8649 15.4371Z" fill="#0E000F"/>
<path d="M10.8474 15.446C10.8474 16.1322 10.3323 17.0079 9.69616 17.4078C9.06005 17.8036 8.54492 17.5678 8.54492 16.8816C8.54492 16.1954 9.06005 15.3197 9.69616 14.9198C10.3323 14.524 10.8474 14.7598 10.8474 15.446Z" fill="#120013"/>
<path d="M10.8279 15.459C10.8279 16.1368 10.3206 16.9998 9.69227 17.3913C9.06397 17.7828 8.55664 17.5513 8.55664 16.8735C8.55664 16.1957 9.06397 15.3327 9.69227 14.9411C10.3206 14.5496 10.8279 14.7812 10.8279 15.459Z" fill="#150017"/>
<path d="M10.8103 15.4672C10.8103 16.1323 10.3108 16.987 9.69033 17.3701C9.07373 17.7532 8.57031 17.5258 8.57031 16.8607C8.57031 16.1955 9.06983 15.3409 9.69033 14.9578C10.3069 14.5747 10.8103 14.802 10.8103 15.4672Z" fill="#19001A"/>
<path d="M10.7967 15.4796C10.7967 16.1364 10.305 16.9742 9.69621 17.3531C9.08742 17.732 8.5957 17.5088 8.5957 16.8521C8.5957 16.1953 9.08742 15.3576 9.69621 14.9787C10.305 14.5998 10.7967 14.8229 10.7967 15.4796Z" fill="#1D001E"/>
<path d="M10.7811 15.488C10.7811 16.1364 10.2972 16.9615 9.69622 17.332C9.09524 17.7067 8.61133 17.4835 8.61133 16.8394C8.61133 16.1911 9.09524 15.3659 9.69622 14.9955C10.2972 14.6208 10.7811 14.8439 10.7811 15.488Z" fill="#200022"/>
<path d="M10.7636 15.5003C10.7636 16.136 10.2836 16.9485 9.69429 17.319C9.10501 17.6853 8.625 17.4663 8.625 16.8306C8.625 16.1949 9.10501 15.3824 9.69429 15.012C10.2836 14.6457 10.7636 14.8646 10.7636 15.5003Z" fill="#240026"/>
<path d="M10.746 15.5086C10.746 16.1359 10.2738 16.9358 9.69626 17.2978C9.11478 17.6599 8.64648 17.4452 8.64648 16.8179C8.64648 16.1906 9.11869 15.3907 9.69626 15.0287C10.2777 14.6666 10.746 14.8813 10.746 15.5086Z" fill="#270029"/>
<path d="M10.7304 15.5214C10.7304 16.136 10.266 16.9275 9.69627 17.2811C9.12651 17.639 8.66211 17.4243 8.66211 16.8096C8.66211 16.195 9.12651 15.4035 9.69627 15.0499C10.266 14.692 10.7304 14.9067 10.7304 15.5214Z" fill="#2B002D"/>
<path d="M10.7109 15.5298C10.7109 16.136 10.2543 16.9107 9.69238 17.2601C9.13042 17.6095 8.67383 17.4032 8.67383 16.797C8.67383 16.1908 9.13042 15.4161 9.69238 15.0667C10.2543 14.7173 10.7109 14.9236 10.7109 15.5298Z" fill="#2E0031"/>
<path d="M10.6934 15.5387C10.6934 16.1365 10.2446 16.8985 9.69435 17.2437C9.1402 17.5889 8.69531 17.3826 8.69531 16.789C8.69531 16.1912 9.1441 15.4292 9.69435 15.084C10.2485 14.7388 10.6934 14.9451 10.6934 15.5387Z" fill="#320035"/>
<path d="M10.6798 15.5514C10.6798 16.1366 10.2388 16.8859 9.69632 17.2269C9.15387 17.5637 8.71289 17.3659 8.71289 16.7765C8.71289 16.1871 9.15387 15.4419 9.69632 15.1009C10.2388 14.7641 10.6798 14.962 10.6798 15.5514Z" fill="#360038"/>
<path d="M10.6622 15.5595C10.6622 16.1363 10.229 16.873 9.69438 17.2056C9.15974 17.5382 8.72656 17.3403 8.72656 16.7635C8.72656 16.1868 9.15974 15.45 9.69438 15.1175C10.229 14.7849 10.6622 14.9827 10.6622 15.5595Z" fill="#39003C"/>
<path d="M10.6447 15.5722C10.6447 16.1406 10.2193 16.8647 9.69244 17.1888C9.16561 17.5172 8.74023 17.3236 8.74023 16.7552C8.74023 16.1869 9.16561 15.4628 9.69244 15.1386C10.2193 14.8102 10.6447 15.0039 10.6447 15.5722Z" fill="#3D0040"/>
<path d="M10.6271 15.5807C10.6271 16.1364 10.2095 16.8479 9.69442 17.1678C9.17929 17.4878 8.76172 17.2983 8.76172 16.7426C8.76172 16.1869 9.17929 15.4754 9.69442 15.1555C10.2095 14.8355 10.6271 15.025 10.6271 15.5807Z" fill="#400044"/>
<path d="M10.6135 15.5932C10.6135 16.1405 10.2037 16.8393 9.69639 17.1551C9.18906 17.4708 8.7793 17.2814 8.7793 16.7383C8.7793 16.1952 9.18906 15.4922 9.69639 15.1764C10.2037 14.8607 10.6135 15.0501 10.6135 15.5932Z" fill="#440047"/>
<path d="M10.592 15.6018C10.592 16.1364 10.1901 16.8227 9.69054 17.1342C9.19492 17.4457 8.78906 17.2605 8.78906 16.7258C8.78906 16.1912 9.19102 15.5049 9.69054 15.1934C10.1862 14.8819 10.592 15.0671 10.592 15.6018Z" fill="#47004B"/>
<path d="M10.5803 15.6145C10.5803 16.1408 10.1862 16.8144 9.69837 17.1175C9.21056 17.4206 8.81641 17.2396 8.81641 16.7133C8.81641 16.1871 9.21056 15.5135 9.69837 15.2104C10.1862 14.9073 10.5803 15.0883 10.5803 15.6145Z" fill="#4B004F"/>
<path d="M10.5628 15.6229C10.5628 16.1407 10.1764 16.7974 9.69643 17.0963C9.21643 17.3952 8.83008 17.2184 8.83008 16.7006C8.83008 16.1828 9.21643 15.526 9.69643 15.2271C10.1764 14.9282 10.5628 15.105 10.5628 15.6229Z" fill="#4F0053"/>
<path d="M10.5413 15.6355C10.5413 16.1407 10.1589 16.789 9.69059 17.0837C9.22229 17.3742 8.83984 17.2016 8.83984 16.6964C8.83984 16.1912 9.22229 15.5429 9.69059 15.2482C10.1589 14.9577 10.5413 15.1303 10.5413 15.6355Z" fill="#520056"/>
<path d="M10.5277 15.644C10.5277 16.1408 10.1531 16.7765 9.69647 17.0628C9.23597 17.3491 8.86523 17.1807 8.86523 16.6839C8.86523 16.1871 9.23987 15.5514 9.69647 15.2651C10.157 14.9789 10.5277 15.1473 10.5277 15.644Z" fill="#56005A"/>
<path d="M10.5102 15.6563C10.5102 16.1447 10.1433 16.7635 9.69453 17.0456C9.24184 17.3277 8.87891 17.1593 8.87891 16.6751C8.87891 16.191 9.24574 15.5679 9.69453 15.2858C10.1472 15.0038 10.5102 15.1722 10.5102 15.6563Z" fill="#59005E"/>
<path d="M10.4965 15.6649C10.4965 16.1406 10.1375 16.751 9.6965 17.0247C9.25551 17.2983 8.89648 17.1384 8.89648 16.6584C8.89648 16.1785 9.25551 15.5723 9.6965 15.2986C10.1375 15.025 10.4965 15.1849 10.4965 15.6649Z" fill="#5D0062"/>
<path d="M10.4731 15.6774C10.4731 16.1447 10.1219 16.7383 9.6887 17.0077C9.25552 17.2772 8.9043 17.1172 8.9043 16.6499C8.9043 16.1826 9.25552 15.589 9.6887 15.3196C10.1219 15.0501 10.4731 15.2101 10.4731 15.6774Z" fill="#600065"/>
<path d="M10.4595 15.6858C10.4595 16.1405 10.116 16.7256 9.69458 16.9909C9.27311 17.2561 8.92969 17.0961 8.92969 16.6414C8.92969 16.1868 9.27311 15.6016 9.69458 15.3364C10.116 15.0711 10.4595 15.2311 10.4595 15.6858Z" fill="#640069"/>
<path d="M10.4458 15.6986C10.4458 16.1448 10.1102 16.7174 9.69655 16.9742C9.28288 17.231 8.94727 17.0794 8.94727 16.6332C8.94727 16.1869 9.28288 15.6144 9.69655 15.3576C10.1102 15.1008 10.4458 15.2523 10.4458 15.6986Z" fill="#68006D"/>
<path d="M10.4263 15.707C10.4263 16.1448 10.0985 16.7005 9.69265 16.9531C9.28679 17.2057 8.95898 17.0541 8.95898 16.6205C8.95898 16.1869 9.28679 15.627 9.69265 15.3744C10.0985 15.1218 10.4263 15.2733 10.4263 15.707Z" fill="#6B0071"/>
<path d="M10.4088 15.7199C10.4088 16.1451 10.0888 16.6924 9.69463 16.9366C9.30047 17.1808 8.98047 17.0376 8.98047 16.6082C8.98047 16.1788 9.30047 15.6357 9.69463 15.3915C10.0888 15.1474 10.4088 15.2905 10.4088 15.7199Z" fill="#6F0074"/>
<path d="M10.3971 15.7278C10.3971 16.1446 10.0849 16.675 9.69855 16.915C9.3122 17.155 9 17.0118 9 16.595C9 16.1783 9.3122 15.6478 9.69855 15.4078C10.0849 15.1679 10.3971 15.311 10.3971 15.7278Z" fill="#720078"/>
<path d="M10.3795 15.7405C10.3795 16.1489 10.0752 16.6667 9.69661 16.9025C9.31807 17.1382 9.01367 16.9993 9.01367 16.5909C9.01367 16.1826 9.31807 15.6647 9.69661 15.429C10.0752 15.1932 10.3795 15.3322 10.3795 15.7405Z" fill="#76007C"/>
<path d="M10.362 15.749C10.362 16.1447 10.0654 16.6541 9.69858 16.8814C9.33175 17.1088 9.03516 16.9741 9.03516 16.5783C9.03516 16.1826 9.33175 15.6732 9.69858 15.4459C10.0654 15.2185 10.3659 15.3532 10.362 15.749Z" fill="#79007F"/>
<path d="M10.3425 15.7617C10.3425 16.149 10.0537 16.6416 9.69469 16.8647C9.33566 17.0878 9.04688 16.9573 9.04688 16.57C9.04688 16.1827 9.33566 15.6901 9.69469 15.467C10.0537 15.2439 10.3425 15.3744 10.3425 15.7617Z" fill="#7D0083"/>
<path d="M10.3289 15.7701C10.3289 16.1448 10.0479 16.6289 9.69666 16.8436C9.34934 17.0625 9.06445 16.932 9.06445 16.5573C9.06445 16.1826 9.34543 15.6985 9.69666 15.4838C10.044 15.2649 10.3289 15.3954 10.3289 15.7701Z" fill="#810087"/>
<path d="M10.3074 15.7828C10.3074 16.1491 10.0303 16.6164 9.69081 16.8311C9.3513 17.0416 9.07422 16.9153 9.07422 16.549C9.07422 16.1828 9.3513 15.7155 9.69081 15.5008C10.0303 15.2903 10.3074 15.4166 10.3074 15.7828Z" fill="#84008B"/>
<path d="M10.2938 15.7912C10.2938 16.149 10.0245 16.6037 9.69669 16.81C9.36498 17.0162 9.09961 16.8942 9.09961 16.5363C9.09961 16.1785 9.36888 15.7238 9.69669 15.5175C10.0284 15.3112 10.2938 15.4333 10.2938 15.7912Z" fill="#88008E"/>
<path d="M10.2782 15.8039C10.2782 16.1491 10.0167 16.5954 9.69671 16.7933C9.3767 16.9953 9.11523 16.8732 9.11523 16.528C9.11523 16.1828 9.3767 15.7366 9.69671 15.5387C10.0167 15.3366 10.2782 15.4587 10.2782 15.8039Z" fill="#8B0092"/>
<path d="M10.2567 15.8118C10.2567 16.1486 10.0031 16.578 9.69086 16.7717C9.37866 16.9654 9.125 16.8517 9.125 16.5149C9.125 16.1781 9.37866 15.7487 9.69086 15.555C10.0031 15.3614 10.2567 15.475 10.2567 15.8118Z" fill="#8F0096"/>
<path d="M10.2431 15.821C10.2431 16.1493 9.99723 16.5661 9.69674 16.7513C9.39235 16.9408 9.15039 16.8271 9.15039 16.503C9.15039 16.1746 9.39625 15.7578 9.69674 15.5726C10.0011 15.3831 10.2431 15.4968 10.2431 15.821Z" fill="#93009A"/>
<path d="M10.2255 15.8334C10.2255 16.1492 9.98749 16.5533 9.6948 16.7385C9.40211 16.9196 9.16406 16.8143 9.16406 16.4944C9.16406 16.1744 9.40211 15.7745 9.6948 15.5892C9.98749 15.4082 10.2255 15.5135 10.2255 15.8334Z" fill="#96009D"/>
<path d="M10.2099 15.8415C10.2099 16.1489 9.9797 16.5404 9.69482 16.7172C9.40994 16.894 9.17969 16.7888 9.17969 16.4815C9.17969 16.1741 9.40994 15.7826 9.69482 15.6058C9.9797 15.429 10.2099 15.5342 10.2099 15.8415Z" fill="#9A00A1"/>
<path d="M10.1904 15.8543C10.1904 16.149 9.968 16.5279 9.69093 16.7005C9.41775 16.8731 9.19141 16.772 9.19141 16.4731C9.19141 16.1742 9.41385 15.7995 9.69093 15.6269C9.9641 15.4543 10.1904 15.5554 10.1904 15.8543Z" fill="#9D00A5"/>
<path d="M10.1749 15.8625C10.1749 16.1488 9.96022 16.515 9.69485 16.6792C9.42948 16.8434 9.21484 16.7466 9.21484 16.4603C9.21484 16.174 9.42948 15.8078 9.69485 15.6436C9.96022 15.4794 10.1749 15.5762 10.1749 15.8625Z" fill="#A100A9"/>
<path d="M10.1632 15.8753C10.1632 16.1531 9.95634 16.5067 9.69877 16.6667C9.44121 16.8267 9.23438 16.7299 9.23438 16.4562C9.23438 16.1784 9.44121 15.8247 9.69877 15.6648C9.95634 15.5048 10.1632 15.6016 10.1632 15.8753Z" fill="#A400AC"/>
<path d="M10.1398 15.8838C10.1398 16.149 9.94074 16.49 9.69098 16.6458C9.44512 16.8016 9.24219 16.709 9.24219 16.4437C9.24219 16.1785 9.44121 15.8375 9.69098 15.6817C9.93683 15.526 10.1398 15.6186 10.1398 15.8838Z" fill="#A800B0"/>
<path d="M10.1242 15.8963C10.1242 16.1531 9.93295 16.4815 9.6949 16.6289C9.45685 16.7762 9.26562 16.6878 9.26562 16.431C9.26562 16.1742 9.45685 15.8458 9.6949 15.6985C9.93295 15.5511 10.1242 15.6395 10.1242 15.8963Z" fill="#AC00B4"/>
<path d="M10.1125 15.9047C10.1125 16.153 9.92907 16.4646 9.69882 16.6077C9.46857 16.7509 9.28516 16.6667 9.28516 16.4183C9.28516 16.1699 9.46857 15.8584 9.69882 15.7152C9.92907 15.5721 10.1125 15.6563 10.1125 15.9047Z" fill="#AF00B8"/>
<path d="M10.091 15.9175C10.091 16.1533 9.91152 16.4564 9.69298 16.5911C9.47444 16.7258 9.29492 16.6458 9.29492 16.4101C9.29492 16.1743 9.47444 15.8712 9.69298 15.7365C9.91152 15.6018 10.091 15.6818 10.091 15.9175Z" fill="#B300BB"/>
<path d="M10.0735 15.9258C10.0735 16.1532 9.90178 16.4437 9.69495 16.5742C9.48421 16.7047 9.31641 16.6289 9.31641 16.4016C9.31641 16.1742 9.48812 15.8837 9.69495 15.7532C9.90568 15.6227 10.0735 15.6985 10.0735 15.9258Z" fill="#B600BF"/>
<path d="M10.0599 15.9386C10.0599 16.1533 9.89594 16.4312 9.69692 16.5575C9.49789 16.6838 9.33398 16.608 9.33398 16.3933C9.33398 16.1786 9.49789 15.9007 9.69692 15.7744C9.89594 15.6481 10.0599 15.7239 10.0599 15.9386Z" fill="#BA00C3"/>
<path d="M10.0423 15.9469C10.0423 16.1532 9.8862 16.4184 9.69498 16.5363C9.50376 16.6542 9.34766 16.5868 9.34766 16.3763C9.34766 16.17 9.50376 15.9048 9.69498 15.7869C9.8862 15.6691 10.0423 15.7364 10.0423 15.9469Z" fill="#BD00C7"/>
<path d="M10.0248 15.9594C10.0248 16.1573 9.87646 16.4057 9.69304 16.5194C9.50962 16.633 9.36133 16.5657 9.36133 16.3678C9.36133 16.1699 9.50962 15.9216 9.69304 15.8079C9.87646 15.6942 10.0248 15.7616 10.0248 15.9594Z" fill="#C100CA"/>
<path d="M10.0092 15.9681C10.0092 16.1533 9.86868 16.3933 9.69697 16.5027C9.52526 16.6122 9.38477 16.5448 9.38477 16.3596C9.38477 16.1744 9.52526 15.9344 9.69697 15.8249C9.86868 15.7155 10.0092 15.7828 10.0092 15.9681Z" fill="#C500CE"/>
<path d="M9.99357 15.9804C9.99357 16.1572 9.86089 16.3845 9.69698 16.4856C9.53308 16.5866 9.40039 16.5277 9.40039 16.3509C9.40039 16.174 9.53308 15.9467 9.69698 15.8457C9.86089 15.7446 9.99357 15.8036 9.99357 15.9804Z" fill="#C800D2"/>
<path d="M9.97407 15.9892C9.97407 16.1576 9.84919 16.3681 9.69309 16.465C9.53699 16.5618 9.41211 16.5029 9.41211 16.3387C9.41211 16.1745 9.53699 15.9598 9.69309 15.8629C9.84919 15.7661 9.97407 15.8251 9.97407 15.9892Z" fill="#CC00D6"/>
<path d="M9.95848 16.0016C9.95848 16.1573 9.84141 16.3594 9.69701 16.4478C9.55262 16.5362 9.43555 16.4857 9.43555 16.3299C9.43555 16.1742 9.55262 15.9721 9.69701 15.8837C9.84141 15.7953 9.95848 15.8458 9.95848 16.0016Z" fill="#CF00D9"/>
<path d="M9.94093 16.0101C9.94093 16.1574 9.83166 16.3427 9.69508 16.4269C9.55849 16.5111 9.44922 16.4606 9.44922 16.3132C9.44922 16.1659 9.55849 15.9806 9.69508 15.8964C9.83166 15.8122 9.94093 15.8627 9.94093 16.0101Z" fill="#D300DD"/>
<path d="M9.92339 16.0226C9.92339 16.1573 9.82192 16.3341 9.69314 16.4141C9.56826 16.4941 9.46289 16.4478 9.46289 16.3088C9.46289 16.1699 9.56436 15.9973 9.69314 15.9173C9.81802 15.8373 9.92339 15.8836 9.92339 16.0226Z" fill="#D600E1"/>
<path d="M9.90585 16.031C9.90585 16.1573 9.81218 16.3215 9.69511 16.3931C9.57803 16.4646 9.48438 16.4225 9.48438 16.2962C9.48438 16.1699 9.57803 16.0058 9.69511 15.9342C9.81218 15.8626 9.90585 15.9047 9.90585 16.031Z" fill="#DA00E5"/>
<path d="M9.89025 16.0437C9.89025 16.1616 9.8044 16.309 9.69513 16.3763C9.58586 16.4437 9.5 16.4016 9.5 16.2879C9.5 16.1742 9.58586 16.0227 9.69513 15.9553C9.8044 15.888 9.89025 15.9259 9.89025 16.0437Z" fill="#DE00E8"/>
<path d="M9.87466 16.0521C9.87466 16.1574 9.7927 16.2963 9.69514 16.3552C9.59758 16.4184 9.51562 16.3805 9.51562 16.2752C9.51562 16.17 9.59758 16.0311 9.69514 15.9721C9.7927 15.909 9.87466 15.9469 9.87466 16.0521Z" fill="#E100EC"/>
<path d="M9.85515 16.0646C9.85515 16.1615 9.78101 16.2836 9.69125 16.3425C9.60149 16.3972 9.52734 16.3635 9.52734 16.2667C9.52734 16.1699 9.60149 16.0478 9.69125 15.9889C9.78101 15.9341 9.85515 15.9678 9.85515 16.0646Z" fill="#E500F0"/>
<path d="M9.83957 16.0732C9.83957 16.1616 9.77322 16.2711 9.69517 16.3216C9.61322 16.3721 9.55078 16.3426 9.55078 16.2542C9.55078 16.1658 9.61712 16.0564 9.69517 16.0058C9.77713 15.9553 9.83957 15.9848 9.83957 16.0732Z" fill="#E800F4"/>
<path d="M9.82788 16.086C9.82788 16.1618 9.76934 16.2586 9.6991 16.3049C9.62885 16.3512 9.57031 16.3217 9.57031 16.246C9.57031 16.1702 9.62885 16.0733 9.6991 16.027C9.76934 15.9807 9.82788 16.0102 9.82788 16.086Z" fill="#EC00F7"/>
<path d="M9.80447 16.0944C9.80447 16.1617 9.75374 16.2459 9.6913 16.2838C9.62886 16.3217 9.57812 16.3007 9.57812 16.2333C9.57812 16.1659 9.62886 16.0817 9.6913 16.0439C9.75374 16.006 9.80447 16.027 9.80447 16.0944Z" fill="#EF00FB"/>
<path d="M9.78693 16.1069C9.78693 16.1616 9.744 16.2374 9.69327 16.2669C9.64254 16.3006 9.59961 16.2795 9.59961 16.2248C9.59961 16.1701 9.64254 16.0943 9.69327 16.0648C9.744 16.0311 9.78693 16.0522 9.78693 16.1069Z" fill="#F300FF"/>
</g>
<path style="mix-blend-mode:screen" d="M3.78906 38.2427L8.66719 35.1694L9.79501 16.0942L3.78906 38.2427Z" fill="url(#paint2_linear_249_15580)"/>
<path style="mix-blend-mode:screen" d="M9.94336 16.1616L15.0908 41.4717L28.8978 32.6056L9.94336 16.1616Z" fill="url(#paint3_linear_249_15580)"/>
<path style="mix-blend-mode:screen" d="M27.934 23.2891L10.0098 15.9807L23.3953 26.0003L27.934 23.2891Z" fill="url(#paint4_linear_249_15580)"/>
</g>
<defs>
<linearGradient id="paint0_linear_249_15580" x1="17.9316" y1="28.9106" x2="28.7002" y2="28.9106" gradientUnits="userSpaceOnUse">
<stop stop-color="#9F1DD6"/>
<stop offset="1" stop-color="#4321AD"/>
</linearGradient>
<linearGradient id="paint1_linear_249_15580" x1="6.81899" y1="14.9031" x2="4.38864" y2="18.8102" gradientUnits="userSpaceOnUse">
<stop offset="0.24" stop-color="#FFC5FF"/>
<stop offset="0.33" stop-color="#F5ABFF"/>
<stop offset="0.37" stop-color="#EAA0FA"/>
<stop offset="0.45" stop-color="#CF85EE"/>
<stop offset="0.55" stop-color="#BB71E5"/>
<stop offset="0.66" stop-color="#AD63DE"/>
<stop offset="0.79" stop-color="#A45ADB"/>
<stop offset="1" stop-color="#A258DA"/>
</linearGradient>
<linearGradient id="paint2_linear_249_15580" x1="2.86807" y1="21.4493" x2="17.4121" y2="39.6666" gradientUnits="userSpaceOnUse">
<stop stop-color="#F700FF"/>
<stop offset="0.1" stop-color="#D100D8"/>
<stop offset="0.29" stop-color="#920097"/>
<stop offset="0.47" stop-color="#5E0061"/>
<stop offset="0.63" stop-color="#350037"/>
<stop offset="0.78" stop-color="#180019"/>
<stop offset="0.91" stop-color="#060006"/>
<stop offset="1"/>
</linearGradient>
<linearGradient id="paint3_linear_249_15580" x1="8.41748" y1="17.2478" x2="22.8497" y2="35.3216" gradientUnits="userSpaceOnUse">
<stop stop-color="#F700FF"/>
<stop offset="0.1" stop-color="#D100D8"/>
<stop offset="0.29" stop-color="#920097"/>
<stop offset="0.47" stop-color="#5E0061"/>
<stop offset="0.63" stop-color="#350037"/>
<stop offset="0.78" stop-color="#180019"/>
<stop offset="0.91" stop-color="#060006"/>
<stop offset="1"/>
</linearGradient>
<linearGradient id="paint4_linear_249_15580" x1="14.002" y1="12.3939" x2="28.6532" y2="30.7423" gradientUnits="userSpaceOnUse">
<stop stop-color="#F700FF"/>
<stop offset="0.1" stop-color="#D100D8"/>
<stop offset="0.29" stop-color="#920097"/>
<stop offset="0.47" stop-color="#5E0061"/>
<stop offset="0.63" stop-color="#350037"/>
<stop offset="0.78" stop-color="#180019"/>
<stop offset="0.91" stop-color="#060006"/>
<stop offset="1"/>
</linearGradient>
<clipPath id="clip0_249_15580">
<rect width="40" height="40" fill="white" transform="translate(0 -1.5)"/>
</clipPath>
</defs>
</svg>
