<svg width="38" height="35" viewBox="0 0 38 35" fill="none" xmlns="http://www.w3.org/2000/svg">
<path d="M17.3859 13.0905L17.3818 14.6119L17.0293 14.8132L17.0334 13.2917L17.3859 13.0905Z" fill="#5B6063"/>
<path d="M3.02046 21.2896L3.01636 22.807L2.66797 23.0083L2.67207 21.4908L3.02046 21.2896Z" fill="#5B6063"/>
<path d="M2.67237 21.4908V23.0082C0.877127 21.9939 0 20.6455 0 19.2568V17.7394C0 19.124 0.881226 20.4764 2.67237 21.4908Z" fill="#30194F"/>
<path d="M3.21287 13.4286C-0.844867 15.743 -1.08669 19.3616 2.67184 21.4908L3.02023 21.2896C-0.549759 19.265 -0.312033 15.8235 3.54897 13.6177C7.40997 11.412 13.4597 11.2671 17.0338 13.2917L17.3863 13.0905C13.6277 10.9612 7.27061 11.1101 3.21287 13.4245V13.4286Z" fill="#502787"/>
<path d="M6.14374 12.531C6.21751 10.7599 7.15612 8.54212 8.48821 7.78137L6.50443 8.12753L5.69288 8.75545C4.53294 9.74964 4.40178 11.4362 4.3362 13.2112C4.3362 13.2112 3.84845 13.4527 3.57384 13.6097C3.56564 13.6137 3.55744 13.6178 3.55334 13.6218C3.42218 13.6983 3.30742 13.7667 3.19266 13.8391C3.15167 13.8633 3.11478 13.8915 3.07789 13.9156C3.00411 13.9639 2.92624 14.0122 2.85656 14.0605C2.81147 14.0927 2.77049 14.1209 2.7295 14.1531C2.66802 14.1974 2.60244 14.2457 2.54096 14.29C2.49587 14.3222 2.45488 14.3584 2.4139 14.3906C2.35652 14.4349 2.30323 14.4791 2.24995 14.5234C2.20896 14.5596 2.16797 14.5959 2.12699 14.6281C2.0778 14.6723 2.02452 14.7166 1.97943 14.7609C1.93845 14.7971 1.90156 14.8333 1.86467 14.8736C1.81958 14.9179 1.7745 14.9621 1.72941 15.0064C1.69252 15.0426 1.65973 15.0829 1.62284 15.1232C1.58186 15.1674 1.54087 15.2117 1.50398 15.26C1.47119 15.3003 1.4384 15.3365 1.40971 15.3767C1.37282 15.421 1.33593 15.4693 1.30314 15.5136C1.27445 15.5538 1.24576 15.5941 1.21707 15.6343C1.18428 15.6786 1.15149 15.7269 1.1228 15.7712C1.09821 15.8114 1.06952 15.8517 1.04492 15.8919C1.01623 15.9402 0.987541 15.9845 0.962948 16.0328C0.938356 16.0731 0.917863 16.1133 0.897369 16.1576C0.872777 16.2059 0.852283 16.2502 0.827691 16.2985C0.807197 16.3387 0.790802 16.379 0.770308 16.4233C0.749815 16.4716 0.73342 16.5158 0.712926 16.5641C0.696531 16.6044 0.680136 16.6446 0.66784 16.6889C0.651445 16.7372 0.639149 16.7855 0.622754 16.8338C0.610458 16.8741 0.598162 16.9143 0.589964 16.9586C0.577668 17.0069 0.569471 17.0552 0.557175 17.1035C0.548977 17.1437 0.54078 17.184 0.532582 17.2283C0.524385 17.2766 0.520286 17.3249 0.512089 17.3732C0.50799 17.4134 0.503891 17.4537 0.499792 17.4939C0.499792 17.5422 0.495694 17.5905 0.491595 17.6429C0.483398 17.9286 0.512089 18.2104 0.581767 18.4922C0.880974 17.2887 1.87287 16.1012 3.54515 15.1473C7.40615 12.9415 13.4559 12.7966 17.03 14.8213V13.3038C14.1895 11.6897 9.77521 11.4563 6.14374 12.5431V12.531Z" fill="#502787"/>
<path d="M27.7969 18.8544L28.219 18.6169L28.2231 21.0521L27.801 21.2936L27.7969 18.8544Z" fill="#CB89F0"/>
<path d="M16.9396 12.2211L16.5215 12.4626L27.7971 18.8544L28.2192 18.6169L16.9396 12.2211Z" fill="#6A32B5"/>
<path d="M16.5215 12.4625L16.5256 14.8977L27.8012 21.2936L27.7971 18.8544L16.5215 12.4625Z" fill="#502787"/>
<path d="M23.3465 13.6781C23.0595 13.7264 22.8177 13.8794 22.6333 14.0847C19.9363 17.027 16.1737 18.9913 11.2757 20.557C10.6937 20.7422 10.1731 21.0924 9.82066 21.5834C9.43538 22.1188 9.18945 22.7749 9.18945 23.3545V27.9109C9.18945 28.3899 9.3616 28.728 9.64031 28.889C11.9397 29.9315 13.5792 30.8452 16.145 33.1918C16.0138 33.0107 15.936 32.7571 15.936 32.4391L15.9196 27.1984C15.9196 26.2324 16.6081 25.0571 17.4648 24.57L29.556 17.7153C29.888 17.5261 30.1995 17.4698 30.4495 17.5301C27.9575 16.5843 25.7524 15.4331 24.0801 13.9116C23.8834 13.7305 23.6129 13.6379 23.3465 13.6781Z" fill="url(#paint0_linear_249_15917)"/>
<path d="M31.1262 18.5847C31.1262 17.6187 30.413 17.2283 29.5564 17.7153L17.4651 24.5701C16.6085 25.0571 15.9199 26.2324 15.9199 27.1985L15.9363 32.4391C15.9363 33.4052 16.6331 33.7956 17.4897 33.3086L29.581 26.4538C30.4376 25.9668 31.1303 24.7914 31.1262 23.8254V18.5847Z" fill="#2A1744"/>
<path d="M9.72229 28.2611V23.7046C9.72229 23.125 9.96821 22.4689 10.3535 21.9336C10.706 21.4425 11.2265 21.0924 11.8085 20.9072C16.7106 19.3414 20.4691 17.3772 23.1661 14.4348C23.3505 14.2296 23.5965 14.0766 23.8711 14.0323C24.0104 14.0082 24.1334 14.0243 24.2523 14.0565C24.1949 14.0082 24.1334 13.9599 24.0801 13.9116C23.8834 13.7305 23.6129 13.6379 23.3465 13.6781C23.0595 13.7264 22.8177 13.8794 22.6333 14.0847C19.9363 17.027 16.1737 18.9913 11.2757 20.557C10.6937 20.7422 10.1731 21.0924 9.82066 21.5834C9.43538 22.1188 9.18945 22.7748 9.18945 23.3545V27.9109C9.18945 28.3899 9.3616 28.728 9.64031 28.889C9.74688 28.9373 9.84935 28.9856 9.95182 29.0299C9.81246 28.8447 9.72639 28.5911 9.72229 28.2611Z" fill="#30194F"/>
<path d="M13.3457 26.9449L13.7638 26.7074L13.7679 29.1426L13.3498 29.3841L13.3457 26.9449Z" fill="#30194F"/>
<path d="M2.48838 20.3115L2.07031 20.553L13.3459 26.9449L13.764 26.7074L2.48838 20.3115Z" fill="#502787"/>
<path d="M2.07031 20.553L2.07441 22.9882L13.35 29.384L13.3459 26.9448L2.07031 20.553Z" fill="#6A32B5"/>
<path d="M12.9481 7.82965C11.7103 7.12928 10.7348 6.86765 9.89454 6.82338C9.19775 6.78715 8.67722 6.8918 7.85747 7.27016C7.4435 7.45934 6.53358 7.89405 6.23438 8.14763C7.34103 7.89405 8.91494 7.60827 11.1324 8.8641C14.7105 10.8928 17.6575 15.743 17.6493 18.9711L19.4651 17.9367C19.4733 14.7085 16.5263 9.8583 12.9481 7.82965Z" fill="#6A32B5"/>
<path d="M11.1361 8.86413C5.70526 5.78493 4.13135 9.84223 3.99609 13.014L4.33629 13.2072C4.45105 10.2085 5.64378 6.13914 11.1361 9.24651C14.5011 11.1504 17.2678 15.7309 17.2596 18.7498L17.653 18.9752C17.6612 15.747 14.7143 10.8968 11.1361 8.86815V8.86413Z" fill="#30194F"/>
<path d="M17.4885 33.3085L29.5797 26.4537C30.4363 25.9667 31.129 24.7914 31.1249 23.8254V18.8866C31.1249 18.4317 30.5347 17.7112 29.6535 18.2747L17.8656 24.9564C17.0089 25.4434 16.3162 26.6188 16.3203 27.5848L16.3367 32.3827C16.3367 33.0388 16.6605 33.4292 17.136 33.4614C17.2507 33.4252 17.3655 33.3769 17.4885 33.3085Z" fill="#502787"/>
<path style="mix-blend-mode:screen" d="M19 32.5C23.4183 32.5 27 28.9183 27 24.5C27 20.0817 23.4183 16.5 19 16.5C14.5817 16.5 11 20.0817 11 24.5C11 28.9183 14.5817 32.5 19 32.5Z" fill="url(#paint1_radial_249_15917)"/>
<path d="M30.8028 19.6594C30.8028 19.0637 30.4872 18.6772 30.0035 18.6772C29.8068 18.6772 29.5977 18.7416 29.3805 18.8624L18.0393 25.3106C17.3016 25.7292 16.699 26.7516 16.7031 27.5848L16.7154 31.9882C16.7154 32.584 17.031 32.9704 17.5147 32.9704C17.7114 32.9704 17.9205 32.91 18.1377 32.7852L29.4789 26.337C30.2166 25.9184 30.8192 24.896 30.8151 24.0628L30.8028 19.6594ZM29.401 26.2082L18.0598 32.6564C17.8672 32.7651 17.6786 32.8214 17.5147 32.8214C17.1171 32.8214 16.8712 32.5035 16.8671 31.9882L16.8548 27.5848C16.8548 26.7999 17.4163 25.8379 18.1131 25.4394L29.4543 18.9912C29.6469 18.8825 29.8355 18.8262 29.9994 18.8262C30.397 18.8262 30.6429 19.1442 30.647 19.6594L30.6593 24.0628C30.6593 24.8477 30.0978 25.8097 29.3969 26.2082H29.401Z" fill="#2A1744"/>
<path opacity="0.3" d="M18.7145 25.8862C18.7145 26.019 18.6038 26.1921 18.4686 26.2686C18.3333 26.345 18.2227 26.3008 18.2227 26.1639C18.2227 26.0271 18.3333 25.858 18.4686 25.7815C18.6038 25.7051 18.7145 25.7493 18.7145 25.8862Z" fill="url(#paint2_linear_249_15917)"/>
<mask id="mask0_249_15917" style="mask-type:luminance" maskUnits="userSpaceOnUse" x="18" y="25" width="1" height="2">
<path d="M18.7145 25.8862C18.7145 26.019 18.6038 26.1921 18.4686 26.2686C18.3333 26.345 18.2227 26.3008 18.2227 26.1639C18.2227 26.0271 18.3333 25.858 18.4686 25.7815C18.6038 25.7051 18.7145 25.7493 18.7145 25.8862Z" fill="white"/>
</mask>
<g mask="url(#mask0_249_15917)">
<path d="M18.2931 26.2324C18.2193 26.2324 18.207 26.168 18.207 26.1318C18.207 26.011 18.3095 25.85 18.4366 25.7816C18.4734 25.7615 18.5103 25.7494 18.539 25.7494C18.6128 25.7494 18.6251 25.8138 18.6251 25.85C18.6251 25.9708 18.5226 26.1318 18.3956 26.2002C18.3587 26.2203 18.3218 26.2324 18.2931 26.2324Z" fill="url(#paint3_linear_249_15917)"/>
</g>
<path opacity="0.3" d="M19.6129 25.3791C19.6129 25.5119 19.5023 25.685 19.367 25.7615C19.2318 25.838 19.1211 25.7937 19.1211 25.6568C19.1211 25.52 19.2318 25.3509 19.367 25.2745C19.5023 25.198 19.6129 25.2423 19.6129 25.3791Z" fill="url(#paint4_linear_249_15917)"/>
<mask id="mask1_249_15917" style="mask-type:luminance" maskUnits="userSpaceOnUse" x="19" y="25" width="1" height="1">
<path d="M19.6129 25.3791C19.6129 25.5119 19.5023 25.685 19.367 25.7615C19.2318 25.838 19.1211 25.7937 19.1211 25.6568C19.1211 25.52 19.2318 25.3509 19.367 25.2745C19.5023 25.198 19.6129 25.2423 19.6129 25.3791Z" fill="white"/>
</mask>
<g mask="url(#mask1_249_15917)">
<path d="M19.1954 25.7213C19.1217 25.7213 19.1094 25.6569 19.1094 25.6207C19.1094 25.4999 19.2118 25.3389 19.3389 25.2705C19.3758 25.2504 19.4127 25.2383 19.4414 25.2383C19.5151 25.2383 19.5274 25.3027 19.5274 25.3389C19.5274 25.4597 19.425 25.6207 19.2979 25.6891C19.261 25.7092 19.2241 25.7213 19.1954 25.7213Z" fill="url(#paint5_linear_249_15917)"/>
</g>
<path opacity="0.3" d="M20.5133 24.8679C20.5133 25.0007 20.4027 25.1738 20.2674 25.2503C20.1322 25.3267 20.0215 25.2825 20.0215 25.1456C20.0215 25.0088 20.1322 24.8397 20.2674 24.7632C20.4027 24.6867 20.5133 24.731 20.5133 24.8679Z" fill="url(#paint6_linear_249_15917)"/>
<mask id="mask2_249_15917" style="mask-type:luminance" maskUnits="userSpaceOnUse" x="20" y="24" width="1" height="2">
<path d="M20.5133 24.8679C20.5133 25.0007 20.4027 25.1738 20.2674 25.2503C20.1322 25.3267 20.0215 25.2825 20.0215 25.1456C20.0215 25.0088 20.1322 24.8397 20.2674 24.7632C20.4027 24.6867 20.5133 24.731 20.5133 24.8679Z" fill="white"/>
</mask>
<g mask="url(#mask2_249_15917)">
<path d="M20.0919 25.2101C20.0182 25.2101 20.0059 25.1457 20.0059 25.1094C20.0059 24.9887 20.1083 24.8277 20.2354 24.7593C20.2723 24.7391 20.3092 24.7271 20.3379 24.7271C20.4116 24.7271 20.4239 24.7915 20.4239 24.8277C20.4239 24.9484 20.3215 25.1094 20.1944 25.1779C20.1575 25.198 20.1206 25.2101 20.0919 25.2101Z" fill="url(#paint7_linear_249_15917)"/>
</g>
<defs>
<linearGradient id="paint0_linear_249_15917" x1="23.412" y1="13.9639" x2="13.8042" y2="30.9115" gradientUnits="userSpaceOnUse">
<stop stop-color="#6A32B5"/>
<stop offset="0.31" stop-color="#7F3DD8"/>
<stop offset="0.43" stop-color="#6A32B5"/>
<stop offset="0.52" stop-color="#5F2DA2"/>
<stop offset="0.59" stop-color="#602AA7"/>
<stop offset="0.65" stop-color="#7C3DCF"/>
<stop offset="0.71" stop-color="#3C1E65"/>
<stop offset="0.73" stop-color="#30194F"/>
</linearGradient>
<radialGradient id="paint1_radial_249_15917" cx="0" cy="0" r="1" gradientUnits="userSpaceOnUse" gradientTransform="translate(19 24.5) scale(8)">
<stop stop-color="#FFFF12"/>
<stop offset="0.13" stop-color="#FF9412"/>
<stop offset="0.15" stop-color="#F28C11"/>
<stop offset="0.21" stop-color="#C06F0D"/>
<stop offset="0.28" stop-color="#92550A"/>
<stop offset="0.35" stop-color="#6B3E07"/>
<stop offset="0.43" stop-color="#492A05"/>
<stop offset="0.51" stop-color="#2E1B03"/>
<stop offset="0.6" stop-color="#190F01"/>
<stop offset="0.7" stop-color="#0B0600"/>
<stop offset="0.82" stop-color="#020100"/>
<stop offset="1"/>
</radialGradient>
<linearGradient id="paint2_linear_249_15917" x1="18.4686" y1="25.6132" x2="18.4686" y2="26.4088" gradientUnits="userSpaceOnUse">
<stop stop-color="#FFC700"/>
<stop offset="1" stop-color="#FF8A00"/>
</linearGradient>
<linearGradient id="paint3_linear_249_15917" x1="18.4161" y1="25.6367" x2="18.4161" y2="26.321" gradientUnits="userSpaceOnUse">
<stop stop-color="#FFC700"/>
<stop offset="1" stop-color="#FF8A00"/>
</linearGradient>
<linearGradient id="paint4_linear_249_15917" x1="19.367" y1="25.1061" x2="19.367" y2="25.9017" gradientUnits="userSpaceOnUse">
<stop stop-color="#FFC700"/>
<stop offset="1" stop-color="#FF8A00"/>
</linearGradient>
<linearGradient id="paint5_linear_249_15917" x1="19.3184" y1="25.1256" x2="19.3184" y2="25.8098" gradientUnits="userSpaceOnUse">
<stop stop-color="#FFC700"/>
<stop offset="1" stop-color="#FF8A00"/>
</linearGradient>
<linearGradient id="paint6_linear_249_15917" x1="20.2674" y1="24.5949" x2="20.2674" y2="25.3905" gradientUnits="userSpaceOnUse">
<stop stop-color="#FFC700"/>
<stop offset="1" stop-color="#FF8A00"/>
</linearGradient>
<linearGradient id="paint7_linear_249_15917" x1="20.2149" y1="24.6143" x2="20.2149" y2="25.2986" gradientUnits="userSpaceOnUse">
<stop stop-color="#FFC700"/>
<stop offset="1" stop-color="#FF8A00"/>
</linearGradient>
</defs>
</svg>
