<svg width="36" height="24" viewBox="0 0 36 24" fill="none" xmlns="http://www.w3.org/2000/svg">
<path fill-rule="evenodd" clip-rule="evenodd" d="M0.498497 11.9996C0.498497 12.3311 0.630191 12.6491 0.864612 12.8835C1.09903 13.1179 1.41698 13.2496 1.7485 13.2496L31.231 13.2496L23.3635 21.1146C23.1288 21.3493 22.9969 21.6677 22.9969 21.9996C22.9969 22.3316 23.1288 22.6499 23.3635 22.8846C23.5982 23.1193 23.9166 23.2512 24.2485 23.2512C24.5804 23.2512 24.8988 23.1193 25.1335 22.8846L35.1335 12.8846C35.2499 12.7685 35.3423 12.6306 35.4053 12.4787C35.4683 12.3268 35.5007 12.164 35.5007 11.9996C35.5007 11.8352 35.4683 11.6724 35.4053 11.5205C35.3423 11.3687 35.2499 11.2307 35.1335 11.1146L25.1335 1.11463C25.0173 0.998405 24.8793 0.906215 24.7275 0.843317C24.5756 0.78042 24.4129 0.748046 24.2485 0.748046C23.9166 0.748046 23.5982 0.879908 23.3635 1.11463C23.1288 1.34934 22.9969 1.66769 22.9969 1.99963C22.9969 2.33156 23.1288 2.64991 23.3635 2.88463L31.231 10.7496L1.7485 10.7496C1.41698 10.7496 1.09903 10.8813 0.864612 11.1157C0.630191 11.3502 0.498497 11.6681 0.498497 11.9996Z" fill="#101010"/>
</svg>
