<svg width="40" height="41" viewBox="0 0 40 41" fill="none" xmlns="http://www.w3.org/2000/svg">
<path d="M25.1484 15.1671V37.6424L26.1325 38.2211L27.004 36.6736L27.8713 37.188L28.7428 35.6405L29.6143 36.1549L30.4858 34.6074L31.3531 35.1218L32.3372 33.3771V10.9019L25.1484 15.1671Z" fill="#341495"/>
<path d="M32.3368 10.8977L25.1523 15.163L11 6.76528L18.1845 2.5L32.3368 10.8977Z" fill="#6A32B5"/>
<path d="M11 6.76929V29.2445L11.9799 30.9892L12.8514 30.4748L13.7229 32.0223L14.5944 31.5079L15.4617 33.0554L16.3332 32.541L17.2046 34.0885L18.0761 33.5741L18.9434 35.1216L19.8149 34.6072L20.6864 36.1547L21.5579 35.6403L22.4252 37.1921L23.2967 36.6734L24.1682 38.2252L25.1481 37.6422V15.167L11 6.76929Z" fill="#4C22A3"/>
<path d="M15.5913 17.692C15.5913 18.4808 15.0533 18.798 14.3904 18.4036C13.7274 18.0093 13.1895 17.0533 13.1895 16.2646C13.1895 15.4758 13.7274 15.1586 14.3904 15.553C15.0533 15.9474 15.5913 16.9033 15.5913 17.692Z" fill="url(#paint0_linear_249_15669)"/>
<path style="mix-blend-mode:screen" d="M14.0117 22.4811C16.7796 22.4811 19.0234 20.2467 19.0234 17.4905C19.0234 14.7343 16.7796 12.5 14.0117 12.5C11.2438 12.5 9 14.7343 9 17.4905C9 20.2467 11.2438 22.4811 14.0117 22.4811Z" fill="url(#paint1_radial_249_15669)"/>
<path style="mix-blend-mode:screen" d="M22.0117 26.4811C24.7796 26.4811 27.0234 24.2467 27.0234 21.4905C27.0234 18.7343 24.7796 16.5 22.0117 16.5C19.2438 16.5 17 18.7343 17 21.4905C17 24.2467 19.2438 26.4811 22.0117 26.4811Z" fill="url(#paint2_radial_249_15669)"/>
<path d="M22.6124 22.8728C23.0811 22.5946 23.0802 21.691 22.6104 20.8545C22.1406 20.0179 21.3798 19.5653 20.9111 19.8435C20.4424 20.1217 20.4433 21.0253 20.9131 21.8618C21.3829 22.6984 22.1437 23.151 22.6124 22.8728Z" fill="url(#paint3_linear_249_15669)"/>
<path d="M21.259 26.8915C19.1669 26.3073 17.24 25.2429 15.6317 23.7829L14.8959 23.1149C14.7291 23.0163 14.5957 22.7805 14.5957 22.5833C14.5957 22.3861 14.7291 22.309 14.8959 22.4075L15.6317 23.0755C17.24 24.5356 19.1669 25.6 21.259 26.1841C21.4258 26.2827 21.5592 26.5185 21.5592 26.7157C21.5592 26.9129 21.4258 26.9901 21.259 26.8915Z" fill="url(#paint4_linear_249_15669)"/>
<path d="M19.8942 18.3909C19.7982 18.3352 19.7023 18.2194 19.644 18.0823C19.5522 17.8636 19.5898 17.6665 19.7274 17.6407L22.2584 17.1649C22.396 17.1392 22.5795 17.2935 22.6712 17.5121C22.763 17.7308 22.7254 17.9279 22.5878 17.9537L20.0568 18.4295C20.0067 18.4381 19.9484 18.4252 19.89 18.3909H19.8942Z" fill="url(#paint5_linear_249_15669)"/>
<path d="M16.2533 16.2263C16.195 16.192 16.1408 16.1405 16.0865 16.0719L13.5555 12.5911C13.4179 12.4025 13.3804 12.1582 13.4721 12.051C13.5638 11.9395 13.7473 12.0081 13.8849 12.1967L16.416 15.6776C16.5536 15.8662 16.5911 16.1105 16.4994 16.2177C16.441 16.2863 16.3451 16.2863 16.2492 16.2305L16.2533 16.2263Z" fill="url(#paint6_linear_249_15669)"/>
<path d="M34.4229 31.7359C34.4229 31.9173 34.3013 32.1395 34.1428 32.2321C33.9843 32.3284 33.8552 32.258 33.8516 32.0766C33.8516 31.8951 33.9732 31.6729 34.1317 31.5804C34.2902 31.4878 34.4192 31.5544 34.4229 31.7359Z" fill="#F00D0C"/>
<path d="M36.7284 32.9468C36.78 32.9764 36.8095 33.0357 36.8132 33.1246L34.4246 31.7322C34.4246 31.6433 34.3914 31.5841 34.3398 31.5544C35.5231 32.2432 35.5452 32.2543 36.7284 32.9468Z" fill="#EC284F"/>
<path d="M33.9375 32.2543C33.9891 32.2839 34.0628 32.2802 34.1439 32.2321C34.3024 32.1358 34.4278 31.9136 34.4241 31.7358L36.8127 33.1282C36.8127 33.3097 36.691 33.5319 36.5325 33.6244C36.4514 33.6726 36.3777 33.68 36.3261 33.6466C35.1429 32.9579 35.1207 32.9468 33.9375 32.2543Z" fill="#EC284F"/>
<path d="M36.7285 32.9469C36.6768 32.9172 36.6031 32.9209 36.522 32.9691C36.3635 33.0617 36.2382 33.2875 36.2419 33.4653C36.2419 33.5505 36.2751 33.6134 36.323 33.643L33.9344 32.2507C33.8828 32.221 33.8533 32.1618 33.8496 32.0729C33.8496 31.9803 33.8791 31.8767 33.9344 31.7841C34.0339 31.7841 34.1371 31.7619 34.2182 31.7174C34.2993 31.673 34.3399 31.61 34.3399 31.5508L36.7248 32.9395L36.7285 32.9469Z" fill="#EC284F"/>
<path d="M36.0837 33.0061L36.1832 32.8358L34.0821 31.6174C34.0342 31.6582 33.99 31.71 33.9531 31.7693L36.0874 33.0061H36.0837Z" fill="#FA466A"/>
<path d="M37.3298 32.8134C37.3409 33.3207 36.987 33.9502 36.541 34.2169C36.095 34.4835 35.7301 34.2872 35.719 33.7799C35.7079 33.2726 36.0618 32.643 36.5078 32.3764C36.9538 32.1098 37.3188 32.3061 37.3298 32.8134ZM36.8101 33.1244C36.8101 32.943 36.6774 32.8763 36.5189 32.9689C36.3604 33.0615 36.2351 33.2874 36.2387 33.4651C36.2387 33.6466 36.3714 33.7132 36.5299 33.6207C36.6884 33.5281 36.8138 33.3022 36.8101 33.1244Z" fill="#EC284F"/>
<path d="M38.964 34.7203L37.3348 32.8169C37.3348 32.6465 37.2905 32.5132 37.2168 32.4207C37.7402 33.1131 38.4406 34.0315 38.964 34.724V34.7203Z" fill="#EC284F"/>
<path d="M36.1035 34.3354C36.2325 34.3539 36.38 34.3169 36.5422 34.2206C36.9882 33.954 37.3384 33.3245 37.331 32.8171L38.9602 34.7205C38.1051 34.6057 36.9624 34.4502 36.1035 34.3354Z" fill="#EC284F"/>
<path d="M38.9629 34.7205L36.1061 34.3354C35.8813 34.3057 35.7265 34.1058 35.7228 33.7836C35.7154 33.2763 36.0656 32.6467 36.5116 32.3801C36.8102 32.2024 37.0719 32.2283 37.2156 32.4209L38.9629 34.7242V34.7205Z" fill="#EC284F"/>
<path d="M33.4453 31.7288C33.4453 31.9103 33.567 32.1324 33.7255 32.225C33.884 32.3213 34.013 32.2509 34.0167 32.0695C34.0167 31.888 33.895 31.6658 33.7365 31.5733C33.578 31.4807 33.449 31.5473 33.4453 31.7288Z" fill="#238F00"/>
<path d="M31.2332 32.9136C31.1816 32.9432 31.1521 33.0024 31.1484 33.0913L33.4412 31.7249C33.4412 31.636 33.4744 31.5767 33.526 31.5471C32.3427 32.2359 32.4165 32.2211 31.2332 32.9136Z" fill="#10D673"/>
<path d="M33.9336 32.2472C33.882 32.2768 33.8083 32.2731 33.7272 32.225C33.5687 32.1287 33.4434 31.9065 33.4471 31.7288L31.1543 33.0952C31.1543 33.2767 31.2759 33.4989 31.4344 33.5914C31.5155 33.6396 31.5893 33.647 31.6409 33.6136C32.8241 32.9249 32.7504 32.9397 33.9336 32.2509V32.2472Z" fill="#10D673"/>
<path d="M34.0156 32.0693C34.0156 32.1582 33.9825 32.2174 33.9346 32.247L31.6418 33.6098C31.6934 33.5802 31.7229 33.5209 31.7266 33.432C31.7266 33.2506 31.6049 33.0284 31.4464 32.9358C31.3653 32.8877 31.2916 32.8803 31.2363 32.9136L33.5291 31.5509C33.5291 31.5509 33.5365 31.5472 33.5401 31.5435V31.5583C33.5401 31.6175 33.577 31.6731 33.6507 31.7212C33.7281 31.7693 33.8313 31.7916 33.9346 31.7916C33.9862 31.8804 34.0157 31.9804 34.012 32.0693H34.0156Z" fill="#10D673"/>
<path d="M33.8273 31.6475L31.7852 32.8584L31.8847 33.0287L33.9452 31.8067C33.9157 31.7474 33.8752 31.6919 33.8309 31.6475H33.8273Z" fill="#2BEB8B"/>
<path d="M31.4549 32.3435C31.9009 32.6101 32.2511 33.2396 32.2438 33.7469C32.2364 34.2543 31.8678 34.4505 31.4218 34.1839C30.9757 33.9173 30.6256 33.2878 30.6329 32.7804C30.6403 32.2731 31.0089 32.0768 31.4549 32.3435ZM31.1527 33.0952C31.1527 33.2766 31.2743 33.4988 31.4328 33.5914C31.5913 33.684 31.7203 33.6173 31.724 33.4359C31.724 33.2544 31.6024 33.0322 31.4439 32.9397C31.2854 32.8471 31.1564 32.9137 31.1527 33.0952Z" fill="#10D673"/>
<path d="M29.002 34.6839L30.6312 32.7805C30.6312 32.6102 30.6754 32.4769 30.7492 32.3843C30.2257 33.0768 29.5254 33.9951 29.002 34.6876V34.6839Z" fill="#10D673"/>
<path d="M31.8567 34.2986C31.7277 34.3171 31.5803 34.28 31.4181 34.1838C30.9721 33.9171 30.6219 33.2876 30.6293 32.7803L29 34.6837C29.8552 34.5689 30.9979 34.4133 31.8567 34.2986Z" fill="#10D673"/>
<path d="M29.002 34.6838L31.8587 34.2987C32.0835 34.2691 32.2384 34.0691 32.242 33.747C32.2494 33.2396 31.8992 32.6101 31.4532 32.3435C31.1546 32.1657 30.8929 32.1953 30.7492 32.3842L29.002 34.6875V34.6838Z" fill="#10D673"/>
<path d="M34.2298 31.3953C34.075 31.3027 33.8207 31.299 33.6622 31.3879C33.5037 31.4768 33.4963 31.6249 33.6511 31.7175C33.8059 31.81 34.0603 31.8138 34.2188 31.7249C34.3773 31.636 34.3847 31.4879 34.2298 31.3953Z" fill="#177FFF"/>
<path d="M34.3391 28.3292C34.3391 28.2699 34.3022 28.2144 34.2285 28.1663L34.2359 31.3917C34.3096 31.4361 34.3465 31.4954 34.3465 31.5546C34.3428 30.1808 34.3465 29.7031 34.3391 28.3292Z" fill="#637BF2"/>
<path d="M33.5425 31.5583C33.5425 31.4954 33.5831 31.4361 33.6679 31.388C33.8264 31.2991 34.0844 31.2991 34.2355 31.3954L34.2281 28.17C34.0733 28.0774 33.819 28.0737 33.6605 28.1625C33.5794 28.207 33.5352 28.2699 33.5352 28.3329C33.5388 29.7068 33.5352 30.1845 33.5425 31.5583Z" fill="#637BF2"/>
<path d="M33.9374 31.7917C33.8342 31.7917 33.731 31.7657 33.6536 31.7213C33.5798 31.6769 33.543 31.6176 33.543 31.5584V31.5436C33.5946 31.5176 33.6646 31.5287 33.7383 31.5732C33.8157 31.6213 33.8895 31.6991 33.9374 31.7917Z" fill="#0EB561"/>
<path d="M34.3449 31.5583C34.3449 31.6175 34.3007 31.6805 34.2233 31.7249C34.1459 31.7694 34.0427 31.7916 33.9395 31.7916C33.9911 31.7027 34.0574 31.6287 34.1348 31.5805C34.2159 31.5324 34.2896 31.525 34.3412 31.5583H34.3449Z" fill="#6C4EC7"/>
<path d="M34.3465 31.5546C34.2949 31.5213 34.2212 31.5287 34.1401 31.5768C34.0627 31.625 33.9927 31.699 33.9448 31.7879C33.8932 31.699 33.8231 31.6176 33.7457 31.5694C33.672 31.525 33.6019 31.5176 33.5503 31.5398L33.543 28.3255C33.543 28.3847 33.5798 28.4403 33.6536 28.4884C33.8084 28.581 34.0627 28.5847 34.2212 28.4921C34.3023 28.4477 34.3465 28.3847 34.3465 28.3218L34.3539 31.5472L34.3465 31.5546Z" fill="#637BF2"/>
<path d="M34.7228 28.8069C34.2694 29.0587 33.5506 29.0513 33.1156 28.7921C32.6807 28.5291 32.6954 28.1107 33.1488 27.8589C33.6022 27.6071 34.321 27.6145 34.7559 27.8737C35.1909 28.1366 35.1761 28.5551 34.7228 28.8069ZM34.2251 28.1699C34.0703 28.0774 33.816 28.0737 33.6575 28.1625C33.499 28.2514 33.4916 28.3995 33.6464 28.4921C33.8012 28.5847 34.0556 28.5884 34.2141 28.4995C34.3726 28.4106 34.3799 28.2625 34.2251 28.1699Z" fill="#637BF2"/>
<path d="M33.9295 25.5L34.7552 27.87C34.8989 27.9589 34.9948 28.0626 35.039 28.17C34.7072 27.3701 34.2612 26.2999 33.9258 25.5H33.9295Z" fill="#637BF2"/>
<path d="M32.8301 28.1774C32.878 28.0589 32.9849 27.9441 33.1471 27.8552C33.6005 27.6034 34.3193 27.6108 34.7542 27.87L33.9285 25.5C33.6005 26.3036 33.1618 27.3738 32.8338 28.1774H32.8301Z" fill="#637BF2"/>
<path d="M33.9279 25.5L32.8331 28.1774C32.7483 28.3884 32.8405 28.6217 33.1169 28.7884C33.5519 29.0513 34.2707 29.0587 34.7241 28.8032C35.0263 28.6328 35.1332 28.3921 35.0411 28.17L33.9279 25.5Z" fill="#637BF2"/>
<path d="M33.8848 31.788C33.9511 31.7954 34.0175 31.788 34.0801 31.7769V28.9106H33.8848V31.788Z" fill="#6C85FC"/>
<path d="M34.6589 28.8365L33.929 25.5L33.918 28.9883C33.918 28.9883 34.3161 29.0032 34.6589 28.8365Z" fill="#7890FF"/>
<defs>
<linearGradient id="paint0_linear_249_15669" x1="14.3904" y1="14.6393" x2="14.3904" y2="19.1578" gradientUnits="userSpaceOnUse">
<stop stop-color="#FFC700"/>
<stop offset="1" stop-color="#FF8A00"/>
</linearGradient>
<radialGradient id="paint1_radial_249_15669" cx="0" cy="0" r="1" gradientUnits="userSpaceOnUse" gradientTransform="translate(14.0117 17.4905) scale(5.01172 4.99053)">
<stop stop-color="#FFFF12"/>
<stop offset="0.13" stop-color="#FF9412"/>
<stop offset="0.15" stop-color="#F28C11"/>
<stop offset="0.21" stop-color="#C06F0D"/>
<stop offset="0.28" stop-color="#92550A"/>
<stop offset="0.35" stop-color="#6B3E07"/>
<stop offset="0.43" stop-color="#492A05"/>
<stop offset="0.51" stop-color="#2E1B03"/>
<stop offset="0.6" stop-color="#190F01"/>
<stop offset="0.7" stop-color="#0B0600"/>
<stop offset="0.82" stop-color="#020100"/>
<stop offset="1"/>
</radialGradient>
<radialGradient id="paint2_radial_249_15669" cx="0" cy="0" r="1" gradientUnits="userSpaceOnUse" gradientTransform="translate(22.0117 21.4905) scale(5.01172 4.99053)">
<stop stop-color="#FFFF12"/>
<stop offset="0.13" stop-color="#FF9412"/>
<stop offset="0.15" stop-color="#F28C11"/>
<stop offset="0.21" stop-color="#C06F0D"/>
<stop offset="0.28" stop-color="#92550A"/>
<stop offset="0.35" stop-color="#6B3E07"/>
<stop offset="0.43" stop-color="#492A05"/>
<stop offset="0.51" stop-color="#2E1B03"/>
<stop offset="0.6" stop-color="#190F01"/>
<stop offset="0.7" stop-color="#0B0600"/>
<stop offset="0.82" stop-color="#020100"/>
<stop offset="1"/>
</radialGradient>
<linearGradient id="paint3_linear_249_15669" x1="20.5142" y1="19.1366" x2="23.0257" y2="23.368" gradientUnits="userSpaceOnUse">
<stop stop-color="#FFC700"/>
<stop offset="1" stop-color="#FF8A00"/>
</linearGradient>
<linearGradient id="paint4_linear_249_15669" x1="18.0775" y1="21.2985" x2="18.0775" y2="27.772" gradientUnits="userSpaceOnUse">
<stop stop-color="#FFC700"/>
<stop offset="1" stop-color="#FF8A00"/>
</linearGradient>
<linearGradient id="paint5_linear_249_15669" x1="21.1576" y1="16.8658" x2="21.1576" y2="18.6649" gradientUnits="userSpaceOnUse">
<stop stop-color="#FFC700"/>
<stop offset="1" stop-color="#FF8A00"/>
</linearGradient>
<linearGradient id="paint6_linear_249_15669" x1="14.9857" y1="11.0002" x2="14.9857" y2="17.0543" gradientUnits="userSpaceOnUse">
<stop stop-color="#FFC700"/>
<stop offset="1" stop-color="#FF8A00"/>
</linearGradient>
</defs>
</svg>
