<svg width="31" height="30" viewBox="0 0 31 30" fill="none" xmlns="http://www.w3.org/2000/svg">
<path fill-rule="evenodd" clip-rule="evenodd" d="M15.5 30C17.4698 30 19.4204 29.612 21.2403 28.8582C23.0601 28.1044 24.7137 26.9995 26.1066 25.6066C27.4995 24.2137 28.6044 22.5601 29.3582 20.7403C30.112 18.9204 30.5 16.9698 30.5 15C30.5 13.0302 30.112 11.0796 29.3582 9.25975C28.6044 7.43986 27.4995 5.78628 26.1066 4.3934C24.7137 3.00052 23.0601 1.89563 21.2403 1.14181C19.4204 0.387986 17.4698 -2.93527e-08 15.5 0C11.5218 5.92805e-08 7.70644 1.58035 4.8934 4.3934C2.08035 7.20644 0.5 11.0218 0.5 15C0.5 18.9782 2.08035 22.7936 4.8934 25.6066C7.70644 28.4196 11.5218 30 15.5 30ZM15.1133 21.0667L23.4467 11.0667L20.8867 8.93333L13.72 17.5317L10.0117 13.8217L7.655 16.1783L12.655 21.1783L13.945 22.4683L15.1133 21.0667Z" fill="#F8F8F8"/>
</svg>
