<svg width="34" height="34" viewBox="0 0 34 34" fill="none" xmlns="http://www.w3.org/2000/svg">
<path d="M11.5379 16.9996C11.5379 13.9838 13.9835 11.5383 17.0011 11.5383C20.0187 11.5383 22.4656 13.9838 22.4656 16.9996C22.4656 20.0154 20.0187 22.4608 17.0011 22.4608C13.9835 22.4608 11.5379 20.0154 11.5379 16.9996ZM8.58389 16.9996C8.58389 21.6456 12.3523 25.4117 17.0011 25.4117C21.6499 25.4117 25.4183 21.6456 25.4183 16.9996C25.4183 12.3535 21.6499 8.58741 17.0011 8.58741C12.3523 8.58741 8.58389 12.3535 8.58389 16.9996ZM23.7845 8.25386C23.7843 8.64268 23.8995 9.02281 24.1155 9.34618C24.3315 9.66956 24.6387 9.92165 24.998 10.0706C25.3574 10.2195 25.7529 10.2586 26.1345 10.1829C26.5161 10.1072 26.8667 9.92012 27.1419 9.6453C27.4171 9.37047 27.6046 9.02026 27.6806 8.63895C27.7567 8.25763 27.7179 7.86234 27.5691 7.50307C27.4204 7.14379 27.1684 6.83666 26.845 6.62051C26.5216 6.40437 26.1413 6.28892 25.7523 6.28877H25.7515C25.23 6.28901 24.73 6.4961 24.3611 6.86455C23.9923 7.233 23.7849 7.73269 23.7845 8.25386ZM10.3786 30.3344C8.78047 30.2617 7.91181 29.9956 7.33454 29.7709C6.56922 29.4731 6.02317 29.1185 5.44905 28.5455C4.87493 27.9725 4.51954 27.4273 4.22291 26.6624C3.99788 26.0858 3.73167 25.2174 3.65902 23.6201C3.57955 21.8933 3.56368 21.3746 3.56368 16.9997C3.56368 12.6248 3.58086 12.1075 3.65902 10.3792C3.7318 8.78203 3.99998 7.91534 4.22291 7.33698C4.52085 6.57212 4.87571 6.02639 5.44905 5.45261C6.02238 4.87883 6.56791 4.52366 7.33454 4.22721C7.91155 4.00231 8.78047 3.73626 10.3786 3.66365C12.1065 3.58423 12.6256 3.56837 17.0011 3.56837C21.3766 3.56837 21.8962 3.58554 23.6255 3.66365C25.2237 3.73639 26.0909 4.00441 26.6696 4.22721C27.4349 4.52366 27.981 4.87962 28.5551 5.45261C29.1292 6.0256 29.4833 6.57212 29.7812 7.33698C30.0063 7.91364 30.2725 8.78203 30.3451 10.3792C30.4246 12.1075 30.4405 12.6248 30.4405 16.9997C30.4405 21.3746 30.4246 21.8919 30.3451 23.6201C30.2724 25.2174 30.0048 26.0855 29.7812 26.6624C29.4833 27.4273 29.1284 27.973 28.5551 28.5455C27.9818 29.1179 27.4349 29.4731 26.6696 29.7709C26.0926 29.9958 25.2237 30.2618 23.6255 30.3344C21.8976 30.4138 21.3786 30.4297 17.0011 30.4297C12.6236 30.4297 12.106 30.4138 10.3786 30.3344ZM10.2429 0.716399C8.49787 0.795821 7.30543 1.07236 6.26407 1.47733C5.18559 1.89554 4.27261 2.4566 3.36029 3.36694C2.44796 4.27727 1.888 5.19115 1.46954 6.26898C1.06433 7.31037 0.787627 8.50144 0.708158 10.2454C0.627377 11.9922 0.608887 12.5506 0.608887 16.9996C0.608887 21.4485 0.627377 22.0069 0.708158 23.7537C0.787627 25.4978 1.06433 26.6888 1.46954 27.7302C1.888 28.8073 2.44809 29.7222 3.36029 30.6322C4.27248 31.5421 5.18559 32.1024 6.26407 32.5218C7.3074 32.9268 8.49787 33.2033 10.2429 33.2827C11.9916 33.3621 12.5495 33.3819 17.0011 33.3819C21.4527 33.3819 22.0115 33.3635 23.7593 33.2827C25.5045 33.2033 26.6961 32.9268 27.7381 32.5218C28.8159 32.1024 29.7296 31.5425 30.6419 30.6322C31.5542 29.7219 32.113 28.8073 32.5326 27.7302C32.9379 26.6888 33.2159 25.4977 33.294 23.7537C33.3735 22.0056 33.392 21.4485 33.392 16.9996C33.392 12.5506 33.3735 11.9922 33.294 10.2454C33.2146 8.5013 32.9379 7.30972 32.5326 6.26898C32.113 5.1918 31.5528 4.27871 30.6419 3.36694C29.731 2.45516 28.8159 1.89554 27.7394 1.47733C26.6961 1.07236 25.5043 0.79451 23.7606 0.716399C22.0128 0.636977 21.454 0.617188 17.0024 0.617188C12.5508 0.617188 11.9916 0.635667 10.2429 0.716399Z" fill="url(#paint0_radial_1454_2497)"/>
<path d="M11.5379 16.9996C11.5379 13.9838 13.9835 11.5383 17.0011 11.5383C20.0187 11.5383 22.4656 13.9838 22.4656 16.9996C22.4656 20.0154 20.0187 22.4608 17.0011 22.4608C13.9835 22.4608 11.5379 20.0154 11.5379 16.9996ZM8.58389 16.9996C8.58389 21.6456 12.3523 25.4117 17.0011 25.4117C21.6499 25.4117 25.4183 21.6456 25.4183 16.9996C25.4183 12.3535 21.6499 8.58741 17.0011 8.58741C12.3523 8.58741 8.58389 12.3535 8.58389 16.9996ZM23.7845 8.25386C23.7843 8.64268 23.8995 9.02281 24.1155 9.34618C24.3315 9.66956 24.6387 9.92165 24.998 10.0706C25.3574 10.2195 25.7529 10.2586 26.1345 10.1829C26.5161 10.1072 26.8667 9.92012 27.1419 9.6453C27.4171 9.37047 27.6046 9.02026 27.6806 8.63895C27.7567 8.25763 27.7179 7.86234 27.5691 7.50307C27.4204 7.14379 27.1684 6.83666 26.845 6.62051C26.5216 6.40437 26.1413 6.28892 25.7523 6.28877H25.7515C25.23 6.28901 24.73 6.4961 24.3611 6.86455C23.9923 7.233 23.7849 7.73269 23.7845 8.25386ZM10.3786 30.3344C8.78047 30.2617 7.91181 29.9956 7.33454 29.7709C6.56922 29.4731 6.02317 29.1185 5.44905 28.5455C4.87493 27.9725 4.51954 27.4273 4.22291 26.6624C3.99788 26.0858 3.73167 25.2174 3.65902 23.6201C3.57955 21.8933 3.56368 21.3746 3.56368 16.9997C3.56368 12.6248 3.58086 12.1075 3.65902 10.3792C3.7318 8.78203 3.99998 7.91534 4.22291 7.33698C4.52085 6.57212 4.87571 6.02639 5.44905 5.45261C6.02238 4.87883 6.56791 4.52366 7.33454 4.22721C7.91155 4.00231 8.78047 3.73626 10.3786 3.66365C12.1065 3.58423 12.6256 3.56837 17.0011 3.56837C21.3766 3.56837 21.8962 3.58554 23.6255 3.66365C25.2237 3.73639 26.0909 4.00441 26.6696 4.22721C27.4349 4.52366 27.981 4.87962 28.5551 5.45261C29.1292 6.0256 29.4833 6.57212 29.7812 7.33698C30.0063 7.91364 30.2725 8.78203 30.3451 10.3792C30.4246 12.1075 30.4405 12.6248 30.4405 16.9997C30.4405 21.3746 30.4246 21.8919 30.3451 23.6201C30.2724 25.2174 30.0048 26.0855 29.7812 26.6624C29.4833 27.4273 29.1284 27.973 28.5551 28.5455C27.9818 29.1179 27.4349 29.4731 26.6696 29.7709C26.0926 29.9958 25.2237 30.2618 23.6255 30.3344C21.8976 30.4138 21.3786 30.4297 17.0011 30.4297C12.6236 30.4297 12.106 30.4138 10.3786 30.3344ZM10.2429 0.716399C8.49787 0.795821 7.30543 1.07236 6.26407 1.47733C5.18559 1.89554 4.27261 2.4566 3.36029 3.36694C2.44796 4.27727 1.888 5.19115 1.46954 6.26898C1.06433 7.31037 0.787627 8.50144 0.708158 10.2454C0.627377 11.9922 0.608887 12.5506 0.608887 16.9996C0.608887 21.4485 0.627377 22.0069 0.708158 23.7537C0.787627 25.4978 1.06433 26.6888 1.46954 27.7302C1.888 28.8073 2.44809 29.7222 3.36029 30.6322C4.27248 31.5421 5.18559 32.1024 6.26407 32.5218C7.3074 32.9268 8.49787 33.2033 10.2429 33.2827C11.9916 33.3621 12.5495 33.3819 17.0011 33.3819C21.4527 33.3819 22.0115 33.3635 23.7593 33.2827C25.5045 33.2033 26.6961 32.9268 27.7381 32.5218C28.8159 32.1024 29.7296 31.5425 30.6419 30.6322C31.5542 29.7219 32.113 28.8073 32.5326 27.7302C32.9379 26.6888 33.2159 25.4977 33.294 23.7537C33.3735 22.0056 33.392 21.4485 33.392 16.9996C33.392 12.5506 33.3735 11.9922 33.294 10.2454C33.2146 8.5013 32.9379 7.30972 32.5326 6.26898C32.113 5.1918 31.5528 4.27871 30.6419 3.36694C29.731 2.45516 28.8159 1.89554 27.7394 1.47733C26.6961 1.07236 25.5043 0.79451 23.7606 0.716399C22.0128 0.636977 21.454 0.617188 17.0024 0.617188C12.5508 0.617188 11.9916 0.635667 10.2429 0.716399Z" fill="url(#paint1_radial_1454_2497)"/>
<defs>
<radialGradient id="paint0_radial_1454_2497" cx="0" cy="0" r="1" gradientUnits="userSpaceOnUse" gradientTransform="translate(4.96449 33.5367) scale(42.7973 42.7716)">
<stop offset="0.09" stop-color="#FA8F21"/>
<stop offset="0.78" stop-color="#D82D7E"/>
</radialGradient>
<radialGradient id="paint1_radial_1454_2497" cx="0" cy="0" r="1" gradientUnits="userSpaceOnUse" gradientTransform="translate(20.4912 35.0046) scale(33.7302 33.7099)">
<stop offset="0.64" stop-color="#8C3AAA" stop-opacity="0"/>
<stop offset="1" stop-color="#8C3AAA"/>
</radialGradient>
</defs>
</svg>
