<svg width="39" height="38" viewBox="0 0 39 38" fill="none" xmlns="http://www.w3.org/2000/svg">
<g filter="url(#filter0_f_249_15797)">
<path d="M17.8309 30.903L33.4197 12.6762C35.3667 10.3997 34.9084 6.93728 32.4361 5.24576C30.9551 4.23243 29.0468 4.08364 27.4266 4.85516L5.72924 15.1872C2.2713 16.8339 1.22042 21.2548 3.56752 24.2813L8.52986 30.6801C10.8595 33.6842 15.3601 33.792 17.8309 30.903Z" fill="url(#paint0_linear_249_15797)"/>
</g>
<path style="mix-blend-mode:screen" d="M25 23.5C30.5228 23.5 35 19.0228 35 13.5C35 7.97715 30.5228 3.5 25 3.5C19.4772 3.5 15 7.97715 15 13.5C15 19.0228 19.4772 23.5 25 23.5Z" fill="url(#paint1_radial_249_15797)"/>
<g clip-path="url(#clip0_249_15797)">
<path d="M5.11523 15.1298C5.11523 14.5924 5.76269 14.3426 6.34944 14.1741C6.9362 14.0057 7.3582 13.8779 7.42468 14.3223C7.49405 14.7667 7.29172 15.6933 6.34944 15.8386C5.40717 15.9838 5.11523 15.644 5.11523 15.1298Z" fill="url(#paint2_linear_249_15797)"/>
<path d="M10.5174 18.5081C10.4942 18.1246 9.83234 18.1885 9.19645 18.3396C8.56055 18.4906 8.2137 18.7027 8.29753 19.1791C8.39291 19.7194 8.88717 20.0418 9.56642 19.7048C10.2457 19.3679 10.5463 18.9322 10.5203 18.5081H10.5174Z" fill="url(#paint3_linear_249_15797)"/>
<path d="M27.3032 14.6506C27.3032 14.6506 27.7628 16.4458 27.7108 17.4189C27.6587 18.3891 26.4766 19.0775 26.4766 19.0775L26.913 20.3178L28.127 20.0796C28.127 20.0796 29.1993 18.7028 28.9334 17.0238C28.6675 15.3478 28.127 14.6506 28.127 14.6506H27.3032Z" fill="url(#paint4_linear_249_15797)"/>
<path d="M22.3564 11.5426C22.3564 11.5426 22.4576 10.584 23.1224 9.83166C23.7872 9.07643 24.9665 6.9879 26.2036 6.22395C27.1343 5.64881 29.4697 4.85581 30.5016 4.42881C31.5335 4.00181 31.4005 3.67938 31.5248 3.22623C31.6462 2.76728 31.73 2.50004 31.73 2.50004C31.73 2.50004 32.1058 2.47681 31.9526 3.49638C31.941 3.56609 32.8689 2.6569 33.9239 2.72952C34.3574 2.75857 34.5713 3.21171 34.1204 3.61838C33.9556 3.76943 33.6782 3.95243 33.3342 4.16157C32.9035 4.4259 32.6116 4.81514 32.1809 4.972C31.7185 5.14047 31.3456 5.09109 30.5016 5.72433C29.7154 6.30819 28.0419 6.92109 27.3279 7.36843C26.614 7.81576 25.6977 9.87814 25.2468 10.4678C24.7988 11.0604 22.3535 11.5397 22.3535 11.5397L22.3564 11.5426Z" fill="#FFD0CA"/>
<path d="M16.4578 16.0421C16.0994 16.167 15.6774 16.7392 16.9318 17.8053C18.1863 18.8713 19.7211 19.888 20.2529 20.527C20.7819 21.169 21.36 21.5321 21.8658 20.832C22.3716 20.132 21.8716 18.3804 20.4755 17.2098C19.0794 16.0392 17.0995 15.8184 16.4578 16.0421Z" fill="url(#paint5_linear_249_15797)"/>
<path d="M25.9422 8.57666C25.3901 7.94923 24.6819 7.8737 23.968 8.10028C23.5807 8.64056 23.2194 9.17794 22.9477 9.57299C22.2684 10.5664 22.3551 11.5424 22.3551 11.5424C22.3551 11.5424 24.0432 11.554 24.7137 11.1532C25.0432 10.9557 25.7196 10.1859 26.4017 9.36966C26.2948 9.0908 26.156 8.82066 25.9422 8.57666Z" fill="url(#paint6_linear_249_15797)"/>
<path d="M7.33627 15.9346C7.33627 15.9346 7.28136 15.4728 7.22933 15.1068C7.18597 14.8076 7.0877 13.7502 7.00388 13.0938C6.96919 13.1373 6.92584 13.1751 6.86514 13.2012C6.19167 13.4946 5.04128 13.4365 4.63952 13.5847C4.23775 13.7328 3.40242 13.8838 3.33594 14.5258C3.58451 14.4328 3.83309 14.3283 4.05854 14.2527C4.7031 14.0407 5.31587 13.9652 5.41993 14.2527C5.52398 14.5403 5.52109 16.228 5.52109 16.228L7.33917 15.9346H7.33627Z" fill="#FFD0CA"/>
<path d="M20.0644 16.6839L18.229 16.0448C18.229 16.0448 17.5209 15.8763 16.1652 16.4457C15.1449 16.8727 14.8039 17.4972 14.2027 18.1391C13.8963 18.4645 12.6303 18.6504 11.055 19.2226C9.47971 19.7949 7.8553 20.8725 7.8553 20.8725C7.8553 20.8725 8.01427 19.6525 7.75124 16.7942C7.65875 15.7834 7.50556 14.8597 7.42463 14.3252C6.99974 15.1095 6.24534 15.4726 5.11518 15.1298C5.07761 15.9286 5.12096 17.8487 5.11229 18.5516C5.09495 20.0911 5.25681 21.2763 5.34353 22.5021C5.39844 23.2748 5.59499 23.7453 6.10371 24.2827C6.3783 24.5732 7.15293 24.7126 8.17614 24.5645C8.6704 24.4948 10.3815 24.0968 12.4193 23.3706C14.7171 22.5515 17.0006 21.4796 18.229 20.8144C19.4574 20.1492 22.5791 17.564 22.5791 17.564L20.0644 16.6868V16.6839Z" fill="#341495"/>
<path d="M10.4398 19.9751C10.4398 19.9751 10.3849 19.5133 10.3328 19.1473C10.2895 18.8481 10.1912 17.7908 10.1074 17.1343C10.0727 17.1778 10.0294 17.2156 9.96865 17.2418C9.29519 17.5351 8.1448 17.477 7.74303 17.6252C7.34126 17.7733 6.50593 17.9244 6.43945 18.5663C6.68803 18.4734 6.9366 18.3688 7.16206 18.2933C7.80662 18.0812 8.41939 18.0057 8.52344 18.2933C8.6275 18.5808 8.62461 20.2685 8.62461 20.2685L10.4427 19.9751H10.4398Z" fill="#FFD0CA"/>
<path d="M10.0558 16.7799C10.0067 16.4807 10.0298 16.2628 9.96619 16.106C9.98353 16.2396 9.6309 16.5301 9.02391 16.6172C8.41114 16.7043 7.57292 16.838 7.21162 16.9251C6.85321 17.0122 6.06123 17.5409 5.47159 18.2061C5.18833 18.5227 4.95709 18.6825 4.74609 18.7493C4.82124 18.7841 4.8964 18.8103 4.96866 18.8306C5.36464 18.9381 5.9803 18.7348 6.43988 18.5663C6.50636 17.9214 7.34169 17.7704 7.74346 17.6251C8.14522 17.477 9.29561 17.538 9.96908 17.2417C10.0269 17.2156 10.0702 17.1778 10.1078 17.1342C10.0905 16.9948 10.0731 16.8699 10.0587 16.777L10.0558 16.7799Z" fill="#FFAE01"/>
<path d="M5.47394 18.206C6.06648 17.5437 6.85556 17.015 7.21397 16.925C7.57238 16.8379 8.4106 16.7042 9.02626 16.6171C9.63325 16.5299 9.98588 16.2395 9.96854 16.1059C9.92229 15.9926 9.8298 15.9112 9.6188 15.8619C9.12165 15.7457 8.6823 16.0971 8.30366 16.2133C7.92212 16.3295 7.52325 16.2453 6.58675 16.4225C5.65026 16.5997 5.02014 16.9773 4.52299 17.6831C4.11255 18.2641 4.40449 18.5894 4.74845 18.7521C4.95945 18.6853 5.19357 18.5255 5.47394 18.2089V18.206Z" fill="url(#paint7_linear_249_15797)"/>
<path d="M5.47394 18.206C6.06648 17.5437 6.81509 17.3026 7.1446 17.1341C7.55504 16.925 8.4106 16.7042 9.02626 16.6171C9.63325 16.5299 9.98588 16.2395 9.96854 16.1059C9.92229 15.9926 9.8298 15.9112 9.6188 15.8619C9.12165 15.7457 8.6823 16.0971 8.30366 16.2133C7.92212 16.3295 7.52325 16.2453 6.58675 16.4225C5.65026 16.5997 5.02014 16.9773 4.52299 17.6831C4.11255 18.2641 4.40449 18.5894 4.74845 18.7521C4.95945 18.6853 5.19357 18.5255 5.47394 18.2089V18.206Z" fill="#C67D04"/>
<path d="M21.9148 16.8756C20.3308 15.9054 19.8452 15.583 19.8452 15.583C19.8452 15.583 18.6168 15.9054 17.0097 17.2591C16.3536 17.811 15.8044 19.2575 15.6946 19.6991C15.4373 20.7186 14.3766 21.2153 12.9169 22.5022C11.4572 23.789 10.7028 25.0758 10.7028 25.0758C10.7028 25.0758 10.8503 23.9632 10.6595 21.837C10.5525 20.646 10.6768 19.2314 10.5207 18.511C9.76346 19.4347 8.30669 19.1849 8.29802 19.182C8.28646 19.9605 8.13037 22.2814 7.97718 23.6699C7.76907 25.5609 8.02632 25.9152 8.24599 27.083C8.32692 27.5129 8.67088 27.9021 9.16803 28.1839C9.48887 28.3669 9.89064 28.3959 10.4427 28.3611C11.8475 28.2739 15.2755 26.3103 17.2988 24.6372C19.3221 22.9611 21.9177 20.3613 21.9177 20.3613C21.9177 20.3613 23.5016 17.8487 21.9177 16.8785L21.9148 16.8756Z" fill="#3E19AE"/>
<path d="M26.9328 11.6298L28.4098 11.9435C28.4098 11.9435 28.3867 12.9834 27.7971 13.7764C27.2074 14.5694 27.719 15.2375 27.719 15.2375C27.719 15.2375 27.5803 16.0189 27.1901 16.5069C26.9675 16.7886 26.7507 16.9368 26.164 17.2098C25.7796 17.387 24.5193 17.9854 23.262 19.4029C22.7735 19.9548 21.863 20.8321 21.863 20.8321C21.863 20.8321 21.1347 18.6302 19.5796 17.4829C19.3889 17.3405 18.7963 17.053 18.5766 16.9368C18.7732 16.7828 18.9986 16.6666 19.2472 16.3732C18.831 16.3529 18.4119 16.3558 18.039 16.4836C17.195 15.9637 16.4551 16.0392 16.4551 16.0392C16.4551 16.0392 18.039 15.7139 19.0709 15.1039C19.86 14.6391 20.6866 13.5992 20.9844 13.1983C22.314 11.3974 22.3429 11.1331 23.5279 10.5405C24.713 9.94791 26.9299 11.6269 26.9299 11.6269L26.9328 11.6298Z" fill="url(#paint8_linear_249_15797)"/>
<path d="M27.8319 7.34794C28.4389 7.70813 28.8147 8.11189 28.7742 9.50327C28.7337 10.9063 28.3666 11.1299 28.0863 11.249C27.9302 11.3129 27.5487 11.3768 27.5487 11.3768C27.5487 11.3768 27.381 12.7392 27.1556 13.0529C27.0197 13.2446 26.3983 13.2678 25.7421 12.9948C25.0831 12.7218 25.0918 12.4836 25.0918 12.4836C25.0918 12.4836 25.4444 11.4814 25.4011 10.7088C25.349 9.75308 25.0918 9.22151 25.2884 8.31232C25.5022 7.3247 26.7654 6.72051 27.829 7.35085L27.8319 7.34794Z" fill="#FFD0CA"/>
<path d="M27.7717 15.6122C27.7717 15.6122 30.2777 14.4387 32.1825 13.3494C34.0873 12.2601 34.8503 10.7002 36.2233 8.70466C36.5239 8.26604 36.9488 8.03656 37.2494 7.74028C37.9604 7.03733 38.1425 6.55804 38.1714 6.19785C38.1946 5.88704 38.1194 5.64885 37.9518 5.60237C37.7119 5.53556 37.3159 5.90737 37.0846 6.17461C36.8563 6.43604 36.4921 6.7149 36.4921 6.7149C36.4921 6.7149 36.2609 6.03228 35.9256 5.97128C35.4487 5.88414 35.8793 6.30533 35.8996 6.44766C35.9834 6.99085 35.94 7.24356 35.6047 7.67637C34.7868 8.73661 32.9629 10.4795 32.1941 11.0343C31.4281 11.5891 29.0984 11.7547 28.1272 12.4024C27.3988 12.8875 26.6127 14.1453 26.656 15.3159C26.6705 15.708 27.1445 15.7865 27.7659 15.6093L27.7717 15.6122Z" fill="#FFD0CA"/>
<path d="M30.5538 13.4596C30.5452 12.6404 30.1781 12.0943 29.5826 11.7371C29.5191 11.7545 29.4555 11.7719 29.3919 11.7893C28.4987 12.0333 27.2819 12.533 27.2819 12.533C27.2819 12.533 26.7789 12.8147 26.1951 14.0202C25.6083 15.2257 26.0274 16.0942 26.935 16.1058C27.7097 16.1174 29.1231 15.3767 30.2763 14.6883C30.4324 14.2991 30.5625 13.9011 30.5567 13.4596H30.5538Z" fill="url(#paint9_linear_249_15797)"/>
<path d="M28.7769 7.92034C28.7537 8.42286 28.1294 8.78014 28.1583 9.15776C28.1872 9.53538 28.1728 9.86943 27.9011 10.2006C27.2652 10.9761 27.719 11.6791 27.9531 11.8127C28.3924 12.0625 28.8607 11.8708 28.8607 11.8708C28.8607 11.8708 28.6034 12.3995 28.1294 12.3995C27.6554 12.3995 27.427 12.2978 27.427 12.2978C27.427 12.2978 27.9357 12.9775 27.7045 13.4132C27.4733 13.8519 26.6351 13.91 26.4183 14.1336C25.95 14.6187 26.1986 15.1038 26.1986 15.1038C26.1986 15.1038 25.7014 14.7378 25.5396 14.3544C25.3864 13.9884 25.6118 13.5323 25.6118 13.5323C25.6118 13.5323 25.1378 13.9797 24.7794 13.9303C24.2533 13.8577 24.1666 13.6805 24.1666 13.6805C24.1666 13.6805 24.9037 13.6369 25.0684 13.1053C25.1147 12.9572 24.8748 12.7422 24.5713 12.8642C23.7417 13.1954 23.7331 12.8555 23.4932 13.0037C23.2995 13.1228 23.2446 13.5614 23.2446 13.5614C23.2446 13.5614 23.0162 13.2477 23.0683 12.8555C23.1405 12.3123 24.0337 11.958 24.0337 11.958C24.0337 11.958 23.4527 12.1526 23.2157 11.7953C23.0105 11.4874 23.1723 11.2666 23.0538 11.0313C22.7474 10.4184 21.9121 11.2666 21.9121 11.2666C21.9121 11.2666 21.9121 10.5172 22.8255 10.2151C23.1087 10.1221 23.4932 10.2964 23.7706 10.1367C24.6898 9.608 24.0308 8.28634 24.5453 7.41781C25.1205 6.44762 26.1986 6.66838 26.1986 6.66838C26.1986 6.66838 26.6726 6.31981 27.2247 6.36048C28.2739 6.4331 28.8115 7.13895 28.774 7.91743L28.7769 7.92034Z" fill="url(#paint10_linear_249_15797)"/>
<path d="M6.95227 12.7393C6.90314 12.4401 6.92626 12.2223 6.86267 12.0654C6.88001 12.199 6.52738 12.4895 5.9204 12.5767C5.30763 12.6638 4.46941 12.7974 4.1081 12.8846C3.74969 12.9717 2.95772 13.5004 2.36807 14.1656C2.08481 14.4822 1.85358 14.642 1.64258 14.7088C1.71773 14.7436 1.79288 14.7698 1.86514 14.7901C2.26113 14.8976 2.87679 14.6942 3.33636 14.5258C3.40284 13.8809 4.23817 13.7299 4.63994 13.5846C5.04171 13.4365 6.19209 13.4975 6.86556 13.2012C6.92337 13.175 6.96673 13.1373 7.0043 13.0937C6.98696 12.9543 6.96962 12.8294 6.95516 12.7364L6.95227 12.7393Z" fill="url(#paint11_linear_249_15797)"/>
<path d="M2.36652 14.1655C2.95905 13.5032 3.74814 12.9745 4.10655 12.8845C4.46496 12.7973 5.30318 12.6637 5.91884 12.5766C6.52583 12.4894 6.87846 12.1989 6.86112 12.0653C6.81487 11.952 6.72238 11.8707 6.51138 11.8213C6.01422 11.7051 5.57488 12.0566 5.19624 12.1728C4.8147 12.289 4.41582 12.2048 3.47933 12.3819C2.54283 12.5591 1.91272 12.9368 1.41557 13.6426C1.00513 14.2236 1.29706 14.5518 1.64102 14.7116C1.85202 14.6448 2.08615 14.485 2.36652 14.1684V14.1655Z" fill="url(#paint12_linear_249_15797)"/>
<path d="M2.36652 14.1655C2.95905 13.5032 3.70767 13.2621 4.03718 13.0936C4.44762 12.8845 5.30318 12.6637 5.91884 12.5766C6.52583 12.4894 6.87846 12.1989 6.86112 12.0653C6.81487 11.952 6.72238 11.8707 6.51138 11.8213C6.01422 11.7051 5.57488 12.0566 5.19624 12.1728C4.8147 12.289 4.41582 12.2048 3.47933 12.3819C2.54283 12.5591 1.91272 12.9368 1.41557 13.6426C1.00513 14.2236 1.29706 14.5518 1.64102 14.7116C1.85202 14.6448 2.08615 14.485 2.36652 14.1684V14.1655Z" fill="#C67D04"/>
<path opacity="0.5" d="M20.7812 16.2773C20.7812 16.2773 21.527 16.9745 22.0386 17.4886C22.5502 18.0028 22.9491 18.1422 22.9491 18.1422C22.9491 18.1422 22.7381 17.6484 22.2496 17.1894C21.4027 16.3877 20.7812 16.2773 20.7812 16.2773Z" fill="url(#paint13_linear_249_15797)"/>
<path opacity="0.5" d="M21.8652 16.2773C21.8652 16.2773 22.4636 16.6288 22.9491 16.7973C23.4318 16.9658 23.8249 16.9367 23.8249 16.9367C23.8249 16.9367 23.3885 16.6985 22.9491 16.5446C22.5127 16.3906 21.8652 16.2773 21.8652 16.2773Z" fill="url(#paint14_linear_249_15797)"/>
</g>
<defs>
<filter id="filter0_f_249_15797" x="-1.69336" y="0.365967" width="40.3223" height="36.6372" filterUnits="userSpaceOnUse" color-interpolation-filters="sRGB">
<feFlood flood-opacity="0" result="BackgroundImageFix"/>
<feBlend mode="normal" in="SourceGraphic" in2="BackgroundImageFix" result="shape"/>
<feGaussianBlur stdDeviation="2" result="effect1_foregroundBlur_249_15797"/>
</filter>
<linearGradient id="paint0_linear_249_15797" x1="35.9569" y1="3.97845" x2="9.71749" y2="20.9786" gradientUnits="userSpaceOnUse">
<stop stop-color="#881AAE"/>
<stop offset="1" stop-color="#BA6CCD" stop-opacity="0"/>
</linearGradient>
<radialGradient id="paint1_radial_249_15797" cx="0" cy="0" r="1" gradientUnits="userSpaceOnUse" gradientTransform="translate(25 13.5) scale(10)">
<stop stop-color="#FFFF12"/>
<stop offset="0.13" stop-color="#FF9412"/>
<stop offset="0.15" stop-color="#F28C11"/>
<stop offset="0.21" stop-color="#C06F0D"/>
<stop offset="0.28" stop-color="#92550A"/>
<stop offset="0.35" stop-color="#6B3E07"/>
<stop offset="0.43" stop-color="#492A05"/>
<stop offset="0.51" stop-color="#2E1B03"/>
<stop offset="0.6" stop-color="#190F01"/>
<stop offset="0.7" stop-color="#0B0600"/>
<stop offset="0.82" stop-color="#020100"/>
<stop offset="1"/>
</radialGradient>
<linearGradient id="paint2_linear_249_15797" x1="6.27718" y1="15.8705" x2="6.27718" y2="13.6774" gradientUnits="userSpaceOnUse">
<stop stop-color="#6418EA"/>
<stop offset="1" stop-color="#6039E4"/>
</linearGradient>
<linearGradient id="paint3_linear_249_15797" x1="9.40167" y1="19.8414" x2="9.40167" y2="17.9242" gradientUnits="userSpaceOnUse">
<stop stop-color="#6418EA"/>
<stop offset="1" stop-color="#6F4DE4"/>
</linearGradient>
<linearGradient id="paint4_linear_249_15797" x1="27.7262" y1="13.3283" x2="27.7262" y2="21.3568" gradientUnits="userSpaceOnUse">
<stop stop-color="#FFC700"/>
<stop offset="1" stop-color="#FF8A00"/>
</linearGradient>
<linearGradient id="paint5_linear_249_15797" x1="15.6485" y1="18.5896" x2="22.0594" y2="18.5896" gradientUnits="userSpaceOnUse">
<stop stop-color="#BD86EA"/>
<stop offset="1" stop-color="#9F73E4"/>
</linearGradient>
<linearGradient id="paint6_linear_249_15797" x1="25.3236" y1="11.2345" x2="20.7719" y2="6.70529" gradientUnits="userSpaceOnUse">
<stop stop-color="#BD86EA"/>
<stop offset="1" stop-color="#A98EE4"/>
</linearGradient>
<linearGradient id="paint7_linear_249_15797" x1="4.32066" y1="17.2939" x2="10.1073" y2="17.2939" gradientUnits="userSpaceOnUse">
<stop stop-color="#EA3AFE"/>
<stop offset="0.99" stop-color="#FB67FD"/>
</linearGradient>
<linearGradient id="paint8_linear_249_15797" x1="22.4325" y1="23.6816" x2="22.4325" y2="10.4185" gradientUnits="userSpaceOnUse">
<stop stop-color="#D8A1FE"/>
<stop offset="0.18" stop-color="#DBA8FE"/>
<stop offset="0.44" stop-color="#E4BEFE"/>
<stop offset="0.76" stop-color="#F2E0FE"/>
<stop offset="1" stop-color="white"/>
</linearGradient>
<linearGradient id="paint9_linear_249_15797" x1="25.1516" y1="13.9214" x2="36.352" y2="13.9214" gradientUnits="userSpaceOnUse">
<stop stop-color="#BD86EA"/>
<stop offset="1" stop-color="#A98EE4"/>
</linearGradient>
<linearGradient id="paint10_linear_249_15797" x1="25.3893" y1="6.36048" x2="25.3893" y2="15.1067" gradientUnits="userSpaceOnUse">
<stop stop-color="#3D0693"/>
<stop offset="1" stop-color="#40005A"/>
</linearGradient>
<linearGradient id="paint11_linear_249_15797" x1="4.32344" y1="11.4227" x2="4.32344" y2="15.3251" gradientUnits="userSpaceOnUse">
<stop stop-color="#FFC700"/>
<stop offset="1" stop-color="#FF8A00"/>
</linearGradient>
<linearGradient id="paint12_linear_249_15797" x1="1.21613" y1="13.2534" x2="6.99986" y2="13.2534" gradientUnits="userSpaceOnUse">
<stop stop-color="#EA3AFE"/>
<stop offset="0.99" stop-color="#FB67FD"/>
</linearGradient>
<linearGradient id="paint13_linear_249_15797" x1="21.8652" y1="18.1422" x2="21.8652" y2="16.2773" gradientUnits="userSpaceOnUse">
<stop stop-color="#BD86EA"/>
<stop offset="1" stop-color="#6F4DE4"/>
</linearGradient>
<linearGradient id="paint14_linear_249_15797" x1="22.8422" y1="16.9367" x2="22.8422" y2="2.50005" gradientUnits="userSpaceOnUse">
<stop stop-color="#BD86EA"/>
<stop offset="1" stop-color="#6F4DE4"/>
</linearGradient>
<clipPath id="clip0_249_15797">
<rect width="36.9569" height="25.8698" fill="white" transform="translate(1.2168 2.5)"/>
</clipPath>
</defs>
</svg>
