<svg width="37" height="40" viewBox="0 0 37 40" fill="none" xmlns="http://www.w3.org/2000/svg">
<path d="M20.9995 9.01766C20.9995 9.01766 20.1451 8.46134 19.2563 7.84664C18.5879 7.38305 18.457 7.22508 17.761 6.44555C17.5337 6.18799 17.2649 5.84802 16.8549 5.4428C15.5492 4.15502 14.9842 2.92563 14.3262 2.74362C13.6681 2.56162 12.6414 2.41395 12.3383 2.28002C12.0351 2.1461 11.7388 2.39678 11.9765 2.51698C12.2142 2.63717 12.4382 2.71272 12.4382 2.71272C12.4382 2.71272 11.7457 3.02865 11.8938 3.18662C12.0247 3.32741 12.3245 3.2656 12.607 3.1145C12.3589 3.62274 13.0239 3.31711 13.2926 3.38579C13.6785 3.95241 14.4709 3.83222 14.4709 3.83222C14.4709 3.83222 15.1117 5.18524 15.8489 6.26354C16.1314 6.67563 16.6034 6.92632 16.9101 7.24912C17.4131 7.77796 17.6784 8.24843 18.3226 9.00392C18.991 9.78689 19.27 9.97233 20.6481 10.9098C22.0262 11.8473 21.723 9.50186 20.9927 9.0211L20.9995 9.01766Z" fill="#FFB9A4"/>
<path d="M27.5188 24.9177C27.5463 25.6938 28.3387 25.8586 28.0666 26.3634C27.7014 27.0399 27.6118 27.2563 27.5808 27.4967C27.3948 29.018 27.319 28.9356 26.9503 28.8085C26.6678 28.7123 26.4404 28.0976 26.4129 27.0606C26.3888 26.2398 26.6368 25.6457 26.6334 24.6292C26.6299 22.8676 26.3681 20.7075 26.1889 20.1203C25.8892 19.1347 25.1691 14.9005 24.959 13.7261C25.9684 13.9115 27.1467 12.7199 27.6945 12.7405C27.5429 13.8463 27.6704 19.2824 27.6704 19.2824C27.6704 19.2824 28.3112 20.2233 28.0149 21.8373C27.8426 22.7714 27.4878 24.1553 27.5153 24.9143L27.5188 24.9177Z" fill="#FFB9A4"/>
<path d="M20.7344 8.69525C20.7344 8.69525 21.0755 10.2097 21.0755 11.0132C21.0755 11.8202 21.3476 12.0984 21.8024 12.2873C22.2537 12.4762 22.7498 12.4865 23.8316 12.8642C24.6309 13.1424 24.7722 13.3827 25.4302 14.0283C25.7782 14.3683 27.2941 12.356 27.2941 12.356C27.2665 12.5586 26.4224 11.8992 25.8609 10.7866C25.6955 10.4604 25.3716 9.85939 24.9031 9.35459C24.1314 8.52011 23.3906 8.83604 23.0599 8.76736C22.5845 8.66434 22.0367 8.55101 21.5681 8.43082C20.9308 8.26942 20.7413 8.69868 20.7413 8.69868L20.7344 8.69525Z" fill="#FFC9B6"/>
<path d="M21.9807 8.04933C22.0358 8.0562 22.2873 8.30689 22.4975 8.45112C22.8696 8.70867 23.1728 8.80483 23.1728 8.80483C23.1728 8.80483 22.9454 9.32337 22.625 9.68051C22.3011 10.0377 21.9325 10.3742 21.619 10.2437C21.3089 10.1132 21.1918 9.90029 20.9747 9.2959C20.7577 8.6915 20.6543 8.48202 20.6543 8.48202L21.9842 8.0459L21.9807 8.04933Z" fill="#FFB9A4"/>
<path d="M20.3344 6.1952C19.5799 6.43215 19.6453 7.87789 19.914 8.72267C20.0105 9.0283 20.2413 9.28929 20.4274 9.35797C21.3473 9.68421 22.3223 8.56814 22.3912 7.57226C22.4601 6.55234 21.3783 5.86553 20.3309 6.19863L20.3344 6.1952Z" fill="#FFC9B6"/>
<path d="M21.7683 5.93739C21.41 5.75195 19.5875 5.78629 19.7046 7.34536C20.0009 6.59673 21.317 6.49028 21.7166 7.60635C21.8062 7.92915 21.9337 8.22448 22.2059 8.54042C22.5986 7.59948 22.8053 6.47654 21.7683 5.94083V5.93739Z" fill="#621994"/>
<path d="M21.7437 7.87109C21.7437 7.87109 21.9538 7.56889 22.0985 7.72686C22.3742 8.02562 21.9814 8.39994 21.9814 8.39994L21.7402 7.87109H21.7437Z" fill="#FFC9B6"/>
<path d="M23.9116 8.25898C24.5868 7.7267 25.5067 7.33865 26.0752 6.74799C26.2957 6.51791 26.6643 5.9822 27.0329 5.59415C28.2043 4.35445 28.635 3.26929 29.2413 3.08041C29.8477 2.89154 30.7986 2.71984 31.0742 2.58591C31.3498 2.45198 31.6358 2.67519 31.4187 2.79195C31.2017 2.91214 30.9984 2.99113 30.9984 2.99113C30.9984 2.99113 31.653 3.26242 31.5221 3.41352C31.4049 3.54745 31.1224 3.5028 30.8537 3.36887C31.1018 3.83247 30.4713 3.57148 30.2232 3.6436C29.8821 4.18275 29.1414 4.0969 29.1414 4.0969C29.1414 4.0969 28.5075 5.27822 27.8598 6.305C27.6117 6.69992 27.2603 7.04332 26.9847 7.35582C26.5334 7.86407 26.182 8.46159 25.6066 9.18618C25.0106 9.93824 24.673 10.4808 24.3319 10.7349C23.0882 11.6656 22.0339 9.7425 23.915 8.25898H23.9116Z" fill="#FFC9B6"/>
<path d="M28.9312 14.1417C30.1233 13.5029 31.174 11.1643 31.8218 8.53385C33.0069 6.22272 33.0035 5.94799 33.565 4.83192C34.1232 3.71585 34.733 2.73027 35.36 1.67258C35.9319 0.704175 36.1455 0.309258 35.9147 0.110082C35.6838 -0.0856597 35.6218 0.00362597 35.3979 0.250879C35.174 0.498131 34.7467 1.33261 34.4332 1.37038C34.1197 1.40816 33.7304 1.56956 33.6753 1.78591C33.6202 2.00569 33.5547 2.64099 33.4686 2.80582C33.3824 2.97066 32.2007 4.42327 31.6013 5.0414C31.0018 5.65953 30.7951 7.05033 30.6538 7.24951C30.5126 7.44525 28.3524 9.78384 27.3292 11.4768C26.7469 12.4384 26.5885 13.8738 27.1569 14.2619C27.5945 14.5606 28.5832 14.334 28.9381 14.1451L28.9312 14.1417Z" fill="#FFC9B6"/>
<path d="M24.6035 13.2522C24.6035 13.2522 25.0204 16.1917 25.1892 17.3216C25.358 18.4548 25.6509 20.8071 25.6509 20.8071C25.6509 20.8071 28.3933 20.3195 29.0961 19.6086C31.5319 17.1567 30.0642 15.1031 30.6947 13.8463C31.3251 12.5894 31.8281 10.8895 31.5353 9.58117C31.2425 8.27279 30.047 7.68213 30.047 7.68213C30.047 7.68213 27.9385 11.0853 26.7947 11.4184C25.6509 11.7515 24.6035 13.2522 24.6035 13.2522Z" fill="#7D44F3"/>
<path d="M21.0749 11.0133C21.4263 11.1266 22.2084 12.0195 22.2084 12.0195C22.2084 12.0195 22.0568 11.446 22.5736 11.2296C23.2868 10.9343 23.807 11.2983 24.5512 11.2365C25.1989 11.1816 25.8569 10.7832 25.8569 10.7832C25.8569 10.7832 26.6217 11.573 27.4004 11.1575C27.8345 11.573 28.1514 14.1245 26.8216 14.2825C25.2264 14.4714 23.5038 13.3347 22.8148 12.9638C22.1843 12.9055 21.7984 12.696 21.5125 12.4762C20.9199 12.0229 21.0749 11.0133 21.0749 11.0133Z" fill="#9C63F7"/>
<path d="M20.7344 6.30479C20.7344 6.30479 22.2124 7.153 22.3915 7.56852C22.6534 8.17635 22.3777 8.70863 22.302 9.29586C22.2262 9.88308 22.5259 10.2128 22.5259 10.2128C22.5259 10.2128 22.4983 9.69421 22.6258 9.29586C22.7533 8.89751 22.8084 8.63995 22.8084 8.63995C22.8084 8.63995 22.9634 9.3302 23.1736 9.41262C23.3838 9.49504 23.7489 9.41262 23.7489 9.41262C23.7489 9.41262 23.401 9.23405 23.2322 8.81852C23.1529 8.62622 23.1633 8.2313 23.177 8.04929C23.2184 7.47924 23.4079 6.36317 23.053 5.86179C22.5328 5.13377 21.9781 5.07883 21.4544 5.46001C21.0548 5.7519 20.7413 6.30822 20.7413 6.30822L20.7344 6.30479Z" fill="#621994"/>
<path d="M15.8834 33.8086C15.3735 33.7846 14.0988 34.0662 13.6647 34.1486C13.4786 34.4061 13.1169 34.6122 12.8895 34.7049C12.6931 34.7873 12.4657 34.8217 12.259 34.7942C12.2694 35.0105 12.2728 35.1857 12.2625 35.2853C12.1694 36.3464 12.8516 36.1781 13.4614 36.0476C13.768 35.9824 14.1505 35.7351 14.5777 35.4432C15.3494 35.2853 15.8248 34.8835 16.3933 34.5263C16.8308 34.2516 16.5414 33.8395 15.8834 33.8052V33.8086Z" fill="#FFB9A4"/>
<path d="M12.8591 27.8948C12.8591 27.8948 12.4732 28.4442 12.1838 29.9999C12.0426 30.7588 12.0426 33.3549 12.1321 34.8007C12.3836 34.89 12.9349 35.0445 13.2449 34.8831C13.4448 34.7801 13.5963 34.6358 13.7548 34.4916C13.7996 33.8117 13.9099 32.9841 13.965 31.813C14.027 30.5527 14.2509 30.12 14.3164 29.0383C14.7057 28.3309 14.8194 28.1764 14.7539 27.1702C15.0537 26.5211 15.0227 25.6935 15.3637 23.5747C15.791 20.9408 15.2811 18.7808 15.2811 18.7808L13.4275 19.5157C13.4275 19.5157 12.3767 19.8522 12.0839 21.6345C11.9978 22.1633 12.3905 21.8955 12.4629 22.7505C11.6877 24.3577 12.8625 27.8913 12.8625 27.8913L12.8591 27.8948Z" fill="#431075"/>
<path d="M7.56993 35.2607C7.42867 35.8171 6.99457 35.872 6.92912 35.8995C6.23318 36.2017 6.27797 36.8404 6.55359 37.2765C6.02647 38.4785 5.81975 40.0238 6.47435 39.9963C6.99458 39.9757 7.38044 39.3473 7.63539 38.4819C7.89033 37.6096 8.35888 36.2051 8.53114 35.69C8.32099 35.6282 7.74563 35.4256 7.57337 35.2607H7.56993Z" fill="#FFC9B6"/>
<path d="M11.5943 20.4739C11.3635 21.0164 10.6297 21.7307 10.6814 23.0666C8.88295 25.4395 9.43074 29.4848 9.43074 29.4848C9.43074 29.4848 7.75981 30.7005 7.69779 32.0329C7.63923 33.2451 7.62545 34.1346 7.32227 35.7314C7.4773 35.8619 7.64956 35.9718 7.82527 36.0611C8.0182 36.1572 8.19735 36.2019 8.3765 36.2328C8.4144 36.1092 8.44885 35.989 8.47986 35.8791C8.63489 35.2609 8.91051 34.763 9.46175 33.671C10.1232 32.3592 10.8054 30.7761 10.8846 29.9347C11.9836 28.9354 12.6624 24.2582 12.6624 24.2582C12.6624 24.2582 13.4479 23.8015 13.9026 23.355C14.3574 22.9052 14.4366 20.9649 14.4366 20.9649C14.4366 20.9649 12.4935 18.3962 11.6012 20.4739H11.5943Z" fill="#621994"/>
<path d="M15.2566 14.4436C15.2566 14.4436 15.5839 13.8323 15.6494 13.1146C15.9629 11.868 16.1696 10.5253 16.2592 8.54042C16.0077 6.42847 15.5598 4.07957 15.5598 4.07957L14.8088 3.97998C14.8088 3.97998 14.6537 6.64482 15.0396 8.27256C14.5779 9.78012 13.8613 12.3866 13.8613 12.3866L15.2566 14.4401V14.4436Z" fill="#FFB9A4"/>
<path d="M14.5329 12.6475C14.5329 12.6475 14.1953 13.0115 13.6957 13.0664C13.1961 13.1214 12.4106 13.4545 11.6527 13.9696C10.8947 14.4847 10.4779 14.7148 11.0739 16.3185C11.6699 17.9222 11.6527 18.3171 11.5941 19.0383C11.005 19.8418 10.5605 21.3666 10.5605 21.3666C10.5605 21.3666 12.0971 22.2457 13.4029 22.2457C14.5777 22.2457 15.4769 21.3494 15.4769 21.3494C15.4769 21.3494 15.5492 18.4613 15.6491 16.5692C16.3382 15.0238 14.5329 12.6475 14.5329 12.6475Z" fill="#FF6F43"/>
<path d="M14.0296 12.5138C14.0296 12.5138 14.4293 13.4513 14.5051 14.0695C14.6429 15.2096 13.7712 15.2267 13.2889 14.746C12.6412 14.1038 12.1348 13.7226 12.1348 13.7226C12.1348 13.7226 12.4827 13.5097 12.3932 12.6546C12.6171 12.167 14.0296 12.5173 14.0296 12.5173V12.5138Z" fill="#FFB9A4"/>
<path d="M14.2153 10.2609C14.9663 10.4189 15.0456 11.8234 14.8699 12.6648C14.8044 12.9704 14.4461 13.252 14.0878 13.252C13.1369 13.252 12.6442 12.5102 12.4823 11.5556C12.3135 10.5734 13.1679 10.0446 14.2153 10.2609Z" fill="#FFC9B6"/>
<path d="M13.7403 11.4872C13.7403 11.4872 14.5672 11.264 14.6705 10.6012C14.8118 10.3608 14.922 9.61905 14.6705 9.48512C14.419 9.35119 13.9436 9.55723 13.9436 9.55723C13.9436 9.55723 13.1236 8.87385 12.3416 9.7152C11.7869 10.3127 11.2632 10.8965 11.718 11.9817C11.9006 12.4144 12.1314 12.5449 12.3381 13.0291C13.444 13.0291 13.7369 11.4872 13.7369 11.4872H13.7403Z" fill="#621994"/>
<path d="M13.9569 11.7513C13.9569 11.7513 13.7674 11.0954 13.4333 11.6277C13.0991 12.1566 13.7158 12.6511 13.7158 12.6511L13.9569 11.7548V11.7513Z" fill="#FFC9B6"/>
<path d="M15.0388 2.15682C14.5702 1.64171 14.298 1.4494 14.1396 1.44254C13.8329 1.43223 14.4117 1.94734 14.4117 1.94734C14.4117 1.94734 13.957 1.65888 13.8708 1.8821C13.7847 2.10531 14.3084 2.2358 14.46 2.56204C14.5151 2.68223 14.8389 3.20765 14.5943 3.10806C14.3497 3.00847 14.4703 2.78182 14.1809 2.73718C13.8915 2.69254 13.8881 2.92262 14.0638 2.98786C14.1499 3.01877 14.329 3.6369 14.7149 3.89102C14.8252 4.0799 14.7942 4.24817 14.9216 4.34432C15.1318 4.49885 15.5624 4.45765 15.5624 4.27221C15.5624 3.61286 15.5108 2.67193 15.0388 2.15682Z" fill="#FFB9A4"/>
<path d="M11.4912 14.2581C10.3371 14.2925 8.39744 16.8028 8.39744 16.8028C8.39744 16.8028 7.58437 17.0638 6.2614 17.8673C4.93844 18.6709 3.19171 19.9278 3.19171 19.9278C2.96433 20.0033 2.70593 20.1166 2.38897 20.3124C1.67237 20.7554 0.904084 21.0953 1.00744 21.1778C1.10735 21.2602 1.61724 21.3289 1.61724 21.3289C1.61724 21.3289 1.29684 21.5315 1.42087 21.5933C1.54834 21.6551 1.87564 21.5624 2.36141 21.14C2.54056 20.9855 2.70249 20.8275 2.97122 20.776C3.24339 20.7245 3.32263 20.8687 3.12625 21.1366C2.92987 21.4044 2.85063 21.8028 3.02979 21.8268C3.31574 21.868 3.3054 21.5658 3.65682 21.2121C3.991 20.8721 3.95655 20.594 4.16671 20.3845C4.39065 20.1578 4.8971 20.0274 5.15549 19.9312C5.59648 19.7698 5.98923 19.6702 6.74718 19.4642C8.39055 19.0177 8.45601 18.7361 8.97968 18.4133C9.51369 18.0837 10.1993 17.5754 11.1123 17.0947C11.3948 17.3659 11.6566 17.7815 11.7359 17.7643C12.1079 17.6784 12.6178 17.0122 12.5765 16.1503C12.5317 15.2574 12.2113 14.2375 11.4878 14.2581H11.4912Z" fill="#FFC9B6"/>
</svg>
