<svg width="32" height="32" viewBox="0 0 32 32" fill="none" xmlns="http://www.w3.org/2000/svg">
<path d="M16 0.0625C12.8479 0.0625 9.76651 0.997218 7.14561 2.74845C4.5247 4.49969 2.48195 6.98879 1.27568 9.90098C0.0694052 12.8132 -0.24621 16.0177 0.368742 19.1093C0.983694 22.2008 2.50159 25.0406 4.73049 27.2695C6.95939 29.4984 9.79918 31.0163 12.8908 31.6313C15.9823 32.2462 19.1868 31.9306 22.099 30.7243C25.0112 29.5181 27.5003 27.4753 29.2516 24.8544C31.0028 22.2335 31.9375 19.1521 31.9375 16C31.9325 11.7746 30.2518 7.72375 27.264 4.73597C24.2763 1.74818 20.2254 0.0674623 16 0.0625ZM16 30.0625C13.2187 30.0625 10.4999 29.2377 8.1873 27.6925C5.87473 26.1473 4.07231 23.9511 3.00795 21.3815C1.94359 18.8119 1.66511 15.9844 2.20771 13.2565C2.75032 10.5287 4.08964 8.02299 6.05632 6.05631C8.02299 4.08963 10.5287 2.75031 13.2565 2.20771C15.9844 1.6651 18.8119 1.94359 21.3815 3.00794C23.9511 4.0723 26.1473 5.87473 27.6925 8.18729C29.2378 10.4999 30.0625 13.2187 30.0625 16C30.0584 19.7283 28.5755 23.3028 25.9391 25.9391C23.3028 28.5755 19.7283 30.0584 16 30.0625ZM23.3719 15.2047L13.3719 8.95469C13.2299 8.86598 13.0669 8.81688 12.8995 8.81251C12.7322 8.80813 12.5668 8.84862 12.4204 8.92978C12.274 9.01095 12.152 9.12982 12.0671 9.27405C11.9822 9.41829 11.9375 9.58263 11.9375 9.75V22.25C11.9375 22.4174 11.9822 22.5817 12.0671 22.7259C12.152 22.8702 12.274 22.9891 12.4204 23.0702C12.5668 23.1514 12.7322 23.1919 12.8995 23.1875C13.0669 23.1831 13.2299 23.134 13.3719 23.0453L23.3719 16.7953C23.5069 16.7111 23.6182 16.5939 23.6953 16.4547C23.7725 16.3156 23.813 16.1591 23.813 16C23.813 15.8409 23.7725 15.6844 23.6953 15.5453C23.6182 15.4061 23.5069 15.2889 23.3719 15.2047ZM13.8125 20.5578V11.4422L21.1063 16L13.8125 20.5578Z" fill="#F9F8F8"/>
</svg>
