<svg width="28" height="25" viewBox="0 0 28 25" fill="none" xmlns="http://www.w3.org/2000/svg">
<path d="M1.69211 10.9381C1.69211 10.9381 13.8989 5.79679 18.1324 3.98641C19.7554 3.26232 25.259 0.945026 25.259 0.945026C25.259 0.945026 27.7992 -0.0687022 27.5875 2.39331C27.5169 3.40714 26.9524 6.95534 26.388 10.7933C25.5412 16.2243 24.6239 22.1622 24.6239 22.1622C24.6239 22.1622 24.4828 23.8277 23.2833 24.1174C22.0838 24.407 20.1081 23.1036 19.7554 22.8139C19.4731 22.5967 14.4634 19.3381 12.6288 17.745C12.1349 17.3105 11.5705 16.4416 12.6993 15.4278C15.2395 13.0381 18.2736 10.0692 20.1081 8.18645C20.9549 7.31744 21.8015 5.28988 18.2736 7.75189C13.2639 11.3002 8.32471 14.6312 8.32471 14.6312C8.32471 14.6312 7.19573 15.3553 5.07897 14.7036C2.96211 14.0519 0.49252 13.1829 0.49252 13.1829C0.49252 13.1829 -1.20081 12.0967 1.69211 10.9381Z" fill="white"/>
</svg>
