<svg width="30" height="25" viewBox="0 0 30 25" fill="none" xmlns="http://www.w3.org/2000/svg">
<path fill-rule="evenodd" clip-rule="evenodd" d="M2.54625 11.117C10.2981 7.73966 15.4672 5.5131 18.0536 4.43734C25.4382 1.36582 26.9727 0.832259 27.9729 0.814641C28.1928 0.810766 28.6847 0.865281 29.0033 1.1238C29.2723 1.34208 29.3463 1.63696 29.3817 1.84392C29.4171 2.05088 29.4612 2.52234 29.4262 2.89072C29.026 7.0954 27.2944 17.2991 26.4135 22.0084C26.0408 24.0011 25.3068 24.6692 24.5963 24.7346C23.0521 24.8767 21.8795 23.7141 20.3838 22.7337C18.0435 21.1995 16.7213 20.2445 14.4496 18.7475C11.8242 17.0174 13.5261 16.0665 15.0223 14.5125C15.4139 14.1058 22.2177 7.91728 22.3493 7.35588C22.3658 7.28567 22.3811 7.02395 22.2256 6.88575C22.0701 6.74756 21.8407 6.79482 21.6751 6.8324C21.4403 6.88567 17.7016 9.35686 10.4588 14.2459C9.39753 14.9747 8.43629 15.3297 7.57506 15.3111C6.62562 15.2906 4.79928 14.7743 3.44158 14.333C1.77631 13.7916 0.452782 13.5055 0.568031 12.5861C0.62806 12.1073 1.28746 11.6176 2.54625 11.117Z" fill="url(#paint0_linear_1491_600)"/>
<defs>
<linearGradient id="paint0_linear_1491_600" x1="15" y1="0.814453" x2="15" y2="24.5689" gradientUnits="userSpaceOnUse">
<stop stop-color="#2AABEE"/>
<stop offset="1" stop-color="#229ED9"/>
</linearGradient>
</defs>
</svg>
