<svg width="31" height="27" viewBox="0 0 31 27" fill="none" xmlns="http://www.w3.org/2000/svg">
<path d="M15.5249 17.3843V23.3987L8.90234 19.5637V13.5493L15.5249 17.3843Z" fill="#4A227E"/>
<path d="M27.717 10.3506L23.3751 12.851L22.8739 13.1438L15.5249 17.3843L8.90234 13.5493L21.0888 6.51562L27.717 10.3506Z" fill="#646464"/>
<path d="M27.7175 10.3506L15.5254 17.3843V23.3986L27.7175 16.365V10.3506Z" fill="#6A32B5"/>
<path d="M30.9957 6.76911C31.0576 5.67661 30.365 4.29691 29.4471 3.69434C29.1993 3.53103 28.9515 3.4353 28.7319 3.42403C28.5854 3.41277 28.4559 3.44656 28.3377 3.50287L27.9941 3.67745L28.2194 3.86892L28.4278 3.77318C28.3827 3.90834 28.3546 4.06039 28.3433 4.22933C28.2813 5.32183 28.974 6.70153 29.8919 7.30409C29.9426 7.33788 29.9933 7.36604 30.044 7.3942L30.089 7.9686L30.4945 7.75461C30.7817 7.60256 30.9675 7.25904 30.9957 6.76911Z" fill="url(#paint0_linear_774_45901)"/>
<path d="M29.7293 8.02482C29.5097 8.01356 29.2619 7.91782 29.0141 7.75451C28.0962 7.14632 27.3979 5.76662 27.4655 4.67975C27.5049 3.98708 27.854 3.58162 28.3665 3.60977C28.5861 3.62104 28.8339 3.71677 29.0817 3.88008C29.9996 4.48828 30.6979 5.86798 30.6303 6.95485C30.5909 7.64752 30.2418 8.05298 29.7293 8.02482Z" fill="#202024"/>
<path d="M30.0763 6.80827C30.127 5.97482 29.592 4.91611 28.8881 4.45433C28.6966 4.33044 28.5108 4.25723 28.3362 4.24597C28.2236 4.24034 28.1222 4.26286 28.0377 4.30791L24.4336 6.40844L24.6025 6.55486L24.7602 6.48165C24.7264 6.58301 24.7039 6.70127 24.6983 6.8308C24.6476 7.66425 25.1826 8.72296 25.8865 9.18474C25.9259 9.2129 25.9653 9.22979 25.9991 9.25232L26.0329 9.69157L29.6877 7.56288C29.9074 7.45026 30.0481 7.18558 30.0707 6.80827H30.0763Z" fill="url(#paint1_linear_774_45901)"/>
<path d="M25.7682 9.73695C25.5992 9.72568 25.4078 9.65811 25.2163 9.52858C24.5124 9.0668 23.983 8.00809 24.0281 7.17464C24.0619 6.64529 24.3265 6.33556 24.7207 6.35808C24.8897 6.36935 25.0811 6.43692 25.2726 6.56645C25.9765 7.02822 26.5059 8.08693 26.4608 8.92039C26.4271 9.44974 26.1624 9.75947 25.7682 9.73695Z" fill="#202024"/>
<path d="M14.6545 16.1733V22.7902L7.37305 18.5722V11.9609L14.6545 16.1733Z" fill="#2E2E2E"/>
<path d="M28.0573 8.44132L23.2875 11.1951L22.7356 11.5161L14.6545 16.1789L7.37305 11.961L20.7759 4.229L28.0573 8.44132Z" fill="#737373"/>
<path d="M28.0571 8.44141L14.6543 16.1734V22.7903L28.0571 15.0583V8.44141Z" fill="#1A1A1A"/>
<path d="M28.0571 8.44141L27.9107 8.53151V14.9908L14.6543 22.6326V22.7903L28.0571 15.0583V8.44141Z" fill="#737373"/>
<path d="M25.151 11.5216V11.6399C25.151 11.7863 25.089 11.9046 24.9651 11.9778C24.8412 12.051 24.7793 12.0003 24.7793 11.8539V11.3809C24.7793 11.2344 24.8412 11.1162 24.9651 11.043C25.089 10.9698 25.151 11.0204 25.151 11.1669V11.257L25.0327 11.3245V11.2288C25.0327 11.1612 25.0102 11.1556 24.9708 11.1781C24.9313 11.2007 24.9088 11.2401 24.9088 11.3077V11.7976C24.9088 11.8595 24.9313 11.8708 24.9708 11.8483C25.0102 11.8257 25.0327 11.7863 25.0327 11.7244V11.5949L25.151 11.5273V11.5216Z" fill="white"/>
<path d="M25.6348 11.5839L25.5109 11.6572L25.4884 11.5051L25.3363 11.5952L25.3138 11.7754L25.2012 11.843L25.3251 10.8575L25.5053 10.7505L25.6292 11.5896L25.6348 11.5839ZM25.3532 11.46L25.4715 11.3925L25.4095 10.9645L25.3476 11.46H25.3532Z" fill="white"/>
<path d="M25.9563 11.1336L26.0408 10.4354L26.2154 10.334V11.2463L26.0971 11.3139V10.6606L26.0126 11.3645L25.8944 11.4321L25.8043 10.8408V11.4828L25.6973 11.5447V10.6325L25.8718 10.5311L25.9619 11.1224L25.9563 11.1336Z" fill="white"/>
<path d="M26.4286 10.5984L26.5975 10.5027V10.6322L26.4286 10.7279V10.9926L26.6426 10.8687V10.9982L26.3047 11.1953V10.283L26.6426 10.0859V10.2155L26.4286 10.3394V10.5928V10.5984Z" fill="white"/>
<path d="M26.9817 10.8067C26.9817 10.8067 26.9704 10.7729 26.9704 10.6997V10.5589C26.9704 10.4744 26.9479 10.4575 26.8916 10.4913L26.8465 10.5138V10.8855L26.7227 10.9587V10.0464L26.9085 9.93942C27.038 9.86621 27.0943 9.9 27.0943 10.0408V10.114C27.0943 10.2097 27.0662 10.2829 27.0155 10.3449C27.0774 10.3393 27.1 10.3956 27.1 10.4913V10.6321C27.1 10.6771 27.1 10.7053 27.1112 10.7335L26.9817 10.8067ZM26.8465 10.1027V10.3843L26.8972 10.3562C26.9423 10.328 26.9704 10.2886 26.9704 10.2154V10.1253C26.9704 10.0577 26.9535 10.0408 26.9085 10.0689L26.8465 10.1027Z" fill="white"/>
<path d="M27.5782 10.4577L27.4543 10.5309L27.4317 10.3789L27.2797 10.469L27.2572 10.6436L27.1445 10.7112L27.2684 9.72565L27.4486 9.61865L27.5782 10.4577ZM27.2966 10.3338L27.4148 10.2663L27.3529 9.83828L27.2909 10.3338H27.2966Z" fill="white"/>
<g style="mix-blend-mode:multiply">
<path d="M20.3008 18.5499L20.8189 19.0286L21.3426 18.6964L21.275 14.8951L21.0047 14.1743L20.3008 18.5499Z" fill="#262626"/>
</g>
<path d="M20.3064 14.6192L20.3008 18.5499L20.9991 18.1051L21.0047 14.1743L20.3064 14.6192Z" fill="#3B3B3B"/>
<path d="M20.5603 13.9321L21.0052 14.1743L20.3069 14.6192L19.8789 14.3601L20.5603 13.9321Z" fill="#888888"/>
<path d="M19.8789 14.3604L20.3069 14.6194L20.3013 18.5501L19.8789 18.2911V14.3604Z" fill="#434343"/>
<g style="mix-blend-mode:multiply">
<path d="M21.8613 17.6041L22.3738 18.0828L22.8975 17.7506L22.8299 13.9493L22.5596 13.2285L21.8613 17.6041Z" fill="#262626"/>
</g>
<path d="M21.8613 13.6678V17.5985L22.5596 17.1593V13.2285L21.8613 13.6678Z" fill="#3B3B3B"/>
<path d="M22.115 12.9858L22.5599 13.228L21.8616 13.6672L21.4336 13.4082L22.115 12.9858Z" fill="#888888"/>
<path d="M21.4336 13.4087L21.8616 13.6677V17.5985L21.4336 17.3451V13.4087Z" fill="#434343"/>
<g style="mix-blend-mode:multiply">
<path d="M23.416 16.6745L23.9341 17.1531L24.4578 16.8209L24.3846 13.0197L24.1143 12.2988L23.416 16.6745Z" fill="#262626"/>
</g>
<path d="M23.416 12.7383V16.6691L24.1143 16.2298V12.2935L23.416 12.7383Z" fill="#3B3B3B"/>
<path d="M23.6753 12.0566L24.1146 12.2932L23.4163 12.738L22.9883 12.479L23.6753 12.0566Z" fill="#888888"/>
<path d="M22.9883 12.479L23.4163 12.7381V16.6688L22.9883 16.4097V12.479Z" fill="#434343"/>
<path d="M14.901 14.7768V15.5089L8.49805 11.809V11.0713L14.901 14.7768Z" fill="#2E2E2E"/>
<path d="M26.6763 7.97964L22.8413 10.1928L22.2894 10.5138L14.901 14.7768L8.49805 11.0713L20.2734 4.27979L26.6763 7.97964Z" fill="#808080"/>
<g style="mix-blend-mode:multiply">
<path d="M23.2878 11.1951L22.7359 11.5161L22.291 11.2514L22.8429 10.936L23.2878 11.1951Z" fill="#919191"/>
</g>
<g style="mix-blend-mode:multiply">
<path d="M23.9191 7.9854L18.9071 6.52686L15.1172 8.63301L16.6039 10.9081L19.2281 10.5759L20.85 9.68046L22.2916 10.5139L22.8435 10.1929L21.4131 9.37073L23.9191 7.9854Z" fill="#919191"/>
</g>
<path d="M26.6757 7.97949L14.9004 14.7766V15.5087L26.6757 8.71721V7.97949Z" fill="#1A1A1A"/>
<path d="M21.7614 7.51795V8.18246L18.9062 6.52681V5.8623L21.7614 7.51795Z" fill="#2E2E2E"/>
<path d="M21.553 4.35889L18.9062 5.86248L21.7614 7.51812L24.4138 6.01453L21.553 4.35889Z" fill="#808080"/>
<path d="M24.4122 6.01416L21.7598 7.51775V8.18226L24.4122 6.67867V6.01416Z" fill="#262626"/>
<path d="M16.6026 6.61115V10.9079L14.7949 9.86049V5.56934L16.6026 6.61115Z" fill="#2E2E2E"/>
<path d="M15.2285 5.29932L14.7949 5.56963L16.6026 6.61144L17.0306 6.34676L15.2285 5.29932Z" fill="#737373"/>
<path d="M17.0296 6.34668L16.6016 6.61136V10.9081L17.0352 10.6378L17.0296 6.34668Z" fill="#1A1A1A"/>
<path d="M22.2161 3.3731V6.57175L20.4141 5.52431V2.33691L22.2161 3.3731Z" fill="#2E2E2E"/>
<path d="M20.8421 2.07227L20.4141 2.33694L22.2161 3.37313L22.6497 3.11408L20.8421 2.07227Z" fill="#737373"/>
<path d="M22.6504 3.11426L22.2168 3.3733V6.57196L22.6504 6.31855V3.11426Z" fill="#262626"/>
<path d="M16.1241 5.24836V6.89274L14.3164 5.84529V4.20654L16.1241 5.24836Z" fill="#2E2E2E"/>
<path d="M20.8432 0.433594L14.3164 4.20666L16.1241 5.24847L22.6509 1.48104L20.8432 0.433594Z" fill="#999999"/>
<path d="M22.6499 1.48096L16.123 5.24839V6.89277L22.6499 3.11971V1.48096Z" fill="#1A1A1A"/>
<path d="M20.166 4.39798V6.04236L20.8643 5.60874V3.96436L20.166 4.39798Z" fill="#262626"/>
<path d="M19.5995 3.23242L20.8666 3.96451L20.1683 4.39813L18.873 3.64915L19.5995 3.23242Z" fill="#737373"/>
<path d="M18.873 3.64893L20.1683 4.39791V6.04229L18.873 5.28767V3.64893Z" fill="#2E2E2E"/>
<path d="M26.2773 6.37451V11.2739L26.818 10.936V6.03662L26.2773 6.37451Z" fill="#1A1A1A"/>
<path d="M20.628 2.47217L26.8169 6.03687L26.2763 6.37475L20.0254 2.75374L20.628 2.47217Z" fill="#999999"/>
<path d="M20.0254 2.75391L26.2763 6.37492V11.2743L20.0254 7.65326V2.75391Z" fill="#595959"/>
<path d="M26.2031 6.33545V11.1503L20.0254 7.57437V7.65321L26.2763 11.2742V6.37487L26.2031 6.33545Z" fill="#999999"/>
<path d="M13.5549 19.7381C13.6675 17.8234 12.4511 15.4075 10.8405 14.3432C10.4069 14.056 9.97328 13.8927 9.58471 13.8702C9.32567 13.8533 9.10041 13.9096 8.89768 14.0109L8.05859 14.4896L8.45279 14.8219L8.81321 14.6586C8.73437 14.8894 8.68368 15.1598 8.66679 15.4526C8.55416 17.3673 9.77055 19.7832 11.3811 20.8475C11.4712 20.9038 11.5557 20.9545 11.6458 21.0052L11.7303 22.0076L12.682 21.4613C13.1888 21.1967 13.5098 20.5941 13.5605 19.7381H13.5549Z" fill="url(#paint2_linear_774_45901)"/>
<path d="M11.1063 22.109C10.7177 22.0865 10.2841 21.9232 9.85049 21.636C8.2399 20.5773 7.02351 18.1558 7.13614 16.2411C7.20935 15.0303 7.81191 14.3151 8.71857 14.3658C9.10714 14.3883 9.54076 14.5516 9.97438 14.8388C11.585 15.8976 12.8014 18.3191 12.6887 20.2338C12.6155 21.4445 12.013 22.1597 11.1063 22.109Z" fill="#202024"/>
<path d="M12.1363 20.4649C12.2433 18.6177 11.0663 16.2751 9.51207 15.2501C9.08971 14.9742 8.67298 14.8165 8.29568 14.794C8.04789 14.7771 7.82827 14.8334 7.63117 14.9291L3.875 17.0466L4.25231 17.3676L4.60146 17.2099C4.52825 17.4351 4.47756 17.6942 4.46067 17.9814C4.35367 19.8285 5.53064 22.1712 7.08492 23.1961C7.16939 23.2524 7.25386 23.2975 7.33833 23.3481L7.41717 24.3168L11.2803 22.1374C11.7703 21.884 12.08 21.2983 12.1307 20.4705L12.1363 20.4649Z" fill="url(#paint3_linear_774_45901)"/>
<path d="M6.82658 24.4121C6.44927 24.3896 6.03255 24.2319 5.61019 23.9559C4.05591 22.931 2.87331 20.594 2.98594 18.7412C3.05352 17.5699 3.63919 16.8772 4.51769 16.9279C4.895 16.9504 5.31172 17.1081 5.73408 17.384C7.28836 18.409 8.47096 20.746 8.35833 22.5988C8.29075 23.7701 7.70508 24.4628 6.82658 24.4121Z" fill="#202024"/>
<path d="M8.01972 22.447V25.7301L6.52739 26.5804L1.62241 23.7478L0.0625 21.0616V17.8348L1.4591 16.8662L3.69478 18.1558L6.45981 19.7551L7.76068 22.0021L8.01972 22.447Z" fill="#2E2E2E"/>
<path d="M7.73783 22.52V25.5666L6.52707 26.2536L1.82482 23.5449L0.34375 20.9826V17.981L1.47004 17.1982L3.69446 18.4822L6.25113 19.9576L7.73783 22.52Z" fill="#1C1C1C"/>
<path d="M7.73823 22.5202V23.5057V23.5507V23.6239L7.65939 23.5789L5.7447 22.4526L4.0609 21.4615L3.68359 21.2362V21.1067V20.4309L3.69486 18.6176V18.4824L3.83564 18.5669L5.48565 19.513L5.77849 19.6819L6.25153 19.9579L6.36416 20.1493L6.60068 20.5548L7.36655 21.8725L7.46229 22.0415L7.73823 22.5202Z" fill="#141414"/>
<path d="M3.86891 18.5835L4.0097 18.6623L4.5109 18.9552L5.55834 19.5577L5.83428 19.7267L5.93002 19.7886L6.27354 19.997L6.38053 20.1772L6.54385 20.4644L6.60016 20.5601L7.32661 21.8159L7.42235 21.9736L7.6814 22.4241L7.69829 23.0774L7.70955 23.3533V23.3984V23.466L7.63634 23.4265L5.81739 22.3509L4.66858 21.6752L4.21806 21.4105L3.95902 21.2584L3.86328 21.1965V21.0726V20.4306L3.86891 19.7042V18.713V18.5835Z" fill="#231B1F"/>
<path d="M4.05055 18.6909L4.18008 18.7641L4.65312 19.0344L5.63862 19.6032L5.89203 19.7665L5.98214 19.8285L6.2975 20.0312L6.39323 20.2001L6.55091 20.4761L6.60723 20.5606L7.29426 21.7544L7.37873 21.9008L7.63215 22.3288L7.66594 22.9483L7.68283 23.2073V23.2468V23.3087L7.61525 23.2693L5.89203 22.2556L4.79953 21.6136L4.37155 21.3602L4.12939 21.2194L4.04492 21.1519V21.0336V20.431L4.05055 19.744V18.8092V18.6909Z" fill="#312229"/>
<path d="M4.23024 18.792L4.3485 18.8596L4.79338 19.1186L5.71694 19.648L5.9422 19.8113L6.02667 19.8676L6.3195 20.0703L6.40961 20.228L6.55602 20.4814L6.60671 20.5659L7.25995 21.6922L7.33879 21.8273L7.57531 22.2384L7.626 22.8128L7.64852 23.055L7.65415 23.0944V23.1507L7.59221 23.1169L5.96472 22.154L4.93417 21.5458L4.52871 21.3092L4.29782 21.1741L4.22461 21.1121V20.9995V20.4307V19.7831L4.23024 18.9046V18.792Z" fill="#402934"/>
<path d="M4.40993 18.8936L4.52256 18.9611L4.93365 19.1977L5.78963 19.6932L5.99799 19.8509L6.07683 19.9072L6.33588 20.1043L6.42035 20.2507L6.56114 20.4929L6.60619 20.5717L7.22002 21.6304L7.29886 21.76L7.51848 22.1429L7.59169 22.6779L7.61985 22.9088V22.9426L7.62548 22.9932L7.56916 22.9595L6.03178 22.0528L5.06318 21.484L4.68587 21.2588L4.46624 21.1349L4.4043 21.0673V20.9659V20.4366V19.8284L4.40993 18.9949V18.8936Z" fill="#4E303E"/>
<path d="M4.59134 19.0005L4.69271 19.0568L5.07564 19.2764L5.86968 19.7382L6.05551 19.8903L6.12872 19.9522L6.35961 20.138L6.43845 20.2788L6.57361 20.5041L6.61303 20.5717L7.18743 21.5684L7.25501 21.6867L7.46337 22.0471L7.55348 22.5427L7.5929 22.7567V22.7848L7.59853 22.8355L7.54785 22.8017L6.1062 21.957L5.19954 21.422L4.84476 21.208L4.63639 21.0898L4.58008 21.0278V20.9264L4.58571 20.4365V19.8677L4.59134 19.0906V19.0005Z" fill="#5D3849"/>
<path d="M4.76344 19.1021L4.86481 19.1584L5.21396 19.3611L5.94605 19.7835L6.10936 19.9355L6.1713 19.9918L6.37967 20.1777L6.45288 20.3015L6.57677 20.5155L6.61056 20.5775L7.15117 21.5067L7.21312 21.6137L7.41022 21.9516L7.51158 22.4133L7.56227 22.6048V22.633L7.57353 22.678L7.52848 22.6499L6.17693 21.8558L5.32659 21.3546L4.99433 21.1632L4.80286 21.0449L4.75781 20.983V20.8928L4.76344 20.4367V19.9073V19.1865V19.1021Z" fill="#6B3F54"/>
<path d="M4.94508 19.2031L5.03519 19.2538L5.35618 19.4396L6.02069 19.8282L6.16711 19.9746L6.22342 20.0309L6.398 20.2112L6.46557 20.3294L6.58383 20.5265L6.61762 20.5828L7.11319 21.4444L7.17513 21.5458L7.35534 21.8555L7.47923 22.2779L7.52991 22.4581L7.53555 22.4806L7.54681 22.52L7.50739 22.4919L6.25158 21.7542L5.46318 21.2924L5.15345 21.1122L4.97324 21.0052L4.93945 20.9376V20.8531L4.94508 20.4364V19.9465V19.282V19.2031Z" fill="#79465E"/>
<path d="M5.12477 19.3101L5.20361 19.3551L5.49645 19.5241L6.09901 19.8732L6.2229 20.0196L6.26795 20.0703L6.42 20.2505L6.48195 20.3519L6.58895 20.5321L6.6171 20.5884L7.07888 21.3824L7.12956 21.4725L7.29851 21.7654L7.43929 22.1427L7.50124 22.306L7.50687 22.3285L7.51813 22.3623L7.48434 22.3398L6.32427 21.6584L5.59218 21.2247L5.31061 21.0614L5.14167 20.9601L5.11914 20.8981V20.8193V20.4363L5.12477 19.9858V19.3776V19.3101Z" fill="#884D69"/>
<path d="M5.30641 19.4116L5.37962 19.451L5.63867 19.6031L6.17929 19.9128L6.28065 20.0592L6.32007 20.1099L6.44396 20.2845L6.49465 20.3802L6.59601 20.5435L6.61854 20.5886L7.0409 21.3207L7.09158 21.3995L7.24363 21.6698L7.40131 22.0077L7.47452 22.1598L7.48015 22.1767L7.49141 22.2048L7.46325 22.1823L6.39891 21.5572L5.72314 21.163L5.46409 21.0109L5.31204 20.9208L5.30078 20.8533V20.7801V20.4365L5.30641 20.0254V19.4736V19.4116Z" fill="#965473"/>
<path d="M7.46274 22.0412L5.85778 21.1008L5.48047 20.8755V20.746V20.0702L5.4861 19.5127L5.77893 19.6816L6.25198 19.9576L6.3646 20.149L6.60112 20.5545L7.367 21.8723L7.46274 22.0412Z" fill="#A55B7E"/>
<path d="M3.92575 21.0841L3.93138 18.6176L3.69486 18.4824L3.68359 21.2362L7.73823 23.6239V23.5057V23.3255L3.92575 21.0841Z" fill="#333333"/>
<path d="M8.38363 18.6381L6.45508 19.7578L8.01593 22.4461L9.94448 21.3264L8.38363 18.6381Z" fill="#383838"/>
<path d="M1.45898 16.866L6.4597 19.7549L8.38565 18.6343L3.38494 15.751L1.45898 16.866Z" fill="#808080"/>
<path d="M8.01953 25.73L9.94548 24.6093V21.3262L8.01953 22.4468V25.73Z" fill="#1C1C1C"/>
<path d="M3.68455 21.2363L1.82617 23.5396L6.52842 26.2539L7.73918 25.5669V23.6241L3.68455 21.2363Z" fill="#737373"/>
<path d="M1.82482 23.5396L3.68319 21.2363L0.34375 20.9829L1.82482 23.5396Z" fill="#383838"/>
<path d="M3.68359 21.2362L3.92575 21.0841L3.93138 18.6176L3.69486 18.4824L3.68359 21.2362Z" fill="#0D0D0D"/>
<g style="mix-blend-mode:screen">
<path d="M6.60068 20.5549L4.0609 21.4615L3.68359 21.2363V21.1068L6.36416 20.1494L6.60068 20.5549Z" fill="#333333"/>
</g>
<g style="mix-blend-mode:screen">
<path d="M5.77849 19.6819L3.68359 20.4309L3.69486 18.6176L3.83564 18.5669L5.77849 19.6819Z" fill="#333333"/>
</g>
<g style="mix-blend-mode:screen">
<path d="M7.73767 22.5202V23.6239L5.74414 22.4526L7.36599 21.8726L7.73767 22.5202Z" fill="#333333"/>
</g>
<path d="M16.4612 6.44785C16.5119 5.59188 15.9656 4.51064 15.2504 4.0376C15.059 3.90808 14.8619 3.83487 14.6873 3.8236C14.5747 3.81797 14.4677 3.8405 14.3776 3.88555L12.8965 4.74153L13.0711 4.89358L13.2344 4.82037C13.2006 4.92737 13.1781 5.04563 13.1668 5.17515C13.1161 6.03113 13.6624 7.11236 14.3776 7.5854C14.417 7.61356 14.4564 7.63609 14.4958 7.65298L14.5352 8.1035L16.067 7.21373C16.2922 7.09547 16.4387 6.82516 16.4612 6.44222V6.44785Z" fill="url(#paint4_linear_774_45901)"/>
<path d="M14.2596 8.15439C14.085 8.14312 13.8936 8.06992 13.6965 7.94039C12.9756 7.46735 12.435 6.38612 12.4857 5.53014C12.5195 4.98952 12.7898 4.66853 13.1953 4.69105C13.3698 4.70232 13.5613 4.77553 13.7584 4.90505C14.4792 5.37809 15.0199 6.45933 14.9692 7.3153C14.9354 7.85592 14.6651 8.17691 14.2596 8.15439Z" fill="#262626"/>
<path d="M14.5798 7.33227C14.6249 6.60019 14.1575 5.671 13.538 5.26553C13.3691 5.15854 13.2057 5.09096 13.0537 5.08533C12.958 5.0797 12.8679 5.10222 12.789 5.14164L9.41016 7.04507L9.56221 7.17459L9.70299 7.11265C9.67483 7.20275 9.65231 7.30412 9.64668 7.41674C9.60163 8.14883 10.069 9.07802 10.6885 9.48348C10.7223 9.50601 10.7561 9.5229 10.7899 9.54543L10.8236 9.92837L14.2419 8.00241C14.4334 7.90105 14.5573 7.67016 14.5798 7.34354V7.33227Z" fill="#1F1F1F"/>
<path d="M10.5832 9.95658C10.4367 9.94532 10.2678 9.88337 10.0988 9.77638C9.47939 9.37091 9.01761 8.44173 9.05703 7.70964C9.08519 7.24786 9.31608 6.97192 9.66523 6.99445C9.81165 7.00571 9.98059 7.06765 10.1495 7.17465C10.769 7.58012 11.2308 8.5093 11.1913 9.24139C11.1632 9.70317 10.9323 9.97911 10.5832 9.96221V9.95658Z" fill="#0D0D0D"/>
<path d="M10.5926 9.82096C10.4688 9.81533 10.328 9.75902 10.1815 9.66328C9.60151 9.28034 9.16226 8.4131 9.20168 7.72044C9.2242 7.35439 9.38188 7.13477 9.62967 7.13477C9.64093 7.13477 9.64656 7.13477 9.65782 7.13477C9.78172 7.1404 9.9225 7.19671 10.0689 7.29245C10.649 7.67538 11.0882 8.54263 11.0488 9.23529C11.0263 9.60134 10.8686 9.82096 10.6152 9.82096C10.6039 9.82096 10.5983 9.82096 10.587 9.82096H10.5926Z" fill="#737373"/>
<g style="mix-blend-mode:multiply">
<path d="M10.9375 12.0515L12.7452 13.0877L16.6027 10.9083L14.795 9.86084L10.9375 12.0515Z" fill="#919191"/>
</g>
<g style="mix-blend-mode:multiply">
<path d="M22.2908 10.5139L22.2852 11.2516L22.8427 10.9362V10.1929L22.2908 10.5139Z" fill="#919191"/>
</g>
<path d="M15.1934 17.4857C15.1934 17.7616 15.3848 17.8686 15.627 17.7335C15.8635 17.5983 16.0606 17.2604 16.0606 16.9901C16.0606 16.7198 15.8691 16.6072 15.627 16.7423C15.3905 16.8775 15.1934 17.2154 15.1934 17.4857Z" fill="#C41220"/>
<path d="M15.9265 16.7139C15.9771 16.7646 16.0053 16.849 16.0053 16.956C16.0053 17.232 15.8138 17.5642 15.5717 17.6994C15.4534 17.7669 15.3464 17.7726 15.2676 17.7332C15.3464 17.812 15.4759 17.8233 15.6167 17.7388C15.8532 17.6036 16.0503 17.2657 16.0503 16.9954C16.0503 16.8603 15.9997 16.7646 15.9208 16.7195L15.9265 16.7139Z" fill="#737373"/>
<path d="M16.3438 16.8099C16.3438 17.0858 16.5352 17.1928 16.7774 17.0577C17.0139 16.9225 17.211 16.5846 17.211 16.3143C17.211 16.044 17.0195 15.9314 16.7774 16.0665C16.5409 16.2017 16.3438 16.5396 16.3438 16.8099Z" fill="#00D403"/>
<path d="M17.0808 16.0327C17.1314 16.0834 17.1596 16.1679 17.1596 16.2749C17.1596 16.5508 16.9681 16.8831 16.726 17.0182C16.6077 17.0858 16.5007 17.0914 16.4219 17.052C16.5007 17.1308 16.6302 17.1421 16.771 17.0576C17.0075 16.9225 17.2046 16.5846 17.2046 16.3143C17.2046 16.1791 17.154 16.0834 17.0751 16.0383L17.0808 16.0327Z" fill="#737373"/>
<path d="M17.5098 16.1624C17.5098 16.4384 17.7012 16.5454 17.9434 16.4102C18.1855 16.2751 18.377 15.9372 18.377 15.6669C18.377 15.3966 18.1855 15.2839 17.9434 15.4191C17.7012 15.5542 17.5098 15.8921 17.5098 16.1624Z" fill="#FF9A0B"/>
<path d="M18.2409 15.3853C18.2916 15.4359 18.3197 15.5204 18.3197 15.6274C18.3197 15.9033 18.1283 16.2356 17.8861 16.3708C17.7679 16.4383 17.6609 16.444 17.582 16.4045C17.6609 16.4834 17.7904 16.4946 17.9312 16.4102C18.1677 16.275 18.3648 15.9371 18.3648 15.6668C18.3648 15.5317 18.3141 15.4359 18.2353 15.3909L18.2409 15.3853Z" fill="#737373"/>
<g style="mix-blend-mode:multiply">
<path d="M15.661 21.6867L18.4598 20.0705C18.6625 19.9522 18.8258 19.6369 18.8258 19.3666V16.8549C18.8258 16.5846 18.6625 16.4607 18.4598 16.579L15.661 18.1952C15.4582 18.3135 15.2949 18.6288 15.2949 18.8992V21.4108C15.2949 21.6811 15.4582 21.805 15.661 21.6867Z" fill="#262626"/>
</g>
<path d="M18.596 16.5393C18.641 16.5956 18.6692 16.68 18.6692 16.787V19.2987C18.6692 19.569 18.5059 19.8843 18.3031 20.0026L15.5043 21.6188C15.4592 21.647 15.4142 21.6582 15.3691 21.6639C15.4367 21.7427 15.5437 21.7596 15.662 21.692L18.4608 20.0758C18.6635 19.9575 18.8268 19.6422 18.8268 19.3719V16.8602C18.8268 16.6519 18.7311 16.5336 18.596 16.5393Z" fill="#737373"/>
<path d="M22.5587 7.39419L22.3672 7.28719V5.90186L22.5587 6.00885V6.60015L22.7727 6.72405V6.13274L22.9641 6.24537V7.63071L22.7727 7.51808V6.92678L22.5587 6.80289V7.39419Z" fill="white"/>
<path d="M23.1055 6.32373L23.4039 6.49831C23.5954 6.6053 23.6855 6.77988 23.6855 7.00513V7.70343C23.6855 7.92306 23.5954 7.99064 23.4039 7.88364L23.1055 7.70906V6.32373ZM23.2969 6.62783V7.61333L23.4039 7.67528C23.4659 7.70906 23.4997 7.6978 23.4997 7.59644V6.87561C23.4997 6.77425 23.4659 6.71793 23.4039 6.68414L23.2969 6.6222V6.62783Z" fill="white"/>
<path d="M15.8416 18.6511L15.8359 21.4161L16.2245 21.1684V18.4033L15.8416 18.6511Z" fill="#3B3B3B"/>
<path d="M15.9828 18.2681L16.2249 18.4032L15.842 18.651L15.6055 18.5046L15.9828 18.2681Z" fill="#888888"/>
<path d="M15.6052 18.5049L15.8418 18.6513L15.8361 21.4163L15.5996 21.2699L15.6052 18.5049Z" fill="#434343"/>
<path d="M16.5799 18.2231L16.5742 20.9881L16.9628 20.746V17.981L16.5799 18.2231Z" fill="#3B3B3B"/>
<path d="M16.7211 17.8462L16.9632 17.9813L16.5803 18.2235L16.3438 18.0827L16.7211 17.8462Z" fill="#888888"/>
<path d="M16.3438 18.0825L16.5803 18.2233L16.5746 20.9883L16.3438 20.8476V18.0825Z" fill="#434343"/>
<path d="M17.3184 17.8066V20.5716L17.7013 20.3295V17.5645L17.3184 17.8066Z" fill="#3B3B3B"/>
<path d="M17.4574 17.4292L17.6995 17.5644L17.3166 17.8065L17.0801 17.6657L17.4574 17.4292Z" fill="#888888"/>
<path d="M17.0801 17.666L17.3166 17.8068V20.5718L17.0801 20.4311V17.666Z" fill="#434343"/>
<path d="M18.0547 17.3786V20.1437L18.4376 19.8959V17.1309L18.0547 17.3786Z" fill="#3B3B3B"/>
<path d="M18.1957 16.9956L18.4378 17.1308L18.0549 17.3785L17.8184 17.2321L18.1957 16.9956Z" fill="#888888"/>
<path d="M17.8184 17.2324L18.0549 17.3788V20.1439L17.8184 19.9975V17.2324Z" fill="#434343"/>
<path d="M25.843 14.0052L25.6797 14.1009V12.924L25.843 12.8282V13.335L26.0288 13.2281V12.7212L26.1921 12.6255V13.8025L26.0288 13.8982V13.3914L25.843 13.4984V14.0052Z" fill="white"/>
<path d="M26.3105 12.5636L26.564 12.4171C26.7273 12.3214 26.8061 12.3834 26.8061 12.5692V13.1661C26.8061 13.352 26.7273 13.504 26.564 13.5941L26.3105 13.7405V12.5636ZM26.4739 12.6368V13.4759L26.564 13.4252C26.6146 13.397 26.6484 13.3463 26.6484 13.2619V12.648C26.6484 12.5636 26.6203 12.5523 26.564 12.5805L26.4739 12.6311V12.6368Z" fill="white"/>
<defs>
<linearGradient id="paint0_linear_774_45901" x1="28.4897" y1="3.48598" x2="30.8493" y2="7.52372" gradientUnits="userSpaceOnUse">
<stop offset="0.27" stop-color="#737373"/>
<stop offset="0.28" stop-color="#474747"/>
<stop offset="0.84" stop-color="#262626"/>
</linearGradient>
<linearGradient id="paint1_linear_774_45901" x1="26.4891" y1="5.28215" x2="28.2911" y2="8.36255" gradientUnits="userSpaceOnUse">
<stop offset="0.27" stop-color="#737373"/>
<stop offset="0.28" stop-color="#474747"/>
<stop offset="0.84" stop-color="#262626"/>
</linearGradient>
<linearGradient id="paint2_linear_774_45901" x1="9.05536" y1="14.0842" x2="13.1776" y2="21.1347" gradientUnits="userSpaceOnUse">
<stop offset="0.27" stop-color="#737373"/>
<stop offset="0.28" stop-color="#474747"/>
<stop offset="0.84" stop-color="#262626"/>
</linearGradient>
<linearGradient id="paint3_linear_774_45901" x1="6.29652" y1="15.802" x2="10.3174" y2="22.6667" gradientUnits="userSpaceOnUse">
<stop offset="0.27" stop-color="#737373"/>
<stop offset="0.28" stop-color="#474747"/>
<stop offset="0.84" stop-color="#262626"/>
</linearGradient>
<linearGradient id="paint4_linear_774_45901" x1="13.8932" y1="4.24596" x2="15.7404" y2="7.39957" gradientUnits="userSpaceOnUse">
<stop offset="0.27" stop-color="#737373"/>
<stop offset="0.28" stop-color="#474747"/>
<stop offset="0.84" stop-color="#262626"/>
</linearGradient>
</defs>
</svg>
