<svg width="32" height="40" viewBox="0 0 32 40" fill="none" xmlns="http://www.w3.org/2000/svg">
<g clip-path="url(#clip0_249_15775)">
<g clip-path="url(#clip1_249_15775)">
<path d="M12.7306 14.672L10.2831 9.64502L5.91458 7.73936C5.35226 6.22708 3.02824 3.78615 1 1.5L6.99695 7.04609C8.33936 8.2456 10.2636 8.72604 12.7306 8.53258C11.9765 9.72563 12.087 11.8957 12.7306 14.672Z" fill="url(#paint0_linear_249_15775)"/>
<path d="M12.7307 19.699L9.41211 22.8622C9.41211 22.8622 11.6841 22.0399 12.7307 22.8622C13.7806 23.6844 14.1284 26.8799 14.1284 26.8799V19.699L12.7307 21.7207V19.699Z" fill="url(#paint1_linear_249_15775)"/>
<path d="M9.41199 25.8608L3.99685 30.0011L8.13459 28.7145L1 40.4999C4.10411 35.631 7.05871 30.4751 11.7685 28.7145C11.7685 28.7145 9.23647 29.5819 9.40874 28.3663C9.58426 27.1539 9.40874 25.8608 9.40874 25.8608H9.41199Z" fill="url(#paint2_linear_249_15775)"/>
<path d="M24.8746 16.6356C25.6612 16.6904 22.9472 21.7206 22.9472 21.7206C25.9278 16.3776 29.1879 11.7569 33.0006 8.53247C29.4349 10.6445 23.7825 17.145 21.1725 17.116C19.0597 17.0934 19.3978 13.1112 19.3978 13.1112L17.623 21.7206C17.623 21.7206 20.3599 18.4348 23.9093 17.116" fill="url(#paint3_linear_249_15775)"/>
<path style="mix-blend-mode:screen" d="M20 20.5C21.1046 20.5 22 19.6046 22 18.5C22 17.3954 21.1046 16.5 20 16.5C18.8954 16.5 18 17.3954 18 18.5C18 19.6046 18.8954 20.5 20 20.5Z" fill="url(#paint4_radial_249_15775)"/>
<path d="M17.6224 24.8999C17.6224 24.8999 17.5639 27.6729 16.3418 28.5403C16.3418 28.5403 18.1458 27.5569 19.4297 28.0792C20.7103 28.5984 26.0702 33.9155 26.0702 33.9155C26.0702 33.9155 20.6648 28.9724 20.5965 27.5021C20.5543 26.5541 23.0863 28.0663 23.0863 28.0663C23.0863 28.0663 19.6637 25.7125 19.4329 25.5383C19.1989 25.3642 20.3073 27.386 19.4329 27.157C18.5586 26.9249 17.6289 24.9031 17.6289 24.9031L17.6224 24.8999Z" fill="url(#paint5_linear_249_15775)"/>
<path d="M11.7688 11.641C11.7688 11.641 11.2227 9.77729 11.07 9.49676C10.9172 9.21623 7.52381 8.29081 6.46094 7.52661C6.46094 7.52661 9.69182 8.93571 10.7644 9.0002C11.8338 9.06468 12.1199 8.89056 12.1199 8.89056C12.1199 8.89056 11.5283 10.0836 11.7688 11.641Z" fill="#FDF557"/>
<path style="mix-blend-mode:screen" d="M11 12.5C12.6569 12.5 14 11.1569 14 9.5C14 7.84315 12.6569 6.5 11 6.5C9.34315 6.5 8 7.84315 8 9.5C8 11.1569 9.34315 12.5 11 12.5Z" fill="url(#paint6_radial_249_15775)"/>
<path d="M19.1734 16.1682C19.1734 16.1682 19.0857 18.7478 18.4746 19.9376C18.4746 19.9376 23.0381 16.7228 24.4943 16.3197C25.9505 15.9167 25.3102 17.1871 25.3102 17.1871C25.3102 17.1871 27.5822 13.4016 28.3103 12.7664C28.3103 12.7664 26.2723 15.2782 25.3102 15.6265C24.348 15.9747 20.7369 17.9094 19.778 18.4285L19.1734 16.1682Z" fill="#FDF557"/>
<path d="M12.1203 20.9436L11.1582 21.9561C11.1582 21.9561 13.1669 21.811 13.7488 23.9198V21.1177C13.7488 21.1177 13.5732 22.3011 13.1669 22.214C12.7606 22.127 11.9675 21.7465 12.1171 20.9436H12.1203Z" fill="#FDF557"/>
<path style="mix-blend-mode:screen" d="M13.0117 26.4811C15.7796 26.4811 18.0234 24.2467 18.0234 21.4905C18.0234 18.7343 15.7796 16.5 13.0117 16.5C10.2438 16.5 8 18.7343 8 21.4905C8 24.2467 10.2438 26.4811 13.0117 26.4811Z" fill="url(#paint7_radial_249_15775)"/>
<path d="M6.46094 28.6275L8.85647 26.8799C8.85647 26.8799 8.33641 28.347 9.149 28.9726L6.46419 32.2357L8.59644 28.8565C8.59644 28.8565 8.10563 28.4373 8.3039 27.7892L6.46094 28.6275Z" fill="#FDF557"/>
<path style="mix-blend-mode:screen" d="M9 30.5C10.1046 30.5 11 29.6046 11 28.5C11 27.3954 10.1046 26.5 9 26.5C7.89543 26.5 7 27.3954 7 28.5C7 29.6046 7.89543 30.5 9 30.5Z" fill="url(#paint8_radial_249_15775)"/>
<path d="M17.9741 26.1123C17.9741 26.1123 18.1496 27.0667 17.623 27.5278C17.623 27.5278 19.427 27.3537 20.2136 28.105C20.2136 28.105 20.2201 26.8733 20.7954 26.8797C20.7954 26.8797 20.0511 26.5831 19.9796 27.4698C19.9796 27.4698 18.9882 27.6149 18.6112 27.1087C18.2341 26.6024 17.9708 26.1123 17.9708 26.1123H17.9741Z" fill="#FDF557"/>
<path style="mix-blend-mode:screen" d="M19 30.5C20.6569 30.5 22 29.1569 22 27.5C22 25.8431 20.6569 24.5 19 24.5C17.3431 24.5 16 25.8431 16 27.5C16 29.1569 17.3431 30.5 19 30.5Z" fill="url(#paint9_radial_249_15775)"/>
</g>
</g>
<defs>
<linearGradient id="paint0_linear_249_15775" x1="6.86531" y1="-1.57346" x2="6.86531" y2="17.0868" gradientUnits="userSpaceOnUse">
<stop stop-color="#FFC700"/>
<stop offset="1" stop-color="#FF8A00"/>
</linearGradient>
<linearGradient id="paint1_linear_249_15775" x1="11.7703" y1="18.0234" x2="11.7703" y2="28.1964" gradientUnits="userSpaceOnUse">
<stop stop-color="#FFC700"/>
<stop offset="1" stop-color="#FF8A00"/>
</linearGradient>
<linearGradient id="paint2_linear_249_15775" x1="6.38426" y1="22.445" x2="6.38426" y2="43.1838" gradientUnits="userSpaceOnUse">
<stop stop-color="#FFC700"/>
<stop offset="1" stop-color="#FF8A00"/>
</linearGradient>
<linearGradient id="paint3_linear_249_15775" x1="25.3118" y1="5.45525" x2="25.3118" y2="24.1384" gradientUnits="userSpaceOnUse">
<stop stop-color="#FFC700"/>
<stop offset="1" stop-color="#FF8A00"/>
</linearGradient>
<radialGradient id="paint4_radial_249_15775" cx="0" cy="0" r="1" gradientUnits="userSpaceOnUse" gradientTransform="translate(20 18.5) scale(2)">
<stop stop-color="#FFFF12"/>
<stop offset="0.13" stop-color="#FF9412"/>
<stop offset="0.15" stop-color="#F28C11"/>
<stop offset="0.21" stop-color="#C06F0D"/>
<stop offset="0.28" stop-color="#92550A"/>
<stop offset="0.35" stop-color="#6B3E07"/>
<stop offset="0.43" stop-color="#492A05"/>
<stop offset="0.51" stop-color="#2E1B03"/>
<stop offset="0.6" stop-color="#190F01"/>
<stop offset="0.7" stop-color="#0B0600"/>
<stop offset="0.82" stop-color="#020100"/>
<stop offset="1"/>
</radialGradient>
<linearGradient id="paint5_linear_249_15775" x1="21.206" y1="22.7963" x2="21.206" y2="35.5684" gradientUnits="userSpaceOnUse">
<stop stop-color="#FFC700"/>
<stop offset="1" stop-color="#FF8A00"/>
</linearGradient>
<radialGradient id="paint6_radial_249_15775" cx="0" cy="0" r="1" gradientUnits="userSpaceOnUse" gradientTransform="translate(11 9.5) scale(3)">
<stop stop-color="#FFFF12"/>
<stop offset="0.13" stop-color="#FF9412"/>
<stop offset="0.15" stop-color="#F28C11"/>
<stop offset="0.21" stop-color="#C06F0D"/>
<stop offset="0.28" stop-color="#92550A"/>
<stop offset="0.35" stop-color="#6B3E07"/>
<stop offset="0.43" stop-color="#492A05"/>
<stop offset="0.51" stop-color="#2E1B03"/>
<stop offset="0.6" stop-color="#190F01"/>
<stop offset="0.7" stop-color="#0B0600"/>
<stop offset="0.82" stop-color="#020100"/>
<stop offset="1"/>
</radialGradient>
<radialGradient id="paint7_radial_249_15775" cx="0" cy="0" r="1" gradientUnits="userSpaceOnUse" gradientTransform="translate(13.0117 21.4905) scale(5.01172 4.99053)">
<stop stop-color="#FFFF12"/>
<stop offset="0.13" stop-color="#FF9412"/>
<stop offset="0.15" stop-color="#F28C11"/>
<stop offset="0.21" stop-color="#C06F0D"/>
<stop offset="0.28" stop-color="#92550A"/>
<stop offset="0.35" stop-color="#6B3E07"/>
<stop offset="0.43" stop-color="#492A05"/>
<stop offset="0.51" stop-color="#2E1B03"/>
<stop offset="0.6" stop-color="#190F01"/>
<stop offset="0.7" stop-color="#0B0600"/>
<stop offset="0.82" stop-color="#020100"/>
<stop offset="1"/>
</radialGradient>
<radialGradient id="paint8_radial_249_15775" cx="0" cy="0" r="1" gradientUnits="userSpaceOnUse" gradientTransform="translate(9 28.5) scale(2)">
<stop stop-color="#FFFF12"/>
<stop offset="0.13" stop-color="#FF9412"/>
<stop offset="0.15" stop-color="#F28C11"/>
<stop offset="0.21" stop-color="#C06F0D"/>
<stop offset="0.28" stop-color="#92550A"/>
<stop offset="0.35" stop-color="#6B3E07"/>
<stop offset="0.43" stop-color="#492A05"/>
<stop offset="0.51" stop-color="#2E1B03"/>
<stop offset="0.6" stop-color="#190F01"/>
<stop offset="0.7" stop-color="#0B0600"/>
<stop offset="0.82" stop-color="#020100"/>
<stop offset="1"/>
</radialGradient>
<radialGradient id="paint9_radial_249_15775" cx="0" cy="0" r="1" gradientUnits="userSpaceOnUse" gradientTransform="translate(19 27.5) scale(3)">
<stop stop-color="#FFFF12"/>
<stop offset="0.13" stop-color="#FF9412"/>
<stop offset="0.15" stop-color="#F28C11"/>
<stop offset="0.21" stop-color="#C06F0D"/>
<stop offset="0.28" stop-color="#92550A"/>
<stop offset="0.35" stop-color="#6B3E07"/>
<stop offset="0.43" stop-color="#492A05"/>
<stop offset="0.51" stop-color="#2E1B03"/>
<stop offset="0.6" stop-color="#190F01"/>
<stop offset="0.7" stop-color="#0B0600"/>
<stop offset="0.82" stop-color="#020100"/>
<stop offset="1"/>
</radialGradient>
<clipPath id="clip0_249_15775">
<rect width="32" height="39" fill="white" transform="translate(0 0.5)"/>
</clipPath>
<clipPath id="clip1_249_15775">
<rect width="32" height="39" fill="white" transform="translate(1 1.5)"/>
</clipPath>
</defs>
</svg>
