<svg width="30" height="31" viewBox="0 0 30 31" fill="none" xmlns="http://www.w3.org/2000/svg">
<path d="M0 30.7998L2.15243 22.8037C0.416549 19.6888 -0.134958 16.0539 0.599113 12.5662C1.33318 9.0784 3.30359 5.97166 6.14876 3.81603C8.99394 1.66041 12.523 0.600486 16.0884 0.830772C19.6538 1.06106 23.0164 2.5661 25.5591 5.06972C28.1018 7.57335 29.6541 10.9076 29.9311 14.4607C30.2081 18.0137 29.1912 21.5473 27.0671 24.4129C24.9429 27.2785 21.854 29.2839 18.3672 30.0612C14.8803 30.8384 11.2294 30.3354 8.08433 28.6444L0 30.7998ZM8.47414 25.6522L8.97411 25.948C11.2521 27.2948 13.9128 27.8522 16.5416 27.5332C19.1703 27.2142 21.6194 26.0368 23.5073 24.1844C25.3951 22.3321 26.6156 19.9089 26.9786 17.2925C27.3415 14.676 26.8266 12.0133 25.514 9.71921C24.2014 7.42515 22.1648 5.62863 19.7217 4.60961C17.2786 3.59058 14.5661 3.4063 12.007 4.08547C9.44796 4.76465 7.186 6.26913 5.57365 8.36447C3.9613 10.4598 3.08913 13.0283 3.09306 15.6697C3.09092 17.8598 3.69817 20.0076 4.84721 21.8739L5.16075 22.3895L3.95742 26.8524L8.47414 25.6522Z" fill="#00D95F"/>
<path fill-rule="evenodd" clip-rule="evenodd" d="M20.6091 17.7231C20.316 17.4874 19.9728 17.3214 19.6057 17.2379C19.2385 17.1544 18.8572 17.1556 18.4906 17.2414C17.9397 17.4696 17.5838 18.3317 17.2279 18.7628C17.1528 18.8662 17.0426 18.9386 16.9178 18.9666C16.7929 18.9947 16.6622 18.9763 16.55 18.915C14.5334 18.1271 12.8431 16.6824 11.7536 14.8155C11.6607 14.699 11.6167 14.551 11.6309 14.4028C11.6452 14.2546 11.7165 14.1177 11.8299 14.0209C12.2268 13.6289 12.5183 13.1434 12.6773 12.6093C12.7126 12.0202 12.5773 11.4334 12.2875 10.9188C12.0634 10.1974 11.6371 9.5551 11.0587 9.0677C10.7604 8.93389 10.4297 8.88902 10.1064 8.93851C9.78313 8.98801 9.48111 9.12975 9.23679 9.34664C8.81263 9.71166 8.47596 10.1669 8.25158 10.6789C8.02719 11.1909 7.9208 11.7466 7.94025 12.305C7.94155 12.6186 7.9814 12.9309 8.05888 13.2348C8.25566 13.9651 8.55827 14.6627 8.95714 15.3057C9.24492 15.7983 9.55891 16.2751 9.89777 16.7342C10.999 18.2421 12.3833 19.5224 13.9738 20.5041C14.772 21.0029 15.625 21.4084 16.5161 21.7128C17.4417 22.1313 18.4637 22.2919 19.4735 22.1777C20.0489 22.0908 20.5941 21.8642 21.061 21.5178C21.5279 21.1715 21.9024 20.7159 22.1514 20.1913C22.2977 19.8744 22.3421 19.5201 22.2785 19.177C22.126 18.4754 21.1853 18.0613 20.6091 17.7231Z" fill="#00D95F"/>
</svg>
